<?xml version="1.0" standalone="no"?>
<!DOCTYPE svg PUBLIC "-//W3C//DTD SVG 1.1//EN" "http://www.w3.org/Graphics/SVG/1.1/DTD/svg11.dtd" >
<svg xmlns="http://www.w3.org/2000/svg" xmlns:xlink="http://www.w3.org/1999/xlink" version="1.1">
<metadata>
Created by FontForge 20161013 at Wed Nov 30 02:02:46 2011
 By ,,,
(C)2004 House Industries/Brand Design Co., Inc. All Rights Reserved.
</metadata>
<defs>
<font id="NeutrafaceText-LightItalic" horiz-adv-x="500" >
  <font-face 
    font-family="Neutraface Text Light Italic"
    font-weight="300"
    font-style="italic"
    font-stretch="normal"
    units-per-em="1000"
    panose-1="2 0 6 0 5 0 0 9 0 4"
    ascent="780"
    descent="-220"
    x-height="408"
    cap-height="680"
    bbox="-106 -257 1102 970"
    underline-thickness="20"
    underline-position="-173"
    slope="-12"
    unicode-range="U+000D-FB04"
  />
<missing-glyph horiz-adv-x="244" 
 />
    <glyph glyph-name="ff" unicode="ff" horiz-adv-x="510" 
d="M363 375h-194l-83 -473q-11 -64 -38 -89t-72 -25h-29l6 35h25q27 0 44.5 17t26.5 67l82 468h-63l6 33h63l35 197q19 110 106 110q59 0 86 -51l-29 -19q-22 36 -57 36q-28 0 -44.5 -17.5t-24.5 -63.5l-34 -192h194l39 219q18 108 108 108q57 0 84 -50l-29 -18
q-21 34 -55 34q-29 0 -46 -16.5t-25 -62.5l-38 -214h106l-6 -33h-106l-80 -453q-11 -64 -38 -89t-72 -25h-29l6 35h25q27 0 44.5 17t26.5 67z" />
    <glyph glyph-name="fi" unicode="fi" horiz-adv-x="466" 
d="M419 551q-13 0 -23 9.5t-10 23.5t10 23.5t23 9.5q12 0 22 -9.5t10 -23.5t-9.5 -23.5t-22.5 -9.5zM169 375l-83 -473q-11 -64 -38 -89t-72 -25h-29l6 35h25q27 0 44.5 17t26.5 67l82 468h-63l6 33h63l38 216q10 57 38.5 84t67.5 27q60 0 87 -51l-29 -19q-22 36 -58 36
q-55 0 -69 -82l-37 -211h232l-60 -339q-6 -35 20 -35h46l-6 -34h-48q-62 0 -48 78l52 297h-194z" />
    <glyph glyph-name="fl" unicode="fl" horiz-adv-x="461" 
d="M131 375h-63l6 33h63l33 187q12 70 52 105t97 35q61 0 95 -43.5t21 -116.5l-89 -506q-6 -35 20 -35h49l-6 -34h-51q-62 0 -48 78l88 500q10 57 -12 90t-68 33q-92 0 -111 -112l-32 -181h107l-6 -33h-107l-83 -473q-11 -64 -38 -89t-72 -25h-29l6 35h25q27 0 44.5 17
t26.5 67z" />
    <glyph glyph-name="ffi" unicode="ffi" horiz-adv-x="698" 
d="M651 551q-13 0 -23 9.5t-10 23.5t10 23.5t23 9.5q12 0 22 -9.5t10 -23.5t-9.5 -23.5t-22.5 -9.5zM401 375l-80 -453q-11 -64 -38 -89t-72 -25h-29l6 35h25q27 0 44.5 17t26.5 67l79 448h-194l-83 -473q-11 -64 -38 -89t-72 -25h-29l6 35h25q27 0 44.5 17t26.5 67l82 468
h-63l6 33h63l35 197q19 110 106 110q59 0 86 -51l-29 -19q-22 36 -57 36q-28 0 -44.5 -17.5t-24.5 -63.5l-34 -192h194l38 216q10 57 38.5 84t67.5 27q60 0 87 -51l-29 -19q-22 36 -58 36q-55 0 -69 -82l-37 -211h232l-60 -339q-6 -35 20 -35h46l-6 -34h-48q-62 0 -48 78
l52 297h-194z" />
    <glyph glyph-name="ffl" unicode="ffl" horiz-adv-x="693" 
d="M363 375h-193l-84 -473q-11 -64 -38 -89t-72 -25h-29l6 35h25q27 0 44.5 17t26.5 67l82 468h-63l6 33h63l35 197q19 110 106 110q59 0 86 -51l-29 -19q-22 36 -57 36q-27 0 -43.5 -17.5t-24.5 -63.5l-34 -192h193l33 187q12 70 52 105t97 35q61 0 95 -43.5t21 -116.5
l-89 -506q-6 -35 20 -35h49l-6 -34h-51q-62 0 -48 78l88 500q10 57 -12 90t-68 33q-92 0 -111 -112l-32 -181h106l-6 -33h-106l-80 -453q-11 -64 -38 -89t-72 -25h-29l6 35h25q27 0 44.5 17t26.5 67z" />
    <glyph glyph-name="fj" unicode="fj" horiz-adv-x="466" 
d="M419 551q-13 0 -23 9.5t-10 23.5t10 23.5t23 9.5q12 0 22 -9.5t10 -23.5t-9.5 -23.5t-22.5 -9.5zM169 375l-83 -473q-11 -64 -38 -89t-72 -25h-29l6 35h25q27 0 44.5 17t26.5 67l82 468h-63l6 33h63l38 216q10 57 38.5 84t67.5 27q60 0 87 -51l-29 -19q-22 36 -58 36
q-55 0 -69 -82l-37 -211h232l-94 -533q-17 -97 -95 -97q-53 0 -78 36l26 22q19 -26 50 -26q26 0 39 15t20 52l88 498h-194z" />
    <glyph glyph-name="ft" unicode="ft" horiz-adv-x="548" 
d="M363 375h-194l-83 -473q-11 -64 -38 -89t-72 -25h-29l6 35h25q27 0 44.5 17t26.5 67l82 468h-63l6 33h63l38 216q10 57 38.5 84t67.5 27q60 0 87 -51l-29 -19q-22 36 -58 36q-55 0 -69 -82l-37 -211h194l38 213h38l-38 -213h116l-6 -33h-116l-47 -265q-15 -84 46 -84
q31 0 62 27l23 -25q-38 -36 -86 -36q-46 0 -69.5 30.5t-12.5 90.5z" />
    <glyph glyph-name="fb" unicode="fb" horiz-adv-x="784" 
d="M131 375h-63l6 33h63l33 187q12 70 52 105t97 35q61 0 94.5 -43t21.5 -117l-45 -256q28 47 72 72.5t94 25.5q80 0 129 -55t49 -142q0 -96 -61 -162t-148 -66q-63 0 -110.5 39.5t-59.5 102.5l-20 -134h-38l101 578q10 57 -12 90t-68 33q-92 0 -111 -112l-32 -181h107
l-6 -33h-107l-83 -473q-11 -64 -38 -89t-72 -25h-29l6 35h25q27 0 44.5 17t26.5 67zM519 26q78 0 127.5 56.5t49.5 141.5q0 70 -38.5 114.5t-102.5 44.5q-78 0 -130.5 -55t-52.5 -139q0 -70 40.5 -116.5t106.5 -46.5z" />
    <glyph glyph-name="fh" unicode="fh" horiz-adv-x="745" 
d="M131 375h-63l6 33h63l33 187q12 70 52 105t97 35q61 0 95 -43.5t21 -116.5l-43 -245q53 87 148 87q70 0 108 -48t24 -129l-30 -171q-6 -35 20 -35h42l-6 -34h-44q-62 0 -48 78l27 155q12 69 -13 109t-85 40q-64 0 -105.5 -38.5t-54.5 -109.5l-41 -234h-38l102 578
q10 57 -12 90t-68 33q-92 0 -111 -112l-32 -181h107l-6 -33h-107l-83 -473q-11 -64 -38 -89t-72 -25h-29l6 35h25q27 0 44.5 17t26.5 67z" />
    <glyph glyph-name="fk" unicode="fk" horiz-adv-x="691" 
d="M175 408h107l-6 -33h-107l-83 -473q-11 -64 -38 -89t-72 -25h-29l6 35h25q27 0 44.5 17t26.5 67l82 468h-63l6 33h63l33 187q12 70 52 105t97 35q61 0 95 -43.5t21 -116.5l-63 -361q-4 -24 -9 -39l257 233h49l-190 -173l113 -181q12 -20 36 -20h24l-6 -34h-20
q-42 0 -63 33l-114 179l-92 -82l-23 -130h-38l102 578q10 57 -12 90t-68 33q-92 0 -111 -112z" />
    <glyph glyph-name="fff" unicode="fff" horiz-adv-x="742" 
d="M595 375h-194l-81 -463q-11 -64 -38 -89t-72 -25h-29l6 35h25q27 0 44.5 17t26.5 67l81 458h-195l-83 -473q-11 -64 -38 -89t-72 -25h-29l6 35h25q27 0 44.5 17t26.5 67l82 468h-63l6 33h63l35 197q19 110 106 110q59 0 86 -51l-29 -19q-22 36 -57 36q-28 0 -44.5 -17.5
t-24.5 -63.5l-34 -192h194l37 207q19 110 106 110q59 0 86 -51l-29 -19q-22 36 -57 36q-28 0 -44.5 -17.5t-24.5 -63.5l-36 -202h194l39 219q18 108 108 108q57 0 84 -50l-29 -18q-21 34 -55 34q-29 0 -46 -16.5t-25 -62.5l-38 -214h106l-6 -33h-106l-80 -453
q-11 -64 -38 -89t-72 -25h-29l6 35h25q27 0 44.5 17t26.5 67z" />
    <glyph glyph-name="ffj" unicode="ffj" horiz-adv-x="698" 
d="M651 551q-13 0 -23 9.5t-10 23.5t10 23.5t23 9.5q12 0 22 -9.5t10 -23.5t-9.5 -23.5t-22.5 -9.5zM401 375l-80 -453q-11 -64 -38 -89t-72 -25h-29l6 35h25q27 0 44.5 17t26.5 67l79 448h-194l-83 -473q-11 -64 -38 -89t-72 -25h-29l6 35h25q27 0 44.5 17t26.5 67l82 468
h-63l6 33h63l35 197q19 110 106 110q59 0 86 -51l-29 -19q-22 36 -57 36q-28 0 -44.5 -17.5t-24.5 -63.5l-34 -192h194l38 216q10 57 38.5 84t67.5 27q60 0 87 -51l-29 -19q-22 36 -58 36q-55 0 -69 -82l-37 -211h232l-94 -533q-17 -97 -95 -97q-53 0 -78 36l26 22
q19 -26 50 -26q26 0 39 15t20 52l88 498h-194z" />
    <glyph glyph-name="fft" unicode="fft" horiz-adv-x="780" 
d="M595 375h-194l-80 -453q-11 -64 -38 -89t-72 -25h-29l6 35h25q27 0 44.5 17t26.5 67l79 448h-194l-83 -473q-11 -64 -38 -89t-72 -25h-29l6 35h25q27 0 44.5 17t26.5 67l82 468h-63l6 33h63l35 197q19 110 106 110q59 0 86 -51l-29 -19q-22 36 -57 36q-28 0 -44.5 -17.5
t-24.5 -63.5l-34 -192h194l38 216q10 57 38.5 84t67.5 27q60 0 87 -51l-29 -19q-22 36 -58 36q-55 0 -69 -82l-37 -211h194l38 213h38l-38 -213h116l-6 -33h-116l-47 -265q-15 -84 46 -84q31 0 62 27l23 -25q-38 -36 -86 -36q-46 0 -69.5 30.5t-12.5 90.5z" />
    <glyph glyph-name="ffb" unicode="ffb" horiz-adv-x="1016" 
d="M131 375h-63l6 33h63l35 197q19 110 106 110q59 0 86 -51l-29 -19q-22 36 -57 36q-27 0 -43.5 -17.5t-24.5 -63.5l-34 -192h193l33 187q12 70 52 105t97 35q61 0 94.5 -43t21.5 -117l-45 -256q28 47 72 72.5t94 25.5q80 0 129 -55t49 -142q0 -96 -61 -162t-148 -66
q-63 0 -110.5 39.5t-59.5 102.5l-20 -134h-38l101 578q10 57 -12 90t-68 33q-92 0 -111 -112l-32 -181h106l-6 -33h-106l-80 -453q-11 -64 -38 -89t-72 -25h-29l6 35h25q27 0 44.5 17t26.5 67l79 448h-193l-84 -473q-11 -64 -38 -89t-72 -25h-29l6 35h25q27 0 44.5 17
t26.5 67zM751 26q78 0 127.5 56.5t49.5 141.5q0 70 -38.5 114.5t-102.5 44.5q-78 0 -130.5 -55t-52.5 -139q0 -70 40.5 -116.5t106.5 -46.5z" />
    <glyph glyph-name="ffh" unicode="ffh" horiz-adv-x="977" 
d="M363 375h-193l-84 -473q-11 -64 -38 -89t-72 -25h-29l6 35h25q27 0 44.5 17t26.5 67l82 468h-63l6 33h63l35 197q19 110 106 110q59 0 86 -51l-29 -19q-22 36 -57 36q-27 0 -43.5 -17.5t-24.5 -63.5l-34 -192h193l33 187q12 70 52 105t97 35q61 0 95 -43.5t21 -116.5
l-43 -245q53 87 148 87q70 0 108 -48t24 -129l-30 -171q-6 -35 20 -35h42l-6 -34h-44q-62 0 -48 78l27 155q12 69 -13 109t-85 40q-64 0 -105.5 -38.5t-54.5 -109.5l-41 -234h-38l102 578q10 57 -12 90t-68 33q-92 0 -111 -112l-32 -181h106l-6 -33h-106l-80 -453
q-11 -64 -38 -89t-72 -25h-29l6 35h25q27 0 44.5 17t26.5 67z" />
    <glyph glyph-name="ffk" unicode="ffk" horiz-adv-x="923" 
d="M407 408h106l-6 -33h-106l-80 -453q-11 -64 -38 -89t-72 -25h-29l6 35h25q27 0 44.5 17t26.5 67l79 448h-193l-84 -473q-11 -64 -38 -89t-72 -25h-29l6 35h25q27 0 44.5 17t26.5 67l82 468h-63l6 33h63l35 197q19 110 106 110q59 0 86 -51l-29 -19q-22 36 -57 36
q-27 0 -43.5 -17.5t-24.5 -63.5l-34 -192h193l33 187q12 70 52 105t97 35q61 0 95 -43.5t21 -116.5l-63 -361q-2 -16 -9 -39l257 233h49l-190 -173l113 -181q12 -20 36 -20h24l-6 -34h-20q-42 0 -63 33l-114 179l-92 -82l-23 -130h-38l102 578q10 57 -12 90t-68 33
q-92 0 -111 -112z" />
    <glyph glyph-name="fiacute" unicode="f&#xed;" horiz-adv-x="466" 
d="M389 497l106 195h49l-122 -195h-33zM169 375l-83 -473q-11 -64 -38 -89t-72 -25h-29l6 35h25q27 0 44.5 17t26.5 67l82 468h-63l6 33h63l38 216q10 57 38.5 84t67.5 27q60 0 87 -51l-29 -19q-22 36 -58 36q-55 0 -69 -82l-37 -211h232l-60 -339q-6 -35 20 -35h46l-6 -34
h-48q-62 0 -48 78l52 297h-194z" />
    <glyph glyph-name="ficircumflex" unicode="f&#xee;" horiz-adv-x="466" 
d="M298 494l142 182h9l84 -182h-34l-62 125l-102 -125h-37zM169 375l-83 -473q-11 -64 -38 -89t-72 -25h-29l6 35h25q27 0 44.5 17t26.5 67l82 468h-63l6 33h63l38 216q10 57 38.5 84t67.5 27q60 0 87 -51l-29 -19q-22 36 -58 36q-55 0 -69 -82l-37 -211h232l-60 -339
q-6 -35 20 -35h46l-6 -34h-48q-62 0 -48 78l52 297h-194z" />
    <glyph glyph-name="fidieresis" unicode="f&#xef;" horiz-adv-x="466" 
d="M487 521q-13 0 -22.5 9.5t-9.5 22.5t9.5 22.5t22.5 9.5t22.5 -9.5t9.5 -22.5t-9.5 -22.5t-22.5 -9.5zM335 521q-13 0 -22.5 9.5t-9.5 22.5t9.5 22.5t22.5 9.5t22.5 -9.5t9.5 -22.5t-9.5 -22.5t-22.5 -9.5zM169 375l-83 -473q-11 -64 -38 -89t-72 -25h-29l6 35h25
q27 0 44.5 17t26.5 67l82 468h-63l6 33h63l38 216q10 57 38.5 84t67.5 27q60 0 87 -51l-29 -19q-22 36 -58 36q-55 0 -69 -82l-37 -211h232l-60 -339q-6 -35 20 -35h46l-6 -34h-48q-62 0 -48 78l52 297h-194z" />
    <glyph glyph-name="ffiacute" unicode="ff&#xed;" horiz-adv-x="698" 
d="M621 497l106 195h49l-122 -195h-33zM401 375l-80 -453q-11 -64 -38 -89t-72 -25h-29l6 35h25q27 0 44.5 17t26.5 67l79 448h-194l-83 -473q-11 -64 -38 -89t-72 -25h-29l6 35h25q27 0 44.5 17t26.5 67l82 468h-63l6 33h63l35 197q19 110 106 110q59 0 86 -51l-29 -19
q-22 36 -57 36q-28 0 -44.5 -17.5t-24.5 -63.5l-34 -192h194l38 216q10 57 38.5 84t67.5 27q60 0 87 -51l-29 -19q-22 36 -58 36q-55 0 -69 -82l-37 -211h232l-60 -339q-6 -35 20 -35h46l-6 -34h-48q-62 0 -48 78l52 297h-194z" />
    <glyph glyph-name="fficircumflex" unicode="ff&#xee;" horiz-adv-x="698" 
d="M530 494l142 182h9l84 -182h-34l-62 125l-102 -125h-37zM401 375l-80 -453q-11 -64 -38 -89t-72 -25h-29l6 35h25q27 0 44.5 17t26.5 67l79 448h-194l-83 -473q-11 -64 -38 -89t-72 -25h-29l6 35h25q27 0 44.5 17t26.5 67l82 468h-63l6 33h63l35 197q19 110 106 110
q59 0 86 -51l-29 -19q-22 36 -57 36q-28 0 -44.5 -17.5t-24.5 -63.5l-34 -192h194l38 216q10 57 38.5 84t67.5 27q60 0 87 -51l-29 -19q-22 36 -58 36q-55 0 -69 -82l-37 -211h232l-60 -339q-6 -35 20 -35h46l-6 -34h-48q-62 0 -48 78l52 297h-194z" />
    <glyph glyph-name="ffidieresis" unicode="ff&#xef;" horiz-adv-x="698" 
d="M719 521q-13 0 -22.5 9.5t-9.5 22.5t9.5 22.5t22.5 9.5t22.5 -9.5t9.5 -22.5t-9.5 -22.5t-22.5 -9.5zM567 521q-13 0 -22.5 9.5t-9.5 22.5t9.5 22.5t22.5 9.5t22.5 -9.5t9.5 -22.5t-9.5 -22.5t-22.5 -9.5zM401 375l-80 -453q-11 -64 -38 -89t-72 -25h-29l6 35h25
q27 0 44.5 17t26.5 67l79 448h-194l-83 -473q-11 -64 -38 -89t-72 -25h-29l6 35h25q27 0 44.5 17t26.5 67l82 468h-63l6 33h63l35 197q19 110 106 110q59 0 86 -51l-29 -19q-22 36 -57 36q-28 0 -44.5 -17.5t-24.5 -63.5l-34 -192h194l38 216q10 57 38.5 84t67.5 27
q60 0 87 -51l-29 -19q-22 36 -58 36q-55 0 -69 -82l-37 -211h232l-60 -339q-6 -35 20 -35h46l-6 -34h-48q-62 0 -48 78l52 297h-194z" />
    <glyph glyph-name="tt" unicode="tt" horiz-adv-x="567" 
d="M382 375h-217l-47 -265q-15 -84 46 -84q31 0 62 27l23 -25q-38 -36 -86 -36q-46 0 -69.5 30.5t-12.5 90.5l46 262h-62l5 33h63l38 213h38l-38 -213h217l38 213h38l-38 -213h116l-6 -33h-116l-47 -265q-15 -84 46 -84q31 0 62 27l23 -25q-38 -36 -86 -36q-46 0 -69.5 30.5
t-12.5 90.5z" />
    <glyph glyph-name="fffi" unicode="fffi" horiz-adv-x="930" 
d="M883 551q-13 0 -23 9.5t-10 23.5t10 23.5t23 9.5q12 0 22 -9.5t10 -23.5t-9.5 -23.5t-22.5 -9.5zM633 375l-80 -453q-11 -64 -38 -89t-72 -25h-29l6 35h25q27 0 44.5 17t26.5 67l79 448h-194l-81 -463q-11 -64 -38 -89t-72 -25h-29l6 35h25q27 0 44.5 17t26.5 67l81 458
h-195l-83 -473q-11 -64 -38 -89t-72 -25h-29l6 35h25q27 0 44.5 17t26.5 67l82 468h-63l6 33h63l35 197q19 110 106 110q59 0 86 -51l-29 -19q-22 36 -57 36q-28 0 -44.5 -17.5t-24.5 -63.5l-34 -192h195l36 207q19 110 106 110q59 0 86 -51l-29 -19q-22 36 -57 36
q-28 0 -44.5 -17.5t-24.5 -63.5l-36 -202h194l38 216q10 57 38.5 84t67.5 27q60 0 87 -51l-29 -19q-22 36 -58 36q-55 0 -69 -82l-37 -211h232l-60 -339q-6 -35 20 -35h46l-6 -34h-48q-62 0 -48 78l52 297h-194z" />
    <glyph glyph-name="fffl" unicode="fffl" horiz-adv-x="925" 
d="M595 375h-194l-81 -463q-11 -64 -38 -89t-72 -25h-29l6 35h25q27 0 44.5 17t26.5 67l81 458h-195l-83 -473q-11 -64 -38 -89t-72 -25h-29l6 35h25q27 0 44.5 17t26.5 67l82 468h-63l6 33h63l35 197q19 110 106 110q59 0 86 -51l-29 -19q-22 36 -57 36q-28 0 -44.5 -17.5
t-24.5 -63.5l-34 -192h194l37 207q19 110 106 110q59 0 86 -51l-29 -19q-22 36 -57 36q-28 0 -44.5 -17.5t-24.5 -63.5l-36 -202h194l33 187q12 70 52 105t97 35q61 0 95 -43.5t21 -116.5l-89 -506q-6 -35 20 -35h49l-6 -34h-51q-62 0 -48 78l88 500q10 57 -12 90t-68 33
q-92 0 -111 -112l-32 -181h107l-6 -33h-107l-80 -453q-11 -64 -38 -89t-72 -25h-29l6 35h25q27 0 44.5 17t26.5 67z" />
    <glyph glyph-name=".notdef" horiz-adv-x="244" 
 />
    <glyph glyph-name=".null" horiz-adv-x="0" 
 />
    <glyph glyph-name="nonmarkingreturn" horiz-adv-x="333" 
 />
    <glyph glyph-name="CR" unicode="&#xd;" horiz-adv-x="244" 
 />
    <glyph glyph-name="space" unicode=" " horiz-adv-x="244" 
 />
    <glyph glyph-name="exclam" unicode="!" horiz-adv-x="220" 
d="M91 170l83 510h44l-97 -510h-30zM79 -7q-15 0 -26.5 11.5t-11.5 26.5q0 16 11.5 27.5t26.5 11.5t26.5 -11.5t11.5 -27.5t-11.5 -27t-26.5 -11z" />
    <glyph glyph-name="quotedbl" unicode="&#x22;" horiz-adv-x="225" 
d="M197 487l29 193h41l-39 -193h-31zM97 487l29 193h41l-39 -193h-31z" />
    <glyph glyph-name="numbersign" unicode="#" horiz-adv-x="408" 
d="M162 462h-84l6 33h86l29 115h36l-29 -115h111l29 115h36l-29 -115h74l-6 -33h-76l-31 -125h85l-6 -33h-87l-28 -111h-37l28 111h-110l-28 -111h-36l28 111h-73l6 33h75zM309 462h-111l-31 -125h110z" />
    <glyph glyph-name="dollar" unicode="$" horiz-adv-x="404" 
d="M146 -5q-53 8 -91 36.5t-55 66.5l35 17q34 -74 116 -88l39 222l-11 5q-99 45 -99 126q0 59 43 91t109 32h3l18 102h34l-19 -106q76 -16 107 -85l-32 -17q-26 58 -81 70l-34 -196l19 -9q57 -26 83 -57.5t26 -76.5q0 -64 -48 -100t-126 -36h-3l-19 -108h-34zM229 470
q-49 0 -79.5 -21.5t-30.5 -67.5q0 -61 75 -95l3 -1zM185 25q61 1 96 28t35 78q0 33 -20 56t-64 43l-10 5z" />
    <glyph glyph-name="percent" unicode="%" horiz-adv-x="732" 
d="M185 219q-56 0 -95.5 37.5t-39.5 96.5q0 63 45.5 106.5t105.5 43.5q55 0 94.5 -37.5t39.5 -95.5q0 -66 -45 -108.5t-105 -42.5zM157 0l393 495h43l-393 -495h-43zM547 -8q-56 0 -95.5 37.5t-39.5 96.5q0 63 45.5 106.5t105.5 43.5q55 0 94.5 -37.5t39.5 -95.5
q0 -66 -45 -108.5t-105 -42.5zM185 251q48 0 80 33t32 87q0 45 -26.5 72t-69.5 27q-48 0 -80.5 -32.5t-32.5 -84.5q0 -47 27 -74.5t70 -27.5zM547 24q48 0 80 33t32 87q0 45 -26.5 72t-69.5 27q-48 0 -80.5 -32.5t-32.5 -84.5q0 -47 27 -74.5t70 -27.5z" />
    <glyph glyph-name="ampersand" unicode="&#x26;" horiz-adv-x="638" 
d="M317 399l141 -225q42 80 62 197h38q-25 -141 -79 -231l36 -57q18 -30 30 -38.5t35 -8.5h17l-6 -36h-19q-33 0 -49.5 12.5t-40.5 51.5l-26 42q-85 -114 -221 -114q-84 0 -138.5 46t-54.5 125q0 38 13.5 71.5t32.5 56.5t51.5 47t58.5 38t67 34l-13 20q-41 65 -41 124
q0 56 38.5 95t97.5 39q55 0 88 -34.5t33 -87.5t-39.5 -92.5t-111.5 -74.5zM300 426q64 33 96.5 63.5t32.5 76.5q0 40 -22.5 63t-60.5 23q-43 0 -69.5 -27t-26.5 -70q0 -49 33 -102zM436 138l-153 244q-46 -22 -76.5 -39.5t-61.5 -44t-46 -60t-15 -75.5q0 -62 42 -98.5
t109 -36.5q125 0 201 110z" />
    <glyph glyph-name="quotesingle" unicode="'" horiz-adv-x="125" 
d="M97 487l29 193h41l-39 -193h-31z" />
    <glyph glyph-name="parenleft" unicode="(" horiz-adv-x="248" 
d="M135 -136q-101 131 -101 335q0 292 251 519l23 -24q-233 -221 -233 -492q0 -186 87 -317z" />
    <glyph glyph-name="parenright" unicode=")" horiz-adv-x="247" 
d="M-7 -136l-23 24q233 221 233 496q0 182 -87 313l27 21q101 -131 101 -331q0 -296 -251 -523z" />
    <glyph glyph-name="asterisk" unicode="*" horiz-adv-x="391" 
d="M220 382l21 132l-111 -59l-15 34l123 44l-114 65l21 31l100 -77l3 128h38l-20 -130l111 58l15 -33l-123 -44l113 -65l-20 -31l-100 77l-4 -130h-38z" />
    <glyph glyph-name="plus" unicode="+" horiz-adv-x="355" 
d="M199 228l-23 -132h-37l23 132h-119l6 35h119l24 132h37l-23 -132h119l-6 -35h-120z" />
    <glyph glyph-name="comma" unicode="," horiz-adv-x="175" 
d="M-11 -111l53 109q-23 6 -23 36q0 16 12 27.5t27 11.5q17 0 28 -11t11 -28q0 -12 -10 -28l-73 -117h-25z" />
    <glyph glyph-name="hyphen" unicode="-" horiz-adv-x="271" 
d="M51 209l6 34h171l-6 -34h-171z" />
    <glyph glyph-name="hyphen" unicode="&#xad;" horiz-adv-x="271" 
d="M51 209l6 34h171l-6 -34h-171z" />
    <glyph glyph-name="period" unicode="." horiz-adv-x="176" 
d="M58 -7q-15 0 -27 11.5t-12 27.5q0 17 12 28.5t27 11.5q16 0 27.5 -11.5t11.5 -28.5q0 -16 -11.5 -27.5t-27.5 -11.5z" />
    <glyph glyph-name="slash" unicode="/" horiz-adv-x="426" 
d="M-21 -128l456 850h44l-456 -850h-44z" />
    <glyph glyph-name="zero" unicode="0" horiz-adv-x="605" 
d="M294 -8q-105 0 -173 70.5t-68 173.5q0 116 80.5 191.5t192.5 75.5q102 0 172 -70t70 -172q0 -118 -80.5 -193.5t-193.5 -75.5zM295 27q100 0 166 66.5t66 169.5q0 90 -56.5 147.5t-145.5 57.5q-100 0 -165.5 -66t-65.5 -169q0 -90 56 -148t145 -58z" />
    <glyph glyph-name="one" unicode="1" horiz-adv-x="272" 
d="M96 0l81 461h-114l6 34h153l-87 -495h-39z" />
    <glyph glyph-name="two" unicode="2" horiz-adv-x="437" 
d="M1 0v7l217 163q79 59 117.5 103.5t38.5 95.5q0 48 -31 73.5t-75 25.5q-106 0 -149 -112l-35 13q22 63 70.5 98.5t113.5 35.5q60 0 103 -35.5t43 -98.5q0 -59 -46.5 -113t-126.5 -112l-118 -86l-45 -26q31 3 49 3h254l-6 -35h-374z" />
    <glyph glyph-name="three" unicode="3" horiz-adv-x="479" 
d="M201 -103q-67 0 -119 31t-80 89l33 18q49 -103 166 -103q76 0 124.5 44.5t48.5 127.5q0 70 -39.5 110t-109.5 40q-43 0 -85 -18l-6 8l208 190q6 6 16 13.5t16 11.5l7 4q-33 -2 -52 -2h-224l6 34h342v-4l-194 -177l-38 -30q84 6 138.5 -47.5t54.5 -137.5q0 -91 -61 -146.5
t-152 -55.5z" />
    <glyph glyph-name="four" unicode="4" horiz-adv-x="506" 
d="M377 65h77l-6 -34h-77l-22 -125h-39l22 125h-336v7l451 469h8zM338 65l54 301l12 53q-20 -26 -37 -44l-263 -273l-43 -39q32 2 51 2h226z" />
    <glyph glyph-name="five" unicode="5" horiz-adv-x="475" 
d="M194 -103q-64 0 -110.5 29t-69.5 73l31 18q44 -85 149 -85q79 0 129.5 49.5t50.5 129.5q0 71 -39.5 111.5t-112.5 40.5q-82 0 -147 -52l-6 3l49 281h308l-6 -34h-272l-33 -190q47 27 111 27q84 0 136.5 -53t52.5 -136q0 -94 -63.5 -153t-157.5 -59z" />
    <glyph glyph-name="six" unicode="6" horiz-adv-x="497" 
d="M238 -8q-88 0 -140.5 54t-52.5 135q0 79 68 156l241 275h45l-189 -215q-6 -7 -20 -19.5t-24 -21.5l-11 -8q60 41 110 41q85 0 136.5 -53t51.5 -135q0 -89 -61.5 -149t-153.5 -60zM236 27q78 0 127.5 49t49.5 126q0 69 -40 110.5t-112 41.5q-81 0 -128.5 -50t-47.5 -125
q0 -67 41 -109.5t110 -42.5z" />
    <glyph glyph-name="seven" unicode="7" horiz-adv-x="423" 
d="M16 -94l362 555h-307l6 34h362v-7l-380 -582h-43z" />
    <glyph glyph-name="eight" unicode="8" horiz-adv-x="511" 
d="M218 349q-74 35 -74 114q0 67 49 111t119 44q65 0 110.5 -40t45.5 -98q0 -55 -33 -93.5t-88 -50.5q53 -19 83.5 -58.5t30.5 -93.5q0 -87 -62 -139.5t-156 -52.5q-90 0 -146.5 50.5t-56.5 126.5q0 74 49 122t129 58zM300 359q59 0 93.5 33.5t34.5 87.5q0 47 -32 75.5
t-85 28.5q-57 0 -92.5 -33.5t-35.5 -86.5q0 -48 31 -76.5t86 -28.5zM243 28q77 0 127 43.5t50 113.5q0 66 -43.5 102.5t-118.5 36.5q-80 0 -128.5 -42.5t-48.5 -113.5q0 -62 44 -101t118 -39z" />
    <glyph glyph-name="nine" unicode="9" horiz-adv-x="497" 
d="M101 -94l174 179q11 11 25.5 23.5t23.5 19.5l10 7q-50 -33 -101 -33q-84 0 -136.5 54t-52.5 136q0 89 61.5 150t153.5 61q87 0 139.5 -55.5t52.5 -135.5q0 -45 -23.5 -93.5t-57.5 -82.5l-222 -230h-47zM234 137q82 0 129.5 51t47.5 126q0 67 -41 110.5t-111 43.5
q-77 0 -126 -50t-49 -127q0 -70 39.5 -112t110.5 -42z" />
    <glyph glyph-name="colon" unicode=":" horiz-adv-x="186" 
d="M102 214q-15 0 -27 11.5t-12 27.5q0 17 12 28.5t27 11.5q16 0 27.5 -11.5t11.5 -28.5q0 -16 -11.5 -27.5t-27.5 -11.5zM63 -7q-15 0 -27 11.5t-12 27.5q0 17 12 28.5t27 11.5q16 0 27.5 -11.5t11.5 -28.5q0 -16 -11.5 -27.5t-27.5 -11.5z" />
    <glyph glyph-name="semicolon" unicode=";" horiz-adv-x="186" 
d="M102 214q-15 0 -27 11.5t-12 27.5q0 17 12 28.5t27 11.5q16 0 27.5 -11.5t11.5 -28.5q0 -16 -11.5 -27.5t-27.5 -11.5zM-6 -111l53 109q-23 6 -23 36q0 16 12 27.5t27 11.5q17 0 28 -11t11 -28q0 -12 -10 -28l-73 -117h-25z" />
    <glyph glyph-name="semicolon" unicode="&#x37e;" horiz-adv-x="186" 
d="M102 214q-15 0 -27 11.5t-12 27.5q0 17 12 28.5t27 11.5q16 0 27.5 -11.5t11.5 -28.5q0 -16 -11.5 -27.5t-27.5 -11.5zM-6 -111l53 109q-23 6 -23 36q0 16 12 27.5t27 11.5q17 0 28 -11t11 -28q0 -12 -10 -28l-73 -117h-25z" />
    <glyph glyph-name="less" unicode="&#x3c;" horiz-adv-x="355" 
d="M276 105l-233 133v11l281 132l-7 -42l-212 -97l177 -99z" />
    <glyph glyph-name="equal" unicode="=" horiz-adv-x="355" 
d="M59 283l6 36h265l-6 -36h-265zM39 170l6 36h265l-6 -36h-265z" />
    <glyph glyph-name="greater" unicode="&#x3e;" horiz-adv-x="355" 
d="M31 105l7 42l212 97l-177 99l6 38l233 -133v-11z" />
    <glyph glyph-name="question" unicode="?" horiz-adv-x="451" 
d="M167 166l33 185h48q77 0 121 46.5t44 117.5q0 64 -38 101t-100 37q-54 0 -91 -24t-65 -76l-31 16q54 119 188 119q77 0 127.5 -47.5t50.5 -125.5q0 -89 -61.5 -146t-161.5 -53l-27 -150h-37zM162 -7q-15 0 -26.5 11.5t-11.5 26.5q0 16 11.5 27.5t26.5 11.5t26.5 -11.5
t11.5 -27.5t-11.5 -27t-26.5 -11z" />
    <glyph glyph-name="at" unicode="@" horiz-adv-x="860" 
d="M408 -206q-158 0 -259.5 104t-101.5 265q0 176 116.5 294.5t286.5 118.5q159 0 259 -99t100 -258q0 -110 -46 -167t-109 -57q-93 0 -107 86q-53 -89 -144 -89q-74 0 -120 50t-46 125q0 87 54 145.5t132 58.5q53 0 91.5 -31t52.5 -81l16 102h39l-41 -231
q-9 -50 10.5 -76.5t62.5 -26.5q50 0 84 51t34 143q0 139 -86 230.5t-235 91.5q-156 0 -260.5 -109.5t-104.5 -268.5q0 -146 89 -242t232 -96q97 0 176 43l16 -29q-83 -47 -191 -47zM406 25q62 0 106 50.5t44 117.5q0 61 -37.5 103t-94.5 42q-64 0 -106 -48t-42 -125
q0 -63 36 -101.5t94 -38.5z" />
    <glyph glyph-name="A" unicode="A" horiz-adv-x="638" 
d="M122 132l-74 -132h-41l390 688h12l150 -688h-40l-28 132h-369zM484 167l-83 389l-9 62q-16 -38 -30 -62l-220 -389h342z" />
    <glyph glyph-name="B" unicode="B" horiz-adv-x="594" 
d="M60 0l119 680h208q75 0 116 -40.5t41 -101.5q0 -129 -114 -164q51 -12 82.5 -54t30.5 -103q-1 -96 -60 -156.5t-170 -60.5h-253zM169 390h188q75 0 111 39.5t36 108.5q0 46 -31 76t-91 30h-168zM106 36h199q99 0 147.5 48t49.5 133q1 63 -33.5 100t-106.5 37h-200z" />
    <glyph glyph-name="C" unicode="C" horiz-adv-x="715" 
d="M392 -8q-139 0 -229.5 91.5t-90.5 233.5q0 159 105.5 265t259.5 106q85 0 152 -34t105 -95l-30 -21q-79 115 -228 115q-136 0 -229.5 -96t-93.5 -237q0 -127 78 -210t202 -83q144 0 243 110l28 -23q-108 -122 -272 -122z" />
    <glyph glyph-name="D" unicode="D" horiz-adv-x="656" 
d="M64 0l120 680h143q149 0 229 -81.5t80 -214.5q0 -172 -107.5 -278t-292.5 -106h-172zM110 35h119q178 0 271.5 95.5t93.5 253.5q0 119 -67.5 190t-202.5 71h-106z" />
    <glyph glyph-name="E" unicode="E" horiz-adv-x="562" 
d="M64 0l120 680h389l-6 -35h-350l-64 -365h313l-6 -35h-313l-37 -210h363l-6 -35h-403z" />
    <glyph glyph-name="F" unicode="F" horiz-adv-x="545" 
d="M64 0l120 680h388l-7 -35h-348l-64 -365h316l-6 -35h-316l-43 -245h-40z" />
    <glyph glyph-name="G" unicode="G" horiz-adv-x="729" 
d="M403 -8q-142 0 -235 89.5t-93 233.5q0 160 106.5 266.5t256.5 106.5q158 0 240 -101l-30 -24q-38 48 -88 69t-123 21q-136 0 -228.5 -98t-92.5 -238q0 -129 80 -209.5t206 -80.5q119 0 202 58l32 183h-215l6 35h254l-41 -237q-96 -74 -237 -74z" />
    <glyph glyph-name="H" unicode="H" horiz-adv-x="668" 
d="M541 280l71 400h40l-120 -680h-40l43 245h-388l-43 -245h-40l120 680h40l-71 -400h388z" />
    <glyph glyph-name="I" unicode="I" horiz-adv-x="250" 
d="M69 0l120 680h40l-120 -680h-40z" />
    <glyph glyph-name="J" unicode="J" horiz-adv-x="440" 
d="M166 -8q-57 0 -96.5 26.5t-58.5 66.5l34 19q40 -75 122 -75q109 0 129 116l94 535h40l-95 -541q-12 -71 -55 -109t-114 -38z" />
    <glyph glyph-name="K" unicode="K" horiz-adv-x="571" 
d="M148 271q26 34 45 53l352 356h50l-326 -329l230 -351h-46l-213 326l-96 -94l-40 -232h-40l120 680h40l-61 -344q-2 -14 -8 -38t-7 -27z" />
    <glyph glyph-name="L" unicode="L" 
d="M64 0l120 680h40l-114 -644h321l-6 -36h-361z" />
    <glyph glyph-name="M" unicode="M" horiz-adv-x="834" 
d="M64 0l121 688h10l235 -403l379 403h10l-121 -688h-39l95 540l16 62q-23 -33 -48 -59l-292 -310h-11l-184 313l-30 59q-2 -37 -7 -65l-95 -540h-39z" />
    <glyph glyph-name="N" unicode="N" horiz-adv-x="703" 
d="M554 -8l-326 566l-24 48q-1 -33 -5 -54l-97 -552h-38l121 688h11l327 -566l22 -48q2 28 6 52l98 554h38l-121 -688h-12z" />
    <glyph glyph-name="O" unicode="O" horiz-adv-x="786" 
d="M394 -8q-137 0 -228 90t-91 232q0 160 105.5 267t258.5 107q137 0 228.5 -89t91.5 -230q0 -161 -106 -269t-259 -108zM395 28q137 0 230 98.5t93 242.5q0 124 -77.5 203.5t-201.5 79.5q-137 0 -230 -97t-93 -240q0 -125 77 -206t202 -81z" />
    <glyph glyph-name="P" unicode="P" horiz-adv-x="568" 
d="M137 175l-31 -175h-40l120 680h127q113 0 173.5 -64t59.5 -161q-1 -125 -76 -202.5t-216 -77.5h-117zM143 209h110q129 0 190 68t62 178q1 85 -47 138t-148 53h-90z" />
    <glyph glyph-name="Q" unicode="Q" horiz-adv-x="786" 
d="M624 75l81 -103l-30 -22l-81 103q-89 -61 -200 -61q-137 0 -228 90t-91 232q0 160 105.5 267t258.5 107q137 0 228.5 -89t91.5 -230q0 -89 -36 -165t-99 -129zM573 80l-99 128l30 22l99 -127q115 99 115 266q0 124 -77.5 203.5t-201.5 79.5q-137 0 -230 -97t-93 -240
q0 -125 77 -206t202 -81q99 0 178 52z" />
    <glyph glyph-name="R" unicode="R" horiz-adv-x="565" 
d="M359 199l106 -199h-44l-101 190q-35 -5 -67 -5h-120l-33 -185h-40l120 680h127q113 0 173.5 -62t59.5 -158t-46.5 -165.5t-134.5 -95.5zM139 220h113q129 0 187.5 65t59.5 175q1 84 -48 134.5t-147 50.5h-90z" />
    <glyph glyph-name="S" unicode="S" horiz-adv-x="524" 
d="M239 -8q-79 0 -134 38t-85 95l33 19q66 -117 186 -117q82 0 125 43t43 114q0 46 -23.5 76t-78.5 65l-54 34q-116 74 -116 170q0 74 48 116.5t112 42.5q105 0 161 -93l-30 -21q-25 40 -55 59.5t-77 19.5q-50 0 -84.5 -32.5t-34.5 -89.5q0 -44 21.5 -74t71.5 -62l54 -34
q66 -42 95.5 -82.5t29.5 -99.5q0 -83 -55.5 -135t-152.5 -52z" />
    <glyph glyph-name="T" unicode="T" horiz-adv-x="527" 
d="M208 0l114 646h-212l6 34h463l-6 -34h-211l-114 -646h-40z" />
    <glyph glyph-name="U" unicode="U" horiz-adv-x="637" 
d="M309 -8q-106 0 -167.5 66t-40.5 186l76 436h41l-75 -433q-19 -107 28.5 -163t137.5 -56q165 0 195 174l83 478h40l-84 -481q-19 -111 -78.5 -159t-155.5 -48z" />
    <glyph glyph-name="V" unicode="V" horiz-adv-x="638" 
d="M277 -8l-150 688h41l118 -555l8 -62q17 39 30 62l313 555h42l-390 -688h-12z" />
    <glyph glyph-name="W" unicode="W" horiz-adv-x="931" 
d="M212 -8l-88 688h41l69 -547l1 -58q12 40 21 58l290 555h11l92 -555l5 -58q9 38 19 59l260 546h42l-330 -688h-11l-92 560l-4 58q-12 -37 -23 -58l-292 -560h-11z" />
    <glyph glyph-name="X" unicode="X" horiz-adv-x="600" 
d="M8 0l300 370l-144 310h43l117 -252l10 -35q7 19 19 34l204 253h46l-253 -311l171 -369h-43l-143 309l-9 33q-8 -17 -19 -31l-253 -311h-46z" />
    <glyph glyph-name="Y" unicode="Y" horiz-adv-x="630" 
d="M295 214l-169 466h42l142 -394l10 -43q12 26 24 43l282 394h45l-336 -469l-37 -211h-41z" />
    <glyph glyph-name="Z" unicode="Z" horiz-adv-x="568" 
d="M12 0v10l510 636h-351l6 34h411v-10l-510 -636h413l-6 -34h-473z" />
    <glyph glyph-name="bracketleft" unicode="[" horiz-adv-x="285" 
d="M20 -128l150 850h168l-6 -34h-128l-138 -782h128l-6 -34h-168z" />
    <glyph glyph-name="backslash" unicode="\" horiz-adv-x="414" 
d="M283 -128l-160 850h40l160 -850h-40z" />
    <glyph glyph-name="bracketright" unicode="]" horiz-adv-x="285" 
d="M-21 -128l6 34h128l138 782h-128l6 34h168l-150 -850h-168z" />
    <glyph glyph-name="asciicircum" unicode="^" horiz-adv-x="403" 
d="M120 471l161 217h9l87 -217h-32l-69 153l-120 -153h-36z" />
    <glyph glyph-name="underscore" unicode="_" horiz-adv-x="244" 
d="M-61 -128l6 34h248l-6 -34h-248z" />
    <glyph glyph-name="grave" unicode="`" 
d="M275 497l-86 195h46l72 -195h-32z" />
    <glyph glyph-name="a" unicode="a" horiz-adv-x="526" 
d="M223 -8q-78 0 -125.5 54t-47.5 143q0 97 60 162.5t146 65.5q59 0 104.5 -40t57.5 -103l20 134h38l-58 -339q-6 -35 20 -35h42l-6 -34h-44q-64 0 -46 78l4 17q-28 -48 -72 -75.5t-93 -27.5zM224 26q75 0 126.5 54.5t51.5 138.5q0 70 -39.5 117t-103.5 47q-76 0 -123.5 -56
t-47.5 -142q0 -70 37.5 -114.5t98.5 -44.5z" />
    <glyph glyph-name="b" unicode="b" horiz-adv-x="542" 
d="M283 -8q-63 0 -110.5 39.5t-59.5 102.5l-20 -134h-38l126 722h38l-71 -403q28 47 72 72.5t94 25.5q80 0 129 -55t49 -142q0 -96 -61 -162t-148 -66zM277 26q78 0 127.5 56.5t49.5 141.5q0 70 -38.5 114.5t-102.5 44.5q-78 0 -130.5 -55t-52.5 -139q0 -70 40.5 -116.5
t106.5 -46.5z" />
    <glyph glyph-name="c" unicode="c" horiz-adv-x="455" 
d="M246 -8q-83 0 -139 58.5t-56 142.5q0 94 62.5 159t156.5 65t149 -69l-27 -23q-45 58 -122 58q-80 0 -130 -54t-50 -137q0 -70 44 -118t112 -48q75 0 123 45l24 -25q-62 -54 -147 -54z" />
    <glyph glyph-name="d" unicode="d" horiz-adv-x="541" 
d="M227 -8q-81 0 -129 55.5t-48 141.5q0 97 61.5 162.5t149.5 65.5q60 0 106.5 -39.5t58.5 -95.5l79 440h38l-116 -653q-3 -18 1 -26.5t19 -8.5h42l-6 -34h-44q-64 0 -46 78l4 17q-27 -48 -73.5 -75.5t-96.5 -27.5zM228 26q78 0 130.5 54.5t53.5 138.5q1 70 -40.5 117
t-107.5 47q-79 0 -127.5 -56t-48.5 -142q0 -71 38 -115t102 -44z" />
    <glyph glyph-name="e" unicode="e" horiz-adv-x="492" 
d="M90 178q5 -66 49 -109t110 -43q91 0 143 59l25 -22q-63 -71 -168 -71q-85 0 -141.5 57t-56.5 144q0 93 60.5 158.5t147.5 65.5t135 -57.5t47 -144.5zM91 210l312 33q-5 59 -41 100t-104 41q-69 0 -115.5 -49.5t-51.5 -124.5z" />
    <glyph glyph-name="f" unicode="f" horiz-adv-x="278" 
d="M132 375h-64l6 33h63l38 213q20 114 107 114q56 0 86 -50l-28 -20q-23 36 -58 36q-28 0 -44.5 -18.5t-25.5 -66.5l-37 -208h106l-6 -33h-106l-83 -473q-11 -64 -38 -89t-72 -25h-29l6 35h25q27 0 44.5 17t26.5 67z" />
    <glyph glyph-name="g" unicode="g" horiz-adv-x="530" 
d="M201 -223q-68 0 -116.5 32t-71.5 87l33 16q49 -100 154 -100q137 0 169 158l24 119q-28 -46 -72 -71.5t-94 -25.5q-81 0 -129 55.5t-48 141.5q0 97 61.5 162.5t149.5 65.5q62 0 108.5 -40t58.5 -103l20 134h38l-78 -440q-35 -191 -207 -191zM228 26q78 0 130.5 54.5
t53.5 138.5q1 70 -40.5 117t-107.5 47q-79 0 -127.5 -56t-48.5 -142q0 -71 38 -115t102 -44z" />
    <glyph glyph-name="h" unicode="h" horiz-adv-x="503" 
d="M54 0l127 722h38l-69 -392q53 87 148 87q70 0 108 -48t24 -129l-30 -171q-6 -35 20 -35h42l-6 -34h-44q-62 0 -48 78l27 155q12 69 -13 109t-85 40q-64 0 -105.5 -38.5t-54.5 -109.5l-41 -234h-38z" />
    <glyph glyph-name="i" unicode="i" horiz-adv-x="220" 
d="M173 551q-13 0 -23 9.5t-10 23.5t10 23.5t23 9.5q12 0 22 -9.5t10 -23.5t-9.5 -23.5t-22.5 -9.5zM113 0q-62 0 -48 78l58 330h38l-60 -339q-6 -35 20 -35h46l-6 -34h-48z" />
    <glyph glyph-name="j" unicode="j" horiz-adv-x="208" 
d="M173 551q-13 0 -23 9.5t-10 23.5t10 23.5t23 9.5q12 0 22 -9.5t10 -23.5t-9.5 -23.5t-22.5 -9.5zM-28 -222q-53 0 -78 36l26 22q19 -26 50 -26q26 0 39 15t20 52l94 531h38l-94 -533q-17 -97 -95 -97z" />
    <glyph glyph-name="k" unicode="k" horiz-adv-x="449" 
d="M115 130l-23 -130h-38l127 722h38l-89 -508q-2 -16 -9 -39l257 233h49l-190 -173l113 -181q12 -20 36 -20h24l-6 -34h-20q-42 0 -63 33l-114 179z" />
    <glyph glyph-name="l" unicode="l" horiz-adv-x="224" 
d="M121 0q-62 0 -48 78l114 644h39l-117 -653q-6 -35 20 -35h49l-6 -34h-51z" />
    <glyph glyph-name="m" unicode="m" horiz-adv-x="726" 
d="M44 0l72 408h38l-17 -78q51 87 136 87q45 0 74 -25t38 -68q22 44 62 68.5t88 24.5q65 0 98.5 -48.5t19.5 -128.5l-30 -171q-6 -35 20 -35h42l-6 -34h-44q-62 0 -48 78l27 155q12 70 -8 109.5t-75 39.5q-117 0 -143 -148l-41 -234h-38l41 233q12 69 -7.5 109t-73.5 40
q-58 0 -95.5 -38.5t-50.5 -109.5l-41 -234h-38z" />
    <glyph glyph-name="n" unicode="n" horiz-adv-x="489" 
d="M44 0l72 408h38l-18 -85q23 43 62.5 68.5t89.5 25.5q70 0 108.5 -48t23.5 -129l-30 -171q-6 -35 20 -35h42l-6 -34h-44q-62 0 -48 78l27 155q12 69 -13 109t-85 40q-64 0 -105.5 -38.5t-54.5 -109.5l-41 -234h-38z" />
    <glyph glyph-name="o" unicode="o" horiz-adv-x="517" 
d="M250 -8q-83 0 -141 59t-58 142q0 93 63.5 158.5t154.5 65.5q83 0 140 -59t57 -142q0 -93 -62.5 -158.5t-153.5 -65.5zM250 26q78 0 127.5 54.5t49.5 136.5q0 72 -44 119t-114 47q-78 0 -128.5 -54.5t-50.5 -136.5q0 -71 45 -118.5t115 -47.5z" />
    <glyph glyph-name="p" unicode="p" horiz-adv-x="532" 
d="M7 -212l109 620h38l-20 -95q28 49 73.5 76.5t96.5 27.5q80 0 129 -55t49 -142q0 -96 -61 -162t-148 -66q-62 0 -109 39t-59 95l-60 -338h-38zM267 26q78 0 127.5 56.5t49.5 141.5q0 70 -38.5 114.5t-102.5 44.5q-78 0 -130.5 -55t-52.5 -139q0 -70 40.5 -116.5
t106.5 -46.5z" />
    <glyph glyph-name="q" unicode="q" horiz-adv-x="531" 
d="M401 -212q-62 0 -48 78l40 223q-28 -46 -72 -71.5t-94 -25.5q-81 0 -129 55.5t-48 141.5q0 97 61.5 162.5t149.5 65.5q62 0 108.5 -40t58.5 -103l20 134h38l-97 -551q-6 -35 20 -35h42l-6 -34h-44zM228 26q78 0 130.5 54.5t53.5 138.5q1 70 -40.5 117t-107.5 47
q-79 0 -127.5 -56t-48.5 -142q0 -71 38 -115t102 -44z" />
    <glyph glyph-name="r" unicode="r" horiz-adv-x="307" 
d="M44 0l72 408h38l-21 -92q46 100 128 100q27 0 49 -11l-16 -33q-18 8 -35 8q-53 0 -89 -41.5t-48 -110.5l-40 -228h-38z" />
    <glyph glyph-name="s" unicode="s" horiz-adv-x="397" 
d="M186 -8q-59 0 -101 26t-63 67l32 18q45 -77 133 -77q48 0 74 21t26 59q0 30 -21 48t-75 47q-53 28 -79 53.5t-26 65.5q0 46 34 71.5t85 25.5q82 0 125 -62l-27 -21q-37 50 -99 50q-36 0 -58.5 -16t-22.5 -46q0 -28 19.5 -46.5t66.5 -42.5q29 -15 43 -23.5t35 -25t30 -36
t9 -42.5q0 -52 -36.5 -83t-103.5 -31z" />
    <glyph glyph-name="t" unicode="t" horiz-adv-x="312" 
d="M127 375h-62l5 33h63l38 213h38l-38 -213h116l-6 -33h-116l-47 -265q-15 -84 46 -84q31 0 62 27l23 -25q-38 -36 -86 -36q-46 0 -69.5 30.5t-12.5 90.5z" />
    <glyph glyph-name="u" unicode="u" horiz-adv-x="493" 
d="M201 -9q-70 0 -108 48t-24 129l42 240h38l-41 -233q-12 -69 13 -109t85 -40q63 0 104.5 38.5t54.5 109.5l42 234h38l-60 -339q-6 -35 20 -35h42l-6 -34h-44q-31 0 -43 24t-3 54l2 7q-54 -94 -152 -94z" />
    <glyph glyph-name="v" unicode="v" horiz-adv-x="439" 
d="M175 -8l-112 416h40l80 -302q3 -10 4.5 -24t1.5 -23v-9q13 33 25 54l183 304h42l-253 -416h-11z" />
    <glyph glyph-name="w" unicode="w" horiz-adv-x="667" 
d="M149 -8l-82 416h40l55 -293l5 -51q12 29 24 50l173 298h9l69 -297l7 -50q10 31 21 50l160 293h40l-228 -416h-10l-67 300l-8 51q-11 -31 -22 -50l-176 -301h-10z" />
    <glyph glyph-name="x" unicode="x" horiz-adv-x="442" 
d="M0 0l200 220l-103 188h44l72 -133l15 -33q11 18 22 31l122 135h47l-171 -189l122 -219h-44l-91 165l-13 33q-14 -21 -25 -33l-150 -165h-47z" />
    <glyph glyph-name="y" unicode="y" horiz-adv-x="493" 
d="M180 -223q-118 0 -163 102l34 16q21 -42 50.5 -62.5t77.5 -20.5q60 0 99 38t52 110l20 114q-50 -83 -145 -83q-70 0 -108 48t-24 129l42 240h38l-41 -233q-12 -69 13 -109t85 -40q64 0 105 38.5t54 109.5l42 234h38l-80 -454q-16 -87 -64.5 -132t-124.5 -45z" />
    <glyph glyph-name="z" unicode="z" horiz-adv-x="413" 
d="M15 0v10l331 366h-239l6 32h297v-11l-330 -365h266l-6 -32h-325z" />
    <glyph glyph-name="braceleft" unicode="{" horiz-adv-x="341" 
d="M205 -128q-127 0 -101 149l27 154q7 42 -4 56.5t-40 14.5h-58l6 34h54q60 0 74 76l43 234q15 80 50 106t86 26h52l-6 -34h-48q-40 0 -62 -20.5t-33 -80.5l-43 -239q-7 -41 -24 -59.5t-45 -24.5q50 -16 37 -92l-27 -156q-11 -64 6 -87t58 -23h43l-6 -34h-39z" />
    <glyph glyph-name="bar" unicode="|" horiz-adv-x="219" 
d="M31 -128l150 850h39l-150 -850h-39z" />
    <glyph glyph-name="braceright" unicode="}" horiz-adv-x="341" 
d="M-21 -128l6 34h48q40 0 62 20.5t33 80.5l30 171q7 41 24 59.5t45 24.5q-50 16 -37 92l40 224q11 64 -6 87t-58 23h-43l6 34h39q127 0 101 -149l-40 -222q-7 -42 4 -56.5t40 -14.5h58l-6 -34h-54q-60 0 -74 -76l-30 -166q-8 -42 -22 -70t-34 -40.5t-38 -17t-42 -4.5h-52z
" />
    <glyph glyph-name="asciitilde" unicode="~" horiz-adv-x="393" 
d="M108 232l-34 5q20 96 82 96q25 0 63 -36q2 -2 6 -5q29 -27 42 -28q16 0 26 14.5t20 53.5l34 -5q-19 -96 -82 -96q-28 0 -64 36l-6.5 6.5l-6 6l-5 5t-5.5 5t-5 3.5l-4.5 3t-4.5 2t-5 1.5t-5 0.5q-16 0 -26 -14.5t-20 -53.5z" />
    <glyph glyph-name="nbspace" unicode="&#xa0;" horiz-adv-x="244" 
 />
    <glyph glyph-name="exclamdown" unicode="&#xa1;" horiz-adv-x="220" 
d="M188 610q-15 0 -26.5 11.5t-11.5 27.5t11.5 27t26.5 11t26.5 -11.5t11.5 -26.5q0 -16 -11.5 -27.5t-26.5 -11.5zM49 0l97 510h30l-83 -510h-44z" />
    <glyph glyph-name="cent" unicode="&#xa2;" horiz-adv-x="455" 
d="M192 -1q-63 17 -102 71t-39 123q0 93 61 158t153 66l19 106h34l-19 -108q74 -10 120 -67l-27 -23q-37 49 -99 56l-62 -354q5 -1 15 -1q75 0 123 45l24 -25q-62 -54 -147 -54q-14 0 -21 1l-19 -109h-34zM259 383q-76 -4 -122.5 -57.5t-46.5 -133.5q0 -56 29.5 -99.5
t78.5 -59.5z" />
    <glyph glyph-name="sterling" unicode="&#xa3;" horiz-adv-x="528" 
d="M190 268h-93l6 32h83q-10 86 -10 127q0 91 50.5 141t133.5 50q112 0 164 -104l-31 -18q-45 87 -134 87q-143 0 -143 -159q0 -38 8 -124h166l-6 -32h-156q7 -68 7 -125q0 -25 -6 -48q2 -2 11.5 -10t12.5 -10t12 -9t12.5 -9.5t11.5 -8t13 -7.5t12.5 -5.5t14 -5t14 -2.5
t14.5 -1q54 0 96 45l25 -24q-48 -56 -121 -56q-26 0 -53.5 11.5t-44 24t-42.5 34.5q-18 -34 -48.5 -52t-65.5 -18q-40 0 -65.5 23t-25.5 58q0 37 26.5 59.5t68.5 22.5q45 0 92 -35q1 7 1 23q0 41 -10 125zM190 85q-47 40 -84 40q-26 0 -43 -14.5t-17 -37.5q0 -22 16 -36.5
t42 -14.5t50 16.5t36 46.5z" />
    <glyph glyph-name="yen" unicode="&#xa5;" horiz-adv-x="534" 
d="M237 156l-35 85h-136l6 32h117l-91 222h41l109 -269l14 -51q11 28 28 51l202 269h45l-170 -222h117l-6 -32h-135l-64 -85h185l-6 -32h-186l-21 -124h-40l22 124h-187l6 32h185z" />
    <glyph glyph-name="brokenbar" unicode="&#xa6;" horiz-adv-x="180" 
d="M96 197q-15 0 -27.5 12t-12.5 28q0 17 12 28.5t28 11.5t28 -11.5t12 -28.5q0 -16 -12 -28t-28 -12z" />
    <glyph glyph-name="section" unicode="&#xa7;" horiz-adv-x="472" 
d="M144 425q-9 24 -9 53q0 60 41.5 100t108.5 40q52 0 89 -26.5t53 -66.5l-33 -15q-34 74 -109 74q-52 0 -80.5 -30t-28.5 -77q0 -68 71 -101l85 -40q106 -49 106 -133q0 -79 -91 -113q15 -26 15 -62q0 -58 -42 -94.5t-112 -36.5q-65 0 -111 31.5t-63 76.5l34 14
q40 -88 139 -88q52 0 83.5 27.5t31.5 71.5q0 37 -20.5 59t-67.5 44l-76 36q-57 27 -82 58t-25 81q0 39 25.5 71t67.5 46zM328 116q71 25 71 88q0 31 -18 53t-64 43l-83 40q-53 26 -76 59q-67 -24 -67 -92q0 -36 18.5 -58.5t62.5 -43.5l75 -35q56 -26 81 -54z" />
    <glyph glyph-name="dieresis" unicode="&#xa8;" 
d="M388 521q-13 0 -22.5 9.5t-9.5 22.5t9.5 22.5t22.5 9.5t22.5 -9.5t9.5 -22.5t-9.5 -22.5t-22.5 -9.5zM236 521q-13 0 -22.5 9.5t-9.5 22.5t9.5 22.5t22.5 9.5t22.5 -9.5t9.5 -22.5t-9.5 -22.5t-22.5 -9.5z" />
    <glyph glyph-name="copyright" unicode="&#xa9;" horiz-adv-x="600" 
d="M308 -8q-106 0 -181 73.5t-75 181.5q0 110 75 183t181 73t181 -73t75 -183q0 -108 -75 -181.5t-181 -73.5zM308 23q95 0 159 64t64 160q0 97 -64 161t-159 64t-159 -64t-64 -161q0 -96 64 -160t159 -64zM304 97q-58 0 -98.5 43t-40.5 103q0 67 43 111t104 44
q67 0 109 -47l-28 -25q-31 37 -81 37q-45 0 -76 -34t-31 -86q0 -49 28 -80t71 -31q50 0 83 35l26 -25q-45 -45 -109 -45z" />
    <glyph glyph-name="ordfeminine" unicode="&#xaa;" horiz-adv-x="464" 
d="M217 142q-66 0 -108 45.5t-42 121.5q0 85 52 139.5t126 54.5q50 0 88 -32.5t48 -84.5l16 109h35l-50 -285q-5 -30 19 -30h35l-6 -31h-34q-26 0 -38 18t-7 48l1 6q-53 -79 -135 -79zM218 174q63 0 105.5 45t42.5 116q0 60 -32.5 98t-86.5 38q-64 0 -103.5 -45.5
t-39.5 -119.5q0 -59 30.5 -95.5t83.5 -36.5z" />
    <glyph glyph-name="guillemotleft" unicode="&#xab;" horiz-adv-x="338" 
d="M224 40l-63 144l2 8l116 164h47l-124 -171l65 -145h-43zM101 40l-63 144l2 8l116 164h47l-124 -171l65 -145h-43z" />
    <glyph glyph-name="logicalnot" unicode="&#xac;" horiz-adv-x="180" 
d="M96 197q-15 0 -27.5 12t-12.5 28q0 17 12 28.5t28 11.5t28 -11.5t12 -28.5q0 -16 -12 -28t-28 -12z" />
    <glyph glyph-name="registered" unicode="&#xae;" horiz-adv-x="519" 
d="M307 270q-90 0 -153 61t-63 152t63 152.5t153 61.5q91 0 155 -61.5t64 -152.5t-64 -152t-155 -61zM307 298q82 0 134 51.5t52 133.5t-52 134t-134 52q-80 0 -131 -52t-51 -134t51 -133.5t131 -51.5zM349 431l39 -69h-37l-35 60q-3 0 -10.5 -0.5t-11.5 -0.5h-37l-10 -59
h-34l43 246h57q50 0 75 -28.5t21 -71.5q-5 -54 -60 -77zM262 449h32q42 0 58.5 15.5t20.5 45.5t-11 50t-52 20h-25z" />
    <glyph glyph-name="macron" unicode="&#xaf;" 
d="M207 510l6 34h194l-6 -34h-194z" />
    <glyph glyph-name="macron" unicode="&#x2c9;" 
d="M207 510l6 34h194l-6 -34h-194z" />
    <glyph glyph-name="degree" unicode="&#xb0;" horiz-adv-x="322" 
d="M183 294q-43 0 -72 29t-29 71q0 46 32.5 77.5t77.5 31.5q43 0 71.5 -29t28.5 -71q0 -46 -32 -77.5t-77 -31.5zM183 323q33 0 53.5 23t20.5 58q0 31 -17.5 50.5t-48.5 19.5q-33 0 -54 -23t-21 -58q0 -31 18 -50.5t49 -19.5z" />
    <glyph glyph-name="twosuperior" unicode="&#xb2;" horiz-adv-x="180" 
d="M96 197q-15 0 -27.5 12t-12.5 28q0 17 12 28.5t28 11.5t28 -11.5t12 -28.5q0 -16 -12 -28t-28 -12z" />
    <glyph glyph-name="threesuperior" unicode="&#xb3;" horiz-adv-x="180" 
d="M96 197q-15 0 -27.5 12t-12.5 28q0 17 12 28.5t28 11.5t28 -11.5t12 -28.5q0 -16 -12 -28t-28 -12z" />
    <glyph glyph-name="acute" unicode="&#xb4;" 
d="M285 497l106 195h49l-122 -195h-33z" />
    <glyph glyph-name="mu" unicode="&#xb5;" horiz-adv-x="180" 
d="M96 197q-15 0 -27.5 12t-12.5 28q0 17 12 28.5t28 11.5t28 -11.5t12 -28.5q0 -16 -12 -28t-28 -12z" />
    <glyph glyph-name="mu" unicode="&#x3bc;" horiz-adv-x="180" 
d="M96 197q-15 0 -27.5 12t-12.5 28q0 17 12 28.5t28 11.5t28 -11.5t12 -28.5q0 -16 -12 -28t-28 -12z" />
    <glyph glyph-name="paragraph" unicode="&#xb6;" horiz-adv-x="583" 
d="M338 332h-57q-80 0 -125 45.5t-45 115.5q0 80 55 133.5t139 53.5h260l-120 -680h-40l114 645h-86l-114 -645h-40zM344 367l49 278h-89q-71 0 -110.5 -42t-39.5 -112q0 -58 33 -91t95 -33h62z" />
    <glyph glyph-name="periodcentered" unicode="&#xb7;" horiz-adv-x="180" 
d="M96 197q-15 0 -27.5 12t-12.5 28q0 17 12 28.5t28 11.5t28 -11.5t12 -28.5q0 -16 -12 -28t-28 -12z" />
    <glyph glyph-name="periodcentered" unicode="&#x2219;" horiz-adv-x="180" 
d="M96 197q-15 0 -27.5 12t-12.5 28q0 17 12 28.5t28 11.5t28 -11.5t12 -28.5q0 -16 -12 -28t-28 -12z" />
    <glyph glyph-name="cedilla" unicode="&#xb8;" 
d="M213 -228q-34 0 -59 17.5t-35 41.5l30 17q19 -43 63 -43q24 0 39.5 15t15.5 38q0 24 -14.5 39.5t-43.5 15.5h-14l15 87h34l-10 -59q29 -4 49.5 -27.5t20.5 -56.5q0 -39 -26.5 -62t-64.5 -23z" />
    <glyph glyph-name="onesuperior" unicode="&#xb9;" horiz-adv-x="180" 
d="M96 197q-15 0 -27.5 12t-12.5 28q0 17 12 28.5t28 11.5t28 -11.5t12 -28.5q0 -16 -12 -28t-28 -12z" />
    <glyph glyph-name="ordmasculine" unicode="&#xba;" horiz-adv-x="434" 
d="M233 143q-71 0 -117.5 49t-46.5 124q0 80 50.5 133.5t122.5 53.5q70 0 117.5 -50.5t47.5 -121.5q0 -83 -50.5 -135.5t-123.5 -52.5zM233 175q60 0 98 43t38 114q0 60 -35 99.5t-92 39.5q-60 0 -97.5 -42.5t-37.5 -112.5q0 -62 34.5 -101.5t91.5 -39.5z" />
    <glyph glyph-name="guillemotright" unicode="&#xbb;" horiz-adv-x="338" 
d="M134 40l124 171l-65 145h43l63 -144l-2 -8l-116 -164h-47zM11 40l124 171l-65 145h43l63 -144l-2 -8l-116 -164h-47z" />
    <glyph glyph-name="onequarter" unicode="&#xbc;" horiz-adv-x="180" 
d="M96 197q-15 0 -27.5 12t-12.5 28q0 17 12 28.5t28 11.5t28 -11.5t12 -28.5q0 -16 -12 -28t-28 -12z" />
    <glyph glyph-name="onehalf" unicode="&#xbd;" horiz-adv-x="180" 
d="M96 197q-15 0 -27.5 12t-12.5 28q0 17 12 28.5t28 11.5t28 -11.5t12 -28.5q0 -16 -12 -28t-28 -12z" />
    <glyph glyph-name="threequarters" unicode="&#xbe;" horiz-adv-x="180" 
d="M96 197q-15 0 -27.5 12t-12.5 28q0 17 12 28.5t28 11.5t28 -11.5t12 -28.5q0 -16 -12 -28t-28 -12z" />
    <glyph glyph-name="questiondown" unicode="&#xbf;" horiz-adv-x="451" 
d="M337 610q-15 0 -26.5 11.5t-11.5 27.5t11.5 27t26.5 11t26.5 -11.5t11.5 -26.5q0 -16 -11.5 -27.5t-26.5 -11.5zM223 -8q-77 0 -127.5 47.5t-50.5 125.5q0 89 61.5 146t161.5 53l27 150h37l-33 -185h-48q-77 0 -121 -46.5t-44 -117.5q0 -64 38 -101t100 -37q54 0 91 24
t65 76l31 -16q-54 -119 -188 -119z" />
    <glyph glyph-name="Agrave" unicode="&#xc0;" horiz-adv-x="638" 
d="M122 132l-74 -132h-41l390 688h12l150 -688h-40l-28 132h-369zM484 167l-83 389l-9 62q-16 -38 -30 -62l-220 -389h342zM382 755l-86 195h46l72 -195h-32z" />
    <glyph glyph-name="Aacute" unicode="&#xc1;" horiz-adv-x="638" 
d="M122 132l-74 -132h-41l390 688h12l150 -688h-40l-28 132h-369zM484 167l-83 389l-9 62q-16 -38 -30 -62l-220 -389h342zM382 755l106 195h49l-122 -195h-33z" />
    <glyph glyph-name="Acircumflex" unicode="&#xc2;" horiz-adv-x="638" 
d="M122 132l-74 -132h-41l390 688h12l150 -688h-40l-28 132h-369zM484 167l-83 389l-9 62q-16 -38 -30 -62l-220 -389h342zM280 752l142 182h9l84 -182h-34l-62 125l-102 -125h-37z" />
    <glyph glyph-name="Atilde" unicode="&#xc3;" horiz-adv-x="638" 
d="M122 132l-74 -132h-41l390 688h12l150 -688h-40l-28 132h-369zM484 167l-83 389l-9 62q-16 -38 -30 -62l-220 -389h342zM298 746l-34 5q20 96 82 96q25 0 63 -36q2 -2 6 -5q29 -27 42 -28q16 0 26 14.5t20 53.5l34 -5q-19 -96 -82 -96q-28 0 -64 36l-6.5 6.5l-6 6l-5 5
t-5.5 5t-5 3.5l-4.5 3t-4.5 2t-5 1.5t-5 0.5q-16 0 -26 -14.5t-20 -53.5z" />
    <glyph glyph-name="Adieresis" unicode="&#xc4;" horiz-adv-x="638" 
d="M482 779q-13 0 -22.5 9.5t-9.5 22.5t9.5 22.5t22.5 9.5t22.5 -9.5t9.5 -22.5t-9.5 -22.5t-22.5 -9.5zM330 779q-13 0 -22.5 9.5t-9.5 22.5t9.5 22.5t22.5 9.5t22.5 -9.5t9.5 -22.5t-9.5 -22.5t-22.5 -9.5zM122 132l-74 -132h-41l390 688h12l150 -688h-40l-28 132h-369z
M484 167l-83 389l-9 62q-16 -38 -30 -62l-220 -389h342z" />
    <glyph glyph-name="Aring" unicode="&#xc5;" horiz-adv-x="638" 
d="M406 746q-39 0 -66.5 27t-27.5 65t27.5 65t66.5 27t66.5 -27t27.5 -65t-27.5 -65t-66.5 -27zM122 132l-74 -132h-41l390 688h12l150 -688h-40l-28 132h-369zM406 776q26 0 42.5 17t16.5 45t-16.5 45t-42.5 17t-42.5 -17t-16.5 -45t16.5 -45t42.5 -17zM484 167l-83 389
l-9 62q-16 -38 -30 -62l-220 -389h342z" />
    <glyph glyph-name="AE" unicode="&#xc6;" horiz-adv-x="909" 
d="M147 132l-107 -132h-46l555 680h371l-6 -35h-345l-65 -365h309l-6 -35h-309l-37 -210h359l-6 -35h-399l23 132h-291zM444 167l64 363l20 79q-27 -42 -50 -70l-302 -372h268z" />
    <glyph glyph-name="Ccedilla" unicode="&#xc7;" horiz-adv-x="715" 
d="M335 -3q-117 18 -190 105.5t-73 214.5q0 159 105.5 265t259.5 106q85 0 152 -34t105 -95l-30 -21q-79 115 -228 115q-136 0 -229.5 -96t-93.5 -237q0 -127 78 -210t202 -83q144 0 243 110l28 -23q-108 -122 -272 -122q-16 0 -23 1l-9 -52q29 -4 49.5 -27.5t20.5 -56.5
q0 -39 -26.5 -62t-64.5 -23q-34 0 -59 17.5t-35 41.5l30 17q19 -43 63 -43q24 0 39.5 15t15.5 38q0 24 -14.5 39.5t-43.5 15.5h-14z" />
    <glyph glyph-name="Egrave" unicode="&#xc8;" horiz-adv-x="562" 
d="M64 0l120 680h389l-6 -35h-350l-64 -365h313l-6 -35h-313l-37 -210h363l-6 -35h-403zM374 755l-86 195h46l72 -195h-32z" />
    <glyph glyph-name="Eacute" unicode="&#xc9;" horiz-adv-x="562" 
d="M64 0l120 680h389l-6 -35h-350l-64 -365h313l-6 -35h-313l-37 -210h363l-6 -35h-403zM364 755l106 195h49l-122 -195h-33z" />
    <glyph glyph-name="Ecircumflex" unicode="&#xca;" horiz-adv-x="562" 
d="M64 0l120 680h389l-6 -35h-350l-64 -365h313l-6 -35h-313l-37 -210h363l-6 -35h-403zM266 752l142 182h9l84 -182h-34l-62 125l-102 -125h-37z" />
    <glyph glyph-name="Edieresis" unicode="&#xcb;" horiz-adv-x="562" 
d="M64 0l120 680h389l-6 -35h-350l-64 -365h313l-6 -35h-313l-37 -210h363l-6 -35h-403zM467 779q-13 0 -22.5 9.5t-9.5 22.5t9.5 22.5t22.5 9.5t22.5 -9.5t9.5 -22.5t-9.5 -22.5t-22.5 -9.5zM315 779q-13 0 -22.5 9.5t-9.5 22.5t9.5 22.5t22.5 9.5t22.5 -9.5t9.5 -22.5
t-9.5 -22.5t-22.5 -9.5z" />
    <glyph glyph-name="Igrave" unicode="&#xcc;" horiz-adv-x="250" 
d="M69 0l120 680h40l-120 -680h-40zM188 755l-86 195h46l72 -195h-32z" />
    <glyph glyph-name="Iacute" unicode="&#xcd;" horiz-adv-x="250" 
d="M69 0l120 680h40l-120 -680h-40zM198 755l106 195h49l-122 -195h-33z" />
    <glyph glyph-name="Icircumflex" unicode="&#xce;" horiz-adv-x="250" 
d="M69 0l120 680h40l-120 -680h-40zM102 752l142 182h9l84 -182h-34l-62 125l-102 -125h-37z" />
    <glyph glyph-name="Idieresis" unicode="&#xcf;" horiz-adv-x="250" 
d="M69 0l120 680h40l-120 -680h-40zM311 779q-13 0 -22.5 9.5t-9.5 22.5t9.5 22.5t22.5 9.5t22.5 -9.5t9.5 -22.5t-9.5 -22.5t-22.5 -9.5zM159 779q-13 0 -22.5 9.5t-9.5 22.5t9.5 22.5t22.5 9.5t22.5 -9.5t9.5 -22.5t-9.5 -22.5t-22.5 -9.5z" />
    <glyph glyph-name="Eth" unicode="&#xd0;" horiz-adv-x="656" 
d="M107 245h-87l6 35h87l71 400h143q145 0 227 -83t82 -213q0 -172 -107.5 -278t-292.5 -106h-172zM153 280h195l-6 -35h-195l-37 -210h119q178 0 271.5 95.5t93.5 253.5q0 119 -67.5 190t-202.5 71h-106z" />
    <glyph glyph-name="Ntilde" unicode="&#xd1;" horiz-adv-x="703" 
d="M554 -8l-326 566l-24 48q-1 -33 -5 -54l-97 -552h-38l121 688h11l327 -566l22 -48q2 28 6 52l98 554h38l-121 -688h-12zM340 746l-34 5q20 96 82 96q25 0 63 -36q2 -2 6 -5q29 -27 42 -28q16 0 26 14.5t20 53.5l34 -5q-19 -96 -82 -96q-28 0 -64 36l-6.5 6.5l-6 6l-5 5
t-5.5 5t-5 3.5l-4.5 3t-4.5 2t-5 1.5t-5 0.5q-16 0 -26 -14.5t-20 -53.5z" />
    <glyph glyph-name="Ograve" unicode="&#xd2;" horiz-adv-x="786" 
d="M394 -8q-137 0 -228 90t-91 232q0 160 105.5 267t258.5 107q137 0 228.5 -89t91.5 -230q0 -161 -106 -269t-259 -108zM395 28q137 0 230 98.5t93 242.5q0 124 -77.5 203.5t-201.5 79.5q-137 0 -230 -97t-93 -240q0 -125 77 -206t202 -81zM436 755l-86 195h46l72 -195h-32
z" />
    <glyph glyph-name="Oacute" unicode="&#xd3;" horiz-adv-x="786" 
d="M394 -8q-137 0 -228 90t-91 232q0 160 105.5 267t258.5 107q137 0 228.5 -89t91.5 -230q0 -161 -106 -269t-259 -108zM395 28q137 0 230 98.5t93 242.5q0 124 -77.5 203.5t-201.5 79.5q-137 0 -230 -97t-93 -240q0 -125 77 -206t202 -81zM446 755l106 195h49l-122 -195
h-33z" />
    <glyph glyph-name="Ocircumflex" unicode="&#xd4;" horiz-adv-x="786" 
d="M394 -8q-137 0 -228 90t-91 232q0 160 105.5 267t258.5 107q137 0 228.5 -89t91.5 -230q0 -161 -106 -269t-259 -108zM395 28q137 0 230 98.5t93 242.5q0 124 -77.5 203.5t-201.5 79.5q-137 0 -230 -97t-93 -240q0 -125 77 -206t202 -81zM344 752l142 182h9l84 -182h-34
l-62 125l-102 -125h-37z" />
    <glyph glyph-name="Otilde" unicode="&#xd5;" horiz-adv-x="786" 
d="M394 -8q-137 0 -228 90t-91 232q0 160 105.5 267t258.5 107q137 0 228.5 -89t91.5 -230q0 -161 -106 -269t-259 -108zM395 28q137 0 230 98.5t93 242.5q0 124 -77.5 203.5t-201.5 79.5q-137 0 -230 -97t-93 -240q0 -125 77 -206t202 -81zM362 746l-34 5q20 96 82 96
q25 0 63 -36q31 -30 42 -32q3 -1 6 -1q16 0 26 14.5t20 53.5l34 -5q-19 -96 -82 -96q-28 0 -64 36l-6.5 6.5l-6 6l-5 5t-5.5 5t-5 3.5l-4.5 3t-4.5 2t-5 1.5t-5 0.5q-16 0 -26 -14.5t-20 -53.5z" />
    <glyph glyph-name="Odieresis" unicode="&#xd6;" horiz-adv-x="786" 
d="M549 779q-13 0 -22.5 9.5t-9.5 22.5t9.5 22.5t22.5 9.5t22.5 -9.5t9.5 -22.5t-9.5 -22.5t-22.5 -9.5zM397 779q-13 0 -22.5 9.5t-9.5 22.5t9.5 22.5t22.5 9.5t22.5 -9.5t9.5 -22.5t-9.5 -22.5t-22.5 -9.5zM394 -8q-137 0 -228 90t-91 232q0 160 105.5 267t258.5 107
q137 0 228.5 -89t91.5 -230q0 -161 -106 -269t-259 -108zM395 28q137 0 230 98.5t93 242.5q0 124 -77.5 203.5t-201.5 79.5q-137 0 -230 -97t-93 -240q0 -125 77 -206t202 -81z" />
    <glyph glyph-name="multiply" unicode="&#xd7;" horiz-adv-x="180" 
d="M96 197q-15 0 -27.5 12t-12.5 28q0 17 12 28.5t28 11.5t28 -11.5t12 -28.5q0 -16 -12 -28t-28 -12z" />
    <glyph glyph-name="Oslash" unicode="&#xd8;" horiz-adv-x="786" 
d="M680 585q79 -89 79 -216q0 -161 -106 -269t-259 -108q-129 0 -218 80l-80 -82l-24 23l80 82q-77 90 -77 219q0 160 105.5 267t258.5 107q130 0 218 -80l80 81l24 -23zM180 123l451 458q-76 71 -192 71q-137 0 -230 -97t-93 -240q0 -114 64 -192zM654 557l-451 -458
q76 -71 192 -71q137 0 230 98.5t93 242.5q0 113 -64 188z" />
    <glyph glyph-name="Ugrave" unicode="&#xd9;" horiz-adv-x="637" 
d="M309 -8q-106 0 -167.5 66t-40.5 186l76 436h41l-75 -433q-19 -107 28.5 -163t137.5 -56q165 0 195 174l83 478h40l-84 -481q-19 -111 -78.5 -159t-155.5 -48zM381 755l-86 195h46l72 -195h-32z" />
    <glyph glyph-name="Uacute" unicode="&#xda;" horiz-adv-x="637" 
d="M309 -8q-106 0 -167.5 66t-40.5 186l76 436h41l-75 -433q-19 -107 28.5 -163t137.5 -56q165 0 195 174l83 478h40l-84 -481q-19 -111 -78.5 -159t-155.5 -48zM381 755l106 195h49l-122 -195h-33z" />
    <glyph glyph-name="Ucircumflex" unicode="&#xdb;" horiz-adv-x="637" 
d="M309 -8q-106 0 -167.5 66t-40.5 186l76 436h41l-75 -433q-19 -107 28.5 -163t137.5 -56q165 0 195 174l83 478h40l-84 -481q-19 -111 -78.5 -159t-155.5 -48zM290 752l142 182h9l84 -182h-34l-62 125l-102 -125h-37z" />
    <glyph glyph-name="Udieresis" unicode="&#xdc;" horiz-adv-x="637" 
d="M488 779q-13 0 -22.5 9.5t-9.5 22.5t9.5 22.5t22.5 9.5t22.5 -9.5t9.5 -22.5t-9.5 -22.5t-22.5 -9.5zM336 779q-13 0 -22.5 9.5t-9.5 22.5t9.5 22.5t22.5 9.5t22.5 -9.5t9.5 -22.5t-9.5 -22.5t-22.5 -9.5zM309 -8q-106 0 -167.5 66t-40.5 186l76 436h41l-75 -433
q-19 -107 28.5 -163t137.5 -56q165 0 195 174l83 478h40l-84 -481q-19 -111 -78.5 -159t-155.5 -48z" />
    <glyph glyph-name="Yacute" unicode="&#xdd;" horiz-adv-x="630" 
d="M295 214l-169 466h42l142 -394l10 -43q12 26 24 43l282 394h45l-336 -469l-37 -211h-41zM378 755l106 195h49l-122 -195h-33z" />
    <glyph glyph-name="Thorn" unicode="&#xde;" horiz-adv-x="558" 
d="M212 598h77q113 0 173.5 -64t59.5 -161q-1 -125 -76 -202.5t-216 -77.5h-108l-16 -93h-40l120 680h40zM128 127h101q129 0 190 68t62 178q1 85 -47 138t-148 53h-80z" />
    <glyph glyph-name="germandbls" unicode="&#xdf;" horiz-adv-x="508" 
d="M308 403q69 -16 108.5 -68t39.5 -125q0 -98 -55 -156t-151 -58q-48 0 -86 17l12 32q36 -15 76 -15q81 0 122 51t41 137q0 74 -46 119t-133 48l6 35q73 4 123 49.5t50 116.5q0 59 -28.5 87t-75.5 28q-53 0 -86 -34t-46 -110l-115 -655q-11 -64 -38 -89t-72 -25h-29l6 35
h25q27 0 44.5 17t26.5 67l115 654q31 174 169 174q61 0 101 -39.5t40 -110.5q0 -65 -38 -113.5t-106 -68.5z" />
    <glyph glyph-name="agrave" unicode="&#xe0;" horiz-adv-x="526" 
d="M223 -8q-78 0 -125.5 54t-47.5 143q0 97 60 162.5t146 65.5q59 0 104.5 -40t57.5 -103l20 134h38l-58 -339q-6 -35 20 -35h42l-6 -34h-44q-64 0 -46 78l4 17q-28 -48 -72 -75.5t-93 -27.5zM224 26q75 0 126.5 54.5t51.5 138.5q0 70 -39.5 117t-103.5 47q-76 0 -123.5 -56
t-47.5 -142q0 -70 37.5 -114.5t98.5 -44.5zM266 497l-86 195h46l72 -195h-32z" />
    <glyph glyph-name="aacute" unicode="&#xe1;" horiz-adv-x="526" 
d="M223 -8q-78 0 -125.5 54t-47.5 143q0 97 60 162.5t146 65.5q59 0 104.5 -40t57.5 -103l20 134h38l-58 -339q-6 -35 20 -35h42l-6 -34h-44q-64 0 -46 78l4 17q-28 -48 -72 -75.5t-93 -27.5zM224 26q75 0 126.5 54.5t51.5 138.5q0 70 -39.5 117t-103.5 47q-76 0 -123.5 -56
t-47.5 -142q0 -70 37.5 -114.5t98.5 -44.5zM266 497l106 195h49l-122 -195h-33z" />
    <glyph glyph-name="acircumflex" unicode="&#xe2;" horiz-adv-x="526" 
d="M223 -8q-78 0 -125.5 54t-47.5 143q0 97 60 162.5t146 65.5q59 0 104.5 -40t57.5 -103l20 134h38l-58 -339q-6 -35 20 -35h42l-6 -34h-44q-64 0 -46 78l4 17q-28 -48 -72 -75.5t-93 -27.5zM224 26q75 0 126.5 54.5t51.5 138.5q0 70 -39.5 117t-103.5 47q-76 0 -123.5 -56
t-47.5 -142q0 -70 37.5 -114.5t98.5 -44.5zM178 494l142 182h9l84 -182h-34l-62 125l-102 -125h-37z" />
    <glyph glyph-name="atilde" unicode="&#xe3;" horiz-adv-x="526" 
d="M223 -8q-78 0 -125.5 54t-47.5 143q0 97 60 162.5t146 65.5q59 0 104.5 -40t57.5 -103l20 134h38l-58 -339q-6 -35 20 -35h42l-6 -34h-44q-64 0 -46 78l4 17q-28 -48 -72 -75.5t-93 -27.5zM224 26q75 0 126.5 54.5t51.5 138.5q0 70 -39.5 117t-103.5 47q-76 0 -123.5 -56
t-47.5 -142q0 -70 37.5 -114.5t98.5 -44.5zM202 488l-34 5q20 96 82 96q25 0 63 -36q2 -2 6 -5q29 -27 42 -28q16 0 26 14.5t20 53.5l34 -5q-19 -96 -82 -96q-28 0 -64 36l-6.5 6.5l-6 6l-5 5t-5.5 5t-5 3.5l-4.5 3t-4.5 2t-5 1.5t-5 0.5q-16 0 -26 -14.5t-20 -53.5z" />
    <glyph glyph-name="adieresis" unicode="&#xe4;" horiz-adv-x="526" 
d="M223 -8q-78 0 -125.5 54t-47.5 143q0 97 60 162.5t146 65.5q59 0 104.5 -40t57.5 -103l20 134h38l-58 -339q-6 -35 20 -35h42l-6 -34h-44q-64 0 -46 78l4 17q-28 -48 -72 -75.5t-93 -27.5zM224 26q75 0 126.5 54.5t51.5 138.5q0 70 -39.5 117t-103.5 47q-76 0 -123.5 -56
t-47.5 -142q0 -70 37.5 -114.5t98.5 -44.5zM386 521q-13 0 -22.5 9.5t-9.5 22.5t9.5 22.5t22.5 9.5t22.5 -9.5t9.5 -22.5t-9.5 -22.5t-22.5 -9.5zM234 521q-13 0 -22.5 9.5t-9.5 22.5t9.5 22.5t22.5 9.5t22.5 -9.5t9.5 -22.5t-9.5 -22.5t-22.5 -9.5z" />
    <glyph glyph-name="aring" unicode="&#xe5;" horiz-adv-x="526" 
d="M223 -8q-78 0 -125.5 54t-47.5 143q0 97 60 162.5t146 65.5q59 0 104.5 -40t57.5 -103l20 134h38l-58 -339q-6 -35 20 -35h42l-6 -34h-44q-64 0 -46 78l4 17q-28 -48 -72 -75.5t-93 -27.5zM224 26q75 0 126.5 54.5t51.5 138.5q0 70 -39.5 117t-103.5 47q-76 0 -123.5 -56
t-47.5 -142q0 -70 37.5 -114.5t98.5 -44.5zM313 488q-39 0 -66.5 27t-27.5 65t27.5 65t66.5 27t66.5 -27t27.5 -65t-27.5 -65t-66.5 -27zM313 518q26 0 42.5 17t16.5 45t-16.5 45t-42.5 17t-42.5 -17t-16.5 -45t16.5 -45t42.5 -17z" />
    <glyph glyph-name="ae" unicode="&#xe6;" horiz-adv-x="780" 
d="M379 318q28 46 72 72.5t96 26.5q87 0 135 -57.5t47 -144.5l-351 -37q5 -66 49 -109t110 -43q91 0 143 59l25 -22q-63 -71 -168 -71q-66 0 -114.5 37t-66.5 97q-12 -57 -57 -95.5t-124 -38.5q-63 0 -101 31.5t-37 82.5q1 68 47 99t114 31h146l2 14q11 66 -16.5 100
t-76.5 34q-77 0 -127 -70l-27 20q24 38 64.5 60.5t90.5 22.5q48 0 82 -26.5t43 -72.5zM379 210l312 33q-5 59 -41 100t-104 41t-115 -49.5t-52 -124.5zM338 205h-140q-121 0 -122 -97q-1 -40 25 -61t74 -21q66 0 104 30t47 79z" />
    <glyph glyph-name="ccedilla" unicode="&#xe7;" horiz-adv-x="455" 
d="M199 -2q-65 16 -106.5 70t-41.5 125q0 94 62.5 159t156.5 65t149 -69l-27 -23q-45 58 -122 58q-80 0 -130 -54t-50 -137q0 -70 44 -118t112 -48q75 0 123 45l24 -25q-62 -54 -147 -54q-10 0 -14 1l-9 -52q29 -4 49.5 -27.5t20.5 -56.5q0 -39 -26.5 -62t-64.5 -23
q-34 0 -59 17.5t-35 41.5l30 17q19 -43 63 -43q24 0 39.5 15t15.5 38q0 24 -14.5 39.5t-43.5 15.5h-14z" />
    <glyph glyph-name="egrave" unicode="&#xe8;" horiz-adv-x="492" 
d="M90 178q5 -66 49 -109t110 -43q91 0 143 59l25 -22q-63 -71 -168 -71q-85 0 -141.5 57t-56.5 144q0 93 60.5 158.5t147.5 65.5t135 -57.5t47 -144.5zM91 210l312 33q-5 59 -41 100t-104 41q-69 0 -115.5 -49.5t-51.5 -124.5zM255 497l-86 195h46l72 -195h-32z" />
    <glyph glyph-name="eacute" unicode="&#xe9;" horiz-adv-x="492" 
d="M90 178q5 -66 49 -109t110 -43q91 0 143 59l25 -22q-63 -71 -168 -71q-85 0 -141.5 57t-56.5 144q0 93 60.5 158.5t147.5 65.5t135 -57.5t47 -144.5zM91 210l312 33q-5 59 -41 100t-104 41q-69 0 -115.5 -49.5t-51.5 -124.5zM271 497l106 195h49l-122 -195h-33z" />
    <glyph glyph-name="ecircumflex" unicode="&#xea;" horiz-adv-x="492" 
d="M90 178q5 -66 49 -109t110 -43q91 0 143 59l25 -22q-63 -71 -168 -71q-85 0 -141.5 57t-56.5 144q0 93 60.5 158.5t147.5 65.5t135 -57.5t47 -144.5zM91 210l312 33q-5 59 -41 100t-104 41q-69 0 -115.5 -49.5t-51.5 -124.5zM166 494l142 182h9l84 -182h-34l-62 125
l-102 -125h-37z" />
    <glyph glyph-name="edieresis" unicode="&#xeb;" horiz-adv-x="492" 
d="M90 178q5 -66 49 -109t110 -43q91 0 143 59l25 -22q-63 -71 -168 -71q-85 0 -141.5 57t-56.5 144q0 93 60.5 158.5t147.5 65.5t135 -57.5t47 -144.5zM91 210l312 33q-5 59 -41 100t-104 41q-69 0 -115.5 -49.5t-51.5 -124.5zM368 521q-13 0 -22.5 9.5t-9.5 22.5t9.5 22.5
t22.5 9.5t22.5 -9.5t9.5 -22.5t-9.5 -22.5t-22.5 -9.5zM216 521q-13 0 -22.5 9.5t-9.5 22.5t9.5 22.5t22.5 9.5t22.5 -9.5t9.5 -22.5t-9.5 -22.5t-22.5 -9.5z" />
    <glyph glyph-name="igrave" unicode="&#xec;" horiz-adv-x="208" 
d="M109 0q-62 0 -48 78l58 330h38l-60 -339q-6 -35 20 -35h46l-6 -34h-48zM129 497l-86 195h46l72 -195h-32z" />
    <glyph glyph-name="iacute" unicode="&#xed;" horiz-adv-x="208" 
d="M109 0q-62 0 -48 78l58 330h38l-60 -339q-6 -35 20 -35h46l-6 -34h-48zM139 497l106 195h49l-122 -195h-33z" />
    <glyph glyph-name="icircumflex" unicode="&#xee;" horiz-adv-x="208" 
d="M109 0q-62 0 -48 78l58 330h38l-60 -339q-6 -35 20 -35h46l-6 -34h-48zM32 494l142 182h9l84 -182h-34l-62 125l-102 -125h-37z" />
    <glyph glyph-name="idieresis" unicode="&#xef;" horiz-adv-x="208" 
d="M109 0q-62 0 -48 78l58 330h38l-60 -339q-6 -35 20 -35h46l-6 -34h-48zM237 521q-13 0 -22.5 9.5t-9.5 22.5t9.5 22.5t22.5 9.5t22.5 -9.5t9.5 -22.5t-9.5 -22.5t-22.5 -9.5zM85 521q-13 0 -22.5 9.5t-9.5 22.5t9.5 22.5t22.5 9.5t22.5 -9.5t9.5 -22.5t-9.5 -22.5
t-22.5 -9.5z" />
    <glyph glyph-name="eth" unicode="&#xf0;" horiz-adv-x="518" 
d="M314 606l-83 -65l-17 25l83 65q-38 53 -67 85l25 22q34 -34 71 -85l78 62l18 -25l-79 -62q124 -186 124 -383q0 -117 -59.5 -185t-158.5 -68q-86 0 -141 57t-55 144q0 96 64.5 160t154.5 64q103 0 152 -89q-21 141 -110 278zM250 26q79 0 127.5 54.5t48.5 144.5
q0 69 -42.5 113.5t-111.5 44.5q-77 0 -129 -54t-52 -137q0 -73 43.5 -119.5t115.5 -46.5z" />
    <glyph glyph-name="ntilde" unicode="&#xf1;" horiz-adv-x="489" 
d="M44 0l72 408h38l-18 -85q23 43 62.5 68.5t89.5 25.5q70 0 108.5 -48t23.5 -129l-30 -171q-6 -35 20 -35h42l-6 -34h-44q-62 0 -48 78l27 155q12 69 -13 109t-85 40q-64 0 -105.5 -38.5t-54.5 -109.5l-41 -234h-38zM187 488l-34 5q19 96 82 96q25 0 63 -36q2 -2 6 -5
q29 -27 42 -28q16 0 26 14.5t20 53.5l34 -5q-19 -96 -82 -96q-28 0 -64 36l-6.5 6.5l-6 6l-5 5t-5.5 5t-5 3.5l-4.5 3t-4.5 2t-5 1.5t-5 0.5q-16 0 -26 -14.5t-20 -53.5z" />
    <glyph glyph-name="ograve" unicode="&#xf2;" horiz-adv-x="517" 
d="M250 -8q-83 0 -141 59t-58 142q0 93 63.5 158.5t154.5 65.5q83 0 140 -59t57 -142q0 -93 -62.5 -158.5t-153.5 -65.5zM250 26q78 0 127.5 54.5t49.5 136.5q0 72 -44 119t-114 47q-78 0 -128.5 -54.5t-50.5 -136.5q0 -71 45 -118.5t115 -47.5zM268 497l-86 195h46l72 -195
h-32z" />
    <glyph glyph-name="oacute" unicode="&#xf3;" horiz-adv-x="517" 
d="M250 -8q-83 0 -141 59t-58 142q0 93 63.5 158.5t154.5 65.5q83 0 140 -59t57 -142q0 -93 -62.5 -158.5t-153.5 -65.5zM250 26q78 0 127.5 54.5t49.5 136.5q0 72 -44 119t-114 47q-78 0 -128.5 -54.5t-50.5 -136.5q0 -71 45 -118.5t115 -47.5zM278 497l106 195h49
l-122 -195h-33z" />
    <glyph glyph-name="ocircumflex" unicode="&#xf4;" horiz-adv-x="517" 
d="M250 -8q-83 0 -141 59t-58 142q0 93 63.5 158.5t154.5 65.5q83 0 140 -59t57 -142q0 -93 -62.5 -158.5t-153.5 -65.5zM250 26q78 0 127.5 54.5t49.5 136.5q0 72 -44 119t-114 47q-78 0 -128.5 -54.5t-50.5 -136.5q0 -71 45 -118.5t115 -47.5zM179 494l142 182h9l84 -182
h-34l-62 125l-102 -125h-37z" />
    <glyph glyph-name="otilde" unicode="&#xf5;" horiz-adv-x="517" 
d="M250 -8q-83 0 -141 59t-58 142q0 93 63.5 158.5t154.5 65.5q83 0 140 -59t57 -142q0 -93 -62.5 -158.5t-153.5 -65.5zM250 26q78 0 127.5 54.5t49.5 136.5q0 72 -44 119t-114 47q-78 0 -128.5 -54.5t-50.5 -136.5q0 -71 45 -118.5t115 -47.5zM197 488l-34 5q19 96 82 96
q25 0 63 -36q2 -2 6 -5q29 -27 42 -28q16 0 26 14.5t20 53.5l34 -5q-20 -96 -82 -96q-28 0 -64 36l-6.5 6.5l-6 6l-5 5t-5.5 5t-5 3.5l-4.5 3t-4.5 2t-5 1.5t-5 0.5q-16 0 -26 -14.5t-20 -53.5z" />
    <glyph glyph-name="odieresis" unicode="&#xf6;" horiz-adv-x="517" 
d="M250 -8q-83 0 -141 59t-58 142q0 93 63.5 158.5t154.5 65.5q83 0 140 -59t57 -142q0 -93 -62.5 -158.5t-153.5 -65.5zM250 26q78 0 127.5 54.5t49.5 136.5q0 72 -44 119t-114 47q-78 0 -128.5 -54.5t-50.5 -136.5q0 -71 45 -118.5t115 -47.5zM386 521q-13 0 -22.5 9.5
t-9.5 22.5t9.5 22.5t22.5 9.5t22.5 -9.5t9.5 -22.5t-9.5 -22.5t-22.5 -9.5zM234 521q-13 0 -22.5 9.5t-9.5 22.5t9.5 22.5t22.5 9.5t22.5 -9.5t9.5 -22.5t-9.5 -22.5t-22.5 -9.5z" />
    <glyph glyph-name="divide" unicode="&#xf7;" horiz-adv-x="180" 
d="M96 197q-15 0 -27.5 12t-12.5 28q0 17 12 28.5t28 11.5t28 -11.5t12 -28.5q0 -16 -12 -28t-28 -12z" />
    <glyph glyph-name="oslash" unicode="&#xf8;" horiz-adv-x="517" 
d="M423 342q43 -56 43 -126q0 -93 -62.5 -158.5t-153.5 -65.5q-77 0 -133 51l-57 -55l-22 22l57 56q-44 55 -44 127q0 93 63.5 158.5t154.5 65.5q76 0 133 -52l56 55l21 -23zM120 91l257 250q-42 42 -108 42q-78 0 -128.5 -54.5t-50.5 -136.5q0 -57 30 -101zM398 318
l-257 -251q43 -41 109 -41q78 0 127.5 54.5t49.5 136.5q0 58 -29 101z" />
    <glyph glyph-name="ugrave" unicode="&#xf9;" horiz-adv-x="493" 
d="M201 -9q-70 0 -108 48t-24 129l42 240h38l-41 -233q-12 -69 13 -109t85 -40q63 0 104.5 38.5t54.5 109.5l42 234h38l-60 -339q-6 -35 20 -35h42l-6 -34h-44q-31 0 -43 24t-3 54l2 7q-54 -94 -152 -94zM261 497l-86 195h46l72 -195h-32z" />
    <glyph glyph-name="uacute" unicode="&#xfa;" horiz-adv-x="493" 
d="M201 -9q-70 0 -108 48t-24 129l42 240h38l-41 -233q-12 -69 13 -109t85 -40q63 0 104.5 38.5t54.5 109.5l42 234h38l-60 -339q-6 -35 20 -35h42l-6 -34h-44q-31 0 -43 24t-3 54l2 7q-54 -94 -152 -94zM267 497l106 195h49l-122 -195h-33z" />
    <glyph glyph-name="ucircumflex" unicode="&#xfb;" horiz-adv-x="493" 
d="M201 -9q-70 0 -108 48t-24 129l42 240h38l-41 -233q-12 -69 13 -109t85 -40q63 0 104.5 38.5t54.5 109.5l42 234h38l-60 -339q-6 -35 20 -35h42l-6 -34h-44q-31 0 -43 24t-3 54l2 7q-54 -94 -152 -94zM173 494l142 182h9l84 -182h-34l-62 125l-102 -125h-37z" />
    <glyph glyph-name="udieresis" unicode="&#xfc;" horiz-adv-x="493" 
d="M201 -9q-70 0 -108 48t-24 129l42 240h38l-41 -233q-12 -69 13 -109t85 -40q63 0 104.5 38.5t54.5 109.5l42 234h38l-60 -339q-6 -35 20 -35h42l-6 -34h-44q-31 0 -43 24t-3 54l2 7q-54 -94 -152 -94zM372 521q-13 0 -22.5 9.5t-9.5 22.5t9.5 22.5t22.5 9.5t22.5 -9.5
t9.5 -22.5t-9.5 -22.5t-22.5 -9.5zM220 521q-13 0 -22.5 9.5t-9.5 22.5t9.5 22.5t22.5 9.5t22.5 -9.5t9.5 -22.5t-9.5 -22.5t-22.5 -9.5z" />
    <glyph glyph-name="yacute" unicode="&#xfd;" horiz-adv-x="493" 
d="M180 -223q-118 0 -163 102l34 16q21 -42 50.5 -62.5t77.5 -20.5q60 0 99 38t52 110l20 114q-50 -83 -145 -83q-70 0 -108 48t-24 129l42 240h38l-41 -233q-12 -69 13 -109t85 -40q64 0 105 38.5t54 109.5l42 234h38l-80 -454q-16 -87 -64.5 -132t-124.5 -45zM279 497
l106 195h49l-122 -195h-33z" />
    <glyph glyph-name="thorn" unicode="&#xfe;" horiz-adv-x="532" 
d="M7 -212l164 934h38l-71 -403q28 47 72 72.5t94 25.5q80 0 129 -55t49 -142q0 -96 -61 -162t-148 -66q-62 0 -109 39t-59 95l-60 -338h-38zM267 26q78 0 127.5 56.5t49.5 141.5q0 70 -38.5 114.5t-102.5 44.5q-78 0 -130.5 -55t-52.5 -139q0 -70 40.5 -116.5t106.5 -46.5z
" />
    <glyph glyph-name="ydieresis" unicode="&#xff;" horiz-adv-x="493" 
d="M180 -223q-118 0 -163 102l34 16q21 -42 50.5 -62.5t77.5 -20.5q60 0 99 38t52 110l20 114q-50 -83 -145 -83q-70 0 -108 48t-24 129l42 240h38l-41 -233q-12 -69 13 -109t85 -40q64 0 105 38.5t54 109.5l42 234h38l-80 -454q-16 -87 -64.5 -132t-124.5 -45zM376 521
q-13 0 -22.5 9.5t-9.5 22.5t9.5 22.5t22.5 9.5t22.5 -9.5t9.5 -22.5t-9.5 -22.5t-22.5 -9.5zM224 521q-13 0 -22.5 9.5t-9.5 22.5t9.5 22.5t22.5 9.5t22.5 -9.5t9.5 -22.5t-9.5 -22.5t-22.5 -9.5z" />
    <glyph glyph-name="Amacron" unicode="&#x100;" horiz-adv-x="638" 
d="M321 768l6 34h194l-6 -34h-194zM122 132l-74 -132h-41l390 688h12l150 -688h-40l-28 132h-369zM484 167l-83 389l-9 62q-16 -38 -30 -62l-220 -389h342z" />
    <glyph glyph-name="amacron" unicode="&#x101;" horiz-adv-x="526" 
d="M204 510l6 34h194l-6 -34h-194zM223 -8q-78 0 -125.5 54t-47.5 143q0 97 60 162.5t146 65.5q59 0 104.5 -40t57.5 -103l20 134h38l-58 -339q-6 -35 20 -35h42l-6 -34h-44q-64 0 -46 78l4 17q-28 -48 -72 -75.5t-93 -27.5zM224 26q75 0 126.5 54.5t51.5 138.5
q0 70 -39.5 117t-103.5 47q-76 0 -123.5 -56t-47.5 -142q0 -70 37.5 -114.5t98.5 -44.5z" />
    <glyph glyph-name="Abreve" unicode="&#x102;" horiz-adv-x="638" 
d="M409 742q-48 0 -75.5 31t-31.5 75l35 6q6 -37 21.5 -57.5t50.5 -20.5q65 0 88 78l35 -7q-13 -45 -43.5 -75t-79.5 -30zM122 132l-74 -132h-41l390 688h12l150 -688h-40l-28 132h-369zM484 167l-83 389l-9 62q-16 -38 -30 -62l-220 -389h342z" />
    <glyph glyph-name="abreve" unicode="&#x103;" horiz-adv-x="526" 
d="M309 484q-48 0 -75.5 31t-31.5 75l35 6q6 -37 21.5 -57.5t50.5 -20.5q65 0 88 78l35 -7q-13 -45 -43.5 -75t-79.5 -30zM223 -8q-78 0 -125.5 54t-47.5 143q0 97 60 162.5t146 65.5q59 0 104.5 -40t57.5 -103l20 134h38l-58 -339q-6 -35 20 -35h42l-6 -34h-44
q-64 0 -46 78l4 17q-28 -48 -72 -75.5t-93 -27.5zM224 26q75 0 126.5 54.5t51.5 138.5q0 70 -39.5 117t-103.5 47q-76 0 -123.5 -56t-47.5 -142q0 -70 37.5 -114.5t98.5 -44.5z" />
    <glyph glyph-name="Aogonek" unicode="&#x104;" horiz-adv-x="638" 
d="M559 0l-40 -45q-21 -24 -30 -35.5t-17 -29.5t-8 -37q0 -21 14.5 -34.5t35.5 -13.5q35 0 59 39l29 -15q-27 -57 -90 -57q-35 0 -60.5 21.5t-25.5 59.5q0 53 63 116l30 30l-28 133h-369l-74 -132h-41l390 688h12zM484 167l-83 389l-9 62q-16 -38 -30 -62l-220 -389h342z
" />
    <glyph glyph-name="aogonek" unicode="&#x105;" horiz-adv-x="526" 
d="M418 1l-41 -46q-30 -33 -42.5 -54t-12.5 -48q0 -21 14.5 -34.5t35.5 -13.5q35 0 59 39l29 -15q-27 -57 -90 -57q-35 0 -60.5 21.5t-25.5 59.5q0 53 63 116l46 45q-19 23 -9 64l4 17q-28 -48 -72 -75.5t-93 -27.5q-78 0 -125.5 54t-47.5 143q0 97 60 162.5t146 65.5
q59 0 104.5 -40t57.5 -103l20 134h38l-58 -339q-6 -35 20 -35h42l-6 -34h-44q-8 0 -12 1zM224 26q75 0 126.5 54.5t51.5 138.5q0 70 -39.5 117t-103.5 47q-76 0 -123.5 -56t-47.5 -142q0 -70 37.5 -114.5t98.5 -44.5z" />
    <glyph glyph-name="Cacute" unicode="&#x106;" horiz-adv-x="715" 
d="M427 755l106 195h49l-122 -195h-33zM392 -8q-139 0 -229.5 91.5t-90.5 233.5q0 159 105.5 265t259.5 106q85 0 152 -34t105 -95l-30 -21q-79 115 -228 115q-136 0 -229.5 -96t-93.5 -237q0 -127 78 -210t202 -83q144 0 243 110l28 -23q-108 -122 -272 -122z" />
    <glyph glyph-name="cacute" unicode="&#x107;" horiz-adv-x="455" 
d="M266 497l106 195h49l-122 -195h-33zM246 -8q-83 0 -139 58.5t-56 142.5q0 94 62.5 159t156.5 65t149 -69l-27 -23q-45 58 -122 58q-80 0 -130 -54t-50 -137q0 -70 44 -118t112 -48q75 0 123 45l24 -25q-62 -54 -147 -54z" />
    <glyph glyph-name="Ccircumflex" unicode="&#x108;" horiz-adv-x="715" 
d="M329 752l142 182h9l84 -182h-34l-62 125l-102 -125h-37zM392 -8q-139 0 -229.5 91.5t-90.5 233.5q0 159 105.5 265t259.5 106q85 0 152 -34t105 -95l-30 -21q-79 115 -228 115q-136 0 -229.5 -96t-93.5 -237q0 -127 78 -210t202 -83q144 0 243 110l28 -23
q-108 -122 -272 -122z" />
    <glyph glyph-name="ccircumflex" unicode="&#x109;" horiz-adv-x="455" 
d="M173 494l142 182h9l84 -182h-34l-62 125l-102 -125h-37zM246 -8q-83 0 -139 58.5t-56 142.5q0 94 62.5 159t156.5 65t149 -69l-27 -23q-45 58 -122 58q-80 0 -130 -54t-50 -137q0 -70 44 -118t112 -48q75 0 123 45l24 -25q-62 -54 -147 -54z" />
    <glyph glyph-name="Ccaron" unicode="&#x10c;" horiz-adv-x="715" 
d="M444 749l-84 182h34l62 -125l102 125h37l-142 -182h-9zM392 -8q-139 0 -229.5 91.5t-90.5 233.5q0 159 105.5 265t259.5 106q85 0 152 -34t105 -95l-30 -21q-79 115 -228 115q-136 0 -229.5 -96t-93.5 -237q0 -127 78 -210t202 -83q144 0 243 110l28 -23
q-108 -122 -272 -122z" />
    <glyph glyph-name="ccaron" unicode="&#x10d;" horiz-adv-x="455" 
d="M284 491l-84 182h34l62 -125l102 125h37l-142 -182h-9zM246 -8q-83 0 -139 58.5t-56 142.5q0 94 62.5 159t156.5 65t149 -69l-27 -23q-45 58 -122 58q-80 0 -130 -54t-50 -137q0 -70 44 -118t112 -48q75 0 123 45l24 -25q-62 -54 -147 -54z" />
    <glyph glyph-name="Dcaron" unicode="&#x10e;" horiz-adv-x="656" 
d="M375 749l-84 182h34l62 -125l102 125h37l-142 -182h-9zM64 0l120 680h143q149 0 229 -81.5t80 -214.5q0 -172 -107.5 -278t-292.5 -106h-172zM110 35h119q178 0 271.5 95.5t93.5 253.5q0 119 -67.5 190t-202.5 71h-106z" />
    <glyph glyph-name="dcaron" unicode="&#x10f;" horiz-adv-x="623" 
d="M592 511l48 103q-23 6 -23 35q0 16 12 27t27 11q17 0 27.5 -10t10.5 -27q0 -14 -10 -31l-67 -108h-25zM227 -8q-81 0 -129 55.5t-48 141.5q0 97 61.5 162.5t149.5 65.5q60 0 106.5 -39.5t58.5 -95.5l79 440h38l-116 -653q-3 -18 1 -26.5t19 -8.5h42l-6 -34h-44
q-64 0 -46 78l4 17q-27 -48 -73.5 -75.5t-96.5 -27.5zM228 26q78 0 130.5 54.5t53.5 138.5q1 70 -40.5 117t-107.5 47q-79 0 -127.5 -56t-48.5 -142q0 -71 38 -115t102 -44z" />
    <glyph glyph-name="Dcroat" unicode="&#x110;" horiz-adv-x="656" 
d="M107 245h-87l6 35h87l71 400h143q145 0 227 -83t82 -213q0 -172 -107.5 -278t-292.5 -106h-172zM153 280h195l-6 -35h-195l-37 -210h119q178 0 271.5 95.5t93.5 253.5q0 119 -67.5 190t-202.5 71h-106z" />
    <glyph glyph-name="dcroat" unicode="&#x111;" horiz-adv-x="541" 
d="M474 547h-151l5 33h151l26 142h38l-26 -142h81l-5 -33h-81l-85 -478q-3 -18 1 -26.5t19 -8.5h42l-6 -34h-44q-64 0 -46 78l4 17q-27 -48 -73.5 -75.5t-96.5 -27.5q-81 0 -129 55.5t-48 141.5q0 97 61.5 162.5t149.5 65.5q60 0 106.5 -39.5t58.5 -95.5zM228 26
q78 0 130.5 54.5t53.5 138.5q1 70 -40.5 117t-107.5 47q-79 0 -127.5 -56t-48.5 -142q0 -71 38 -115t102 -44z" />
    <glyph glyph-name="Emacron" unicode="&#x112;" horiz-adv-x="562" 
d="M296 768l6 34h194l-6 -34h-194zM64 0l120 680h389l-6 -35h-350l-64 -365h313l-6 -35h-313l-37 -210h363l-6 -35h-403z" />
    <glyph glyph-name="emacron" unicode="&#x113;" horiz-adv-x="492" 
d="M192 510l6 34h194l-6 -34h-194zM90 178q5 -66 49 -109t110 -43q91 0 143 59l25 -22q-63 -71 -168 -71q-85 0 -141.5 57t-56.5 144q0 93 60.5 158.5t147.5 65.5t135 -57.5t47 -144.5zM91 210l312 33q-5 59 -41 100t-104 41q-69 0 -115.5 -49.5t-51.5 -124.5z" />
    <glyph glyph-name="Edotaccent" unicode="&#x116;" horiz-adv-x="562" 
d="M395 778q-13 0 -23 9.5t-10 23.5t10 23.5t23 9.5t23 -9.5t10 -23.5t-10 -23.5t-23 -9.5zM64 0l120 680h389l-6 -35h-350l-64 -365h313l-6 -35h-313l-37 -210h363l-6 -35h-403z" />
    <glyph glyph-name="edotaccent" unicode="&#x117;" horiz-adv-x="492" 
d="M296 520q-13 0 -23 9.5t-10 23.5t10 23.5t23 9.5t23 -9.5t10 -23.5t-10 -23.5t-23 -9.5zM90 178q5 -66 49 -109t110 -43q91 0 143 59l25 -22q-63 -71 -168 -71q-85 0 -141.5 57t-56.5 144q0 93 60.5 158.5t147.5 65.5t135 -57.5t47 -144.5zM91 210l312 33q-5 59 -41 100
t-104 41q-69 0 -115.5 -49.5t-51.5 -124.5z" />
    <glyph glyph-name="Eogonek" unicode="&#x118;" horiz-adv-x="562" 
d="M385 0h-321l120 680h389l-6 -35h-350l-64 -365h313l-6 -35h-313l-37 -210h363l-6 -35h-43l-40 -45q-21 -24 -30 -35.5t-17 -29.5t-8 -37q0 -21 14.5 -34.5t35.5 -13.5q35 0 59 39l29 -15q-27 -57 -90 -57q-35 0 -60.5 21.5t-25.5 59.5q0 53 63 116z" />
    <glyph glyph-name="eogonek" unicode="&#x119;" horiz-adv-x="492" 
d="M249 -8l-33 -37q-21 -24 -30 -35.5t-17 -29.5t-8 -37q0 -21 14.5 -34.5t35.5 -13.5q35 0 59 39l29 -15q-27 -57 -90 -57q-35 0 -60.5 21.5t-25.5 59.5q0 53 63 116l26 26q-71 12 -116 66.5t-45 131.5q0 93 60.5 158.5t147.5 65.5t135 -57.5t47 -144.5l-351 -37
q5 -66 49 -109t110 -43q91 0 143 59l25 -22q-63 -71 -168 -71zM91 210l312 33q-5 59 -41 100t-104 41q-69 0 -115.5 -49.5t-51.5 -124.5z" />
    <glyph glyph-name="Ecaron" unicode="&#x11a;" horiz-adv-x="562" 
d="M375 749l-84 182h34l62 -125l102 125h37l-142 -182h-9zM64 0l120 680h389l-6 -35h-350l-64 -365h313l-6 -35h-313l-37 -210h363l-6 -35h-403z" />
    <glyph glyph-name="ecaron" unicode="&#x11b;" horiz-adv-x="492" 
d="M281 491l-84 182h34l62 -125l102 125h37l-142 -182h-9zM90 178q5 -66 49 -109t110 -43q91 0 143 59l25 -22q-63 -71 -168 -71q-85 0 -141.5 57t-56.5 144q0 93 60.5 158.5t147.5 65.5t135 -57.5t47 -144.5zM91 210l312 33q-5 59 -41 100t-104 41q-69 0 -115.5 -49.5
t-51.5 -124.5z" />
    <glyph glyph-name="Gcircumflex" unicode="&#x11c;" horiz-adv-x="729" 
d="M330 752l142 182h9l84 -182h-34l-62 125l-102 -125h-37zM403 -8q-142 0 -235 89.5t-93 233.5q0 160 106.5 266.5t256.5 106.5q158 0 240 -101l-30 -24q-38 48 -88 69t-123 21q-136 0 -228.5 -98t-92.5 -238q0 -129 80 -209.5t206 -80.5q119 0 202 58l32 183h-215l6 35
h254l-41 -237q-96 -74 -237 -74z" />
    <glyph glyph-name="gcircumflex" unicode="&#x11d;" horiz-adv-x="530" 
d="M201 -223q-68 0 -116.5 32t-71.5 87l33 16q49 -100 154 -100q137 0 169 158l24 119q-28 -46 -72 -71.5t-94 -25.5q-81 0 -129 55.5t-48 141.5q0 97 61.5 162.5t149.5 65.5q62 0 108.5 -40t58.5 -103l20 134h38l-78 -440q-35 -191 -207 -191zM228 26q78 0 130.5 54.5
t53.5 138.5q1 70 -40.5 117t-107.5 47q-79 0 -127.5 -56t-48.5 -142q0 -71 38 -115t102 -44zM165 494l142 182h9l84 -182h-34l-62 125l-102 -125h-37z" />
    <glyph glyph-name="Gbreve" unicode="&#x11e;" horiz-adv-x="729" 
d="M448 742q-48 0 -75.5 31t-31.5 75l35 6q6 -37 21.5 -57.5t50.5 -20.5q65 0 88 78l35 -7q-13 -45 -43.5 -75t-79.5 -30zM403 -8q-142 0 -235 89.5t-93 233.5q0 160 106.5 266.5t256.5 106.5q158 0 240 -101l-30 -24q-38 48 -88 69t-123 21q-136 0 -228.5 -98t-92.5 -238
q0 -129 80 -209.5t206 -80.5q119 0 202 58l32 183h-215l6 35h254l-41 -237q-96 -74 -237 -74z" />
    <glyph glyph-name="gbreve" unicode="&#x11f;" horiz-adv-x="530" 
d="M201 -223q-68 0 -116.5 32t-71.5 87l33 16q49 -100 154 -100q137 0 169 158l24 119q-28 -46 -72 -71.5t-94 -25.5q-81 0 -129 55.5t-48 141.5q0 97 61.5 162.5t149.5 65.5q62 0 108.5 -40t58.5 -103l20 134h38l-78 -440q-35 -191 -207 -191zM228 26q78 0 130.5 54.5
t53.5 138.5q1 70 -40.5 117t-107.5 47q-79 0 -127.5 -56t-48.5 -142q0 -71 38 -115t102 -44zM313 497q-48 0 -75.5 31t-31.5 75l35 6q6 -37 21.5 -57.5t50.5 -20.5q65 0 88 78l35 -7q-13 -45 -43.5 -75t-79.5 -30z" />
    <glyph glyph-name="Gcommaaccent" unicode="&#x122;" horiz-adv-x="729" 
d="M403 -8q-142 0 -235 89.5t-93 233.5q0 160 106.5 266.5t256.5 106.5q158 0 240 -101l-30 -24q-38 48 -88 69t-123 21q-136 0 -228.5 -98t-92.5 -238q0 -129 80 -209.5t206 -80.5q119 0 202 58l32 183h-215l6 35h254l-41 -237q-96 -74 -237 -74zM282 -243l48 103
q-23 6 -23 35q0 16 12 27t27 11q17 0 27.5 -10t10.5 -27q0 -14 -10 -31l-67 -108h-25z" />
    <glyph glyph-name="gcommaaccent" unicode="&#x123;" horiz-adv-x="530" 
d="M375 680l-48 -103q23 -6 23 -35q0 -16 -12 -27t-27 -11q-17 0 -27.5 10t-10.5 27q0 14 10 31l67 108h25zM201 -223q-68 0 -116.5 32t-71.5 87l33 16q49 -100 154 -100q137 0 169 158l24 119q-28 -46 -72 -71.5t-94 -25.5q-81 0 -129 55.5t-48 141.5q0 97 61.5 162.5
t149.5 65.5q62 0 108.5 -40t58.5 -103l20 134h38l-78 -440q-35 -191 -207 -191zM228 26q78 0 130.5 54.5t53.5 138.5q1 70 -40.5 117t-107.5 47q-79 0 -127.5 -56t-48.5 -142q0 -71 38 -115t102 -44z" />
    <glyph glyph-name="Hcircumflex" unicode="&#x124;" horiz-adv-x="668" 
d="M312 752l142 182h9l84 -182h-34l-62 125l-102 -125h-37zM541 280l71 400h40l-120 -680h-40l43 245h-388l-43 -245h-40l120 680h40l-71 -400h388z" />
    <glyph glyph-name="hcircumflex" unicode="&#x125;" horiz-adv-x="503" 
d="M206 752l142 182h9l84 -182h-34l-62 125l-102 -125h-37zM54 0l127 722h38l-69 -392q53 87 148 87q70 0 108 -48t24 -129l-30 -171q-6 -35 20 -35h42l-6 -34h-44q-62 0 -48 78l27 155q12 69 -13 109t-85 40q-64 0 -105.5 -38.5t-54.5 -109.5l-41 -234h-38z" />
    <glyph glyph-name="Imacron" unicode="&#x12a;" horiz-adv-x="250" 
d="M127 768l6 34h194l-6 -34h-194zM69 0l120 680h40l-120 -680h-40z" />
    <glyph glyph-name="imacron" unicode="&#x12b;" horiz-adv-x="208" 
d="M55 510l6 34h194l-6 -34h-194zM109 0q-62 0 -48 78l58 330h38l-60 -339q-6 -35 20 -35h46l-6 -34h-48z" />
    <glyph glyph-name="Iogonek" unicode="&#x12e;" horiz-adv-x="250" 
d="M109 0l-40 -45q-21 -24 -30 -35.5t-17 -29.5t-8 -37q0 -21 14.5 -34.5t35.5 -13.5q35 0 59 39l29 -15q-27 -57 -90 -57q-35 0 -60.5 21.5t-25.5 59.5q0 53 63 116l30 30l120 681h40z" />
    <glyph glyph-name="iogonek" unicode="&#x12f;" horiz-adv-x="220" 
d="M173 551q-13 0 -23 9.5t-10 23.5t10 23.5t23 9.5q12 0 22 -9.5t10 -23.5t-9.5 -23.5t-22.5 -9.5zM79 12q-22 19 -14 66l58 330h38l-60 -339q-6 -35 20 -35h46l-6 -34h-54l-40 -45q-21 -24 -30 -35.5t-17 -29.5t-8 -37q0 -21 14.5 -34.5t35.5 -13.5q35 0 59 39l29 -15
q-27 -57 -90 -57q-35 0 -60.5 21.5t-25.5 59.5q0 51 63 116z" />
    <glyph glyph-name="Idotaccent" unicode="&#x130;" horiz-adv-x="250" 
d="M232 778q-13 0 -23 9.5t-10 23.5t10 23.5t23 9.5t23 -9.5t10 -23.5t-10 -23.5t-23 -9.5zM69 0l120 680h40l-120 -680h-40z" />
    <glyph glyph-name="dotlessi" unicode="&#x131;" horiz-adv-x="208" 
d="M109 0q-62 0 -48 78l58 330h38l-60 -339q-6 -35 20 -35h46l-6 -34h-48z" />
    <glyph glyph-name="Jcircumflex" unicode="&#x134;" horiz-adv-x="440" 
d="M303 752l142 182h9l84 -182h-34l-62 125l-102 -125h-37zM166 -8q-57 0 -96.5 26.5t-58.5 66.5l34 19q40 -75 122 -75q109 0 129 116l94 535h40l-95 -541q-12 -71 -55 -109t-114 -38z" />
    <glyph glyph-name="jcircumflex" unicode="&#x135;" horiz-adv-x="208" 
d="M36 494l142 182h9l84 -182h-34l-62 125l-102 -125h-37zM-28 -222q-53 0 -78 36l26 22q19 -26 50 -26q26 0 39 15t20 52l94 531h38l-94 -533q-17 -97 -95 -97z" />
    <glyph glyph-name="Kcommaaccent" unicode="&#x136;" horiz-adv-x="571" 
d="M148 271q26 34 45 53l352 356h50l-326 -329l230 -351h-46l-213 326l-96 -94l-40 -232h-40l120 680h40l-61 -344q-2 -14 -8 -38t-7 -27zM179 -243l48 103q-23 6 -23 35q0 16 12 27t27 11q17 0 27.5 -10t10.5 -27q0 -14 -10 -31l-67 -108h-25z" />
    <glyph glyph-name="kcommaaccent" unicode="&#x137;" horiz-adv-x="449" 
d="M115 130l-23 -130h-38l127 722h38l-89 -508q-2 -16 -9 -39l257 233h49l-190 -173l113 -181q12 -20 36 -20h24l-6 -34h-20q-42 0 -63 33l-114 179zM123 -243l48 103q-23 6 -23 35q0 16 12 27t27 11q17 0 27.5 -10t10.5 -27q0 -14 -10 -31l-67 -108h-25z" />
    <glyph glyph-name="Lacute" unicode="&#x139;" 
d="M201 755l106 195h49l-122 -195h-33zM64 0l120 680h40l-114 -644h321l-6 -36h-361z" />
    <glyph glyph-name="lacute" unicode="&#x13a;" horiz-adv-x="224" 
d="M197 775l106 195h49l-122 -195h-33zM121 0q-62 0 -48 78l114 644h39l-117 -653q-6 -35 20 -35h49l-6 -34h-51z" />
    <glyph glyph-name="Lcommaaccent" unicode="&#x13b;" 
d="M64 0l120 680h40l-114 -644h321l-6 -36h-361zM171 -243l48 103q-23 6 -23 35q0 16 12 27t27 11q17 0 27.5 -10t10.5 -27q0 -14 -10 -31l-67 -108h-25z" />
    <glyph glyph-name="lcommaaccent" unicode="&#x13c;" horiz-adv-x="224" 
d="M121 0q-62 0 -48 78l114 644h39l-117 -653q-6 -35 20 -35h49l-6 -34h-51zM17 -243l48 103q-23 6 -23 35q0 16 12 27t27 11q17 0 27.5 -10t10.5 -27q0 -14 -10 -31l-67 -108h-25z" />
    <glyph glyph-name="Lcaron" unicode="&#x13d;" 
d="M358 511l48 103q-23 6 -23 35q0 16 12 27t27 11q17 0 27.5 -10t10.5 -27q0 -14 -10 -31l-67 -108h-25zM64 0l120 680h40l-114 -644h321l-6 -36h-361z" />
    <glyph glyph-name="lcaron" unicode="&#x13e;" horiz-adv-x="289" 
d="M258 511l48 103q-23 6 -23 35q0 16 12 27t27 11q17 0 27.5 -10t10.5 -27q0 -14 -10 -31l-67 -108h-25zM121 0q-62 0 -48 78l114 644h39l-117 -653q-6 -35 20 -35h49l-6 -34h-51z" />
    <glyph glyph-name="Lslash" unicode="&#x141;" horiz-adv-x="503" 
d="M144 228l-34 -192h321l-6 -36h-361l37 210l-83 -33l7 41l83 33l76 429h40l-73 -412l208 84l-7 -41z" />
    <glyph glyph-name="lslash" unicode="&#x142;" horiz-adv-x="264" 
d="M163 287l-39 -218q-6 -35 20 -35h49l-6 -34h-51q-62 0 -48 78l33 185l-97 -55l7 42l97 55l74 417h39l-71 -393l110 62l-7 -42z" />
    <glyph glyph-name="Nacute" unicode="&#x143;" horiz-adv-x="703" 
d="M429 755l106 195h49l-122 -195h-33zM554 -8l-326 566l-24 48q-1 -33 -5 -54l-97 -552h-38l121 688h11l327 -566l22 -48q2 28 6 52l98 554h38l-121 -688h-12z" />
    <glyph glyph-name="nacute" unicode="&#x144;" horiz-adv-x="489" 
d="M269 497l106 195h49l-122 -195h-33zM44 0l72 408h38l-18 -85q23 43 62.5 68.5t89.5 25.5q70 0 108.5 -48t23.5 -129l-30 -171q-6 -35 20 -35h42l-6 -34h-44q-62 0 -48 78l27 155q12 69 -13 109t-85 40q-64 0 -105.5 -38.5t-54.5 -109.5l-41 -234h-38z" />
    <glyph glyph-name="Ncommaaccent" unicode="&#x145;" horiz-adv-x="703" 
d="M554 -8l-326 566l-24 48q-1 -33 -5 -54l-97 -552h-38l121 688h11l327 -566l22 -48q2 28 6 52l98 554h38l-121 -688h-12zM235 -243l48 103q-23 6 -23 35q0 16 12 27t27 11q17 0 27.5 -10t10.5 -27q0 -14 -10 -31l-67 -108h-25z" />
    <glyph glyph-name="ncommaaccent" unicode="&#x146;" horiz-adv-x="489" 
d="M44 0l72 408h38l-18 -85q23 43 62.5 68.5t89.5 25.5q70 0 108.5 -48t23.5 -129l-30 -171q-6 -35 20 -35h42l-6 -34h-44q-62 0 -48 78l27 155q12 69 -13 109t-85 40q-64 0 -105.5 -38.5t-54.5 -109.5l-41 -234h-38zM145 -243l48 103q-23 6 -23 35q0 16 12 27t27 11
q17 0 27.5 -10t10.5 -27q0 -14 -10 -31l-67 -108h-25z" />
    <glyph glyph-name="Ncaron" unicode="&#x147;" horiz-adv-x="703" 
d="M439 749l-84 182h34l62 -125l102 125h37l-142 -182h-9zM554 -8l-326 566l-24 48q-1 -33 -5 -54l-97 -552h-38l121 688h11l327 -566l22 -48q2 28 6 52l98 554h38l-121 -688h-12z" />
    <glyph glyph-name="ncaron" unicode="&#x148;" horiz-adv-x="489" 
d="M281 491l-84 182h34l62 -125l102 125h37l-142 -182h-9zM44 0l72 408h38l-18 -85q23 43 62.5 68.5t89.5 25.5q70 0 108.5 -48t23.5 -129l-30 -171q-6 -35 20 -35h42l-6 -34h-44q-62 0 -48 78l27 155q12 69 -13 109t-85 40q-64 0 -105.5 -38.5t-54.5 -109.5l-41 -234h-38z
" />
    <glyph glyph-name="Omacron" unicode="&#x14c;" horiz-adv-x="786" 
d="M376 768l6 34h194l-6 -34h-194zM394 -8q-137 0 -228 90t-91 232q0 160 105.5 267t258.5 107q137 0 228.5 -89t91.5 -230q0 -161 -106 -269t-259 -108zM395 28q137 0 230 98.5t93 242.5q0 124 -77.5 203.5t-201.5 79.5q-137 0 -230 -97t-93 -240q0 -125 77 -206t202 -81z
" />
    <glyph glyph-name="omacron" unicode="&#x14d;" horiz-adv-x="517" 
d="M205 510l6 34h194l-6 -34h-194zM250 -8q-83 0 -141 59t-58 142q0 93 63.5 158.5t154.5 65.5q83 0 140 -59t57 -142q0 -93 -62.5 -158.5t-153.5 -65.5zM250 26q78 0 127.5 54.5t49.5 136.5q0 72 -44 119t-114 47q-78 0 -128.5 -54.5t-50.5 -136.5q0 -71 45 -118.5
t115 -47.5z" />
    <glyph glyph-name="Ohungarumlaut" unicode="&#x150;" horiz-adv-x="786" 
d="M503 755l107 195h48l-122 -195h-33zM386 755l107 195h48l-122 -195h-33zM394 -8q-137 0 -228 90t-91 232q0 160 105.5 267t258.5 107q137 0 228.5 -89t91.5 -230q0 -161 -106 -269t-259 -108zM395 28q137 0 230 98.5t93 242.5q0 124 -77.5 203.5t-201.5 79.5
q-137 0 -230 -97t-93 -240q0 -125 77 -206t202 -81z" />
    <glyph glyph-name="ohungarumlaut" unicode="&#x151;" horiz-adv-x="517" 
d="M333 497l107 195h48l-122 -195h-33zM216 497l107 195h48l-122 -195h-33zM250 -8q-83 0 -141 59t-58 142q0 93 63.5 158.5t154.5 65.5q83 0 140 -59t57 -142q0 -93 -62.5 -158.5t-153.5 -65.5zM250 26q78 0 127.5 54.5t49.5 136.5q0 72 -44 119t-114 47
q-78 0 -128.5 -54.5t-50.5 -136.5q0 -71 45 -118.5t115 -47.5z" />
    <glyph glyph-name="OE" unicode="&#x152;" horiz-adv-x="978" 
d="M377 0q-147 0 -228 80.5t-81 215.5q0 176 106.5 280t293.5 104h521l-7 -36h-349l-64 -364h313l-6 -36h-313l-37 -208h363l-6 -36h-506zM380 35h106l108 610h-119q-178 0 -271.5 -95.5t-93.5 -253.5q0 -119 67.5 -190t202.5 -71z" />
    <glyph glyph-name="oe" unicode="&#x153;" horiz-adv-x="868" 
d="M443 127q-22 -61 -73.5 -98t-119.5 -37q-83 0 -141 59t-58 142q0 93 63.5 158.5t154.5 65.5q67 0 114.5 -37.5t66.5 -98.5q22 61 72 98.5t113 37.5q87 0 135 -57.5t47 -144.5l-351 -37q5 -66 49 -109t110 -43q91 0 143 59l25 -22q-63 -71 -168 -71q-66 0 -115 37t-67 98z
M467 210l312 33q-5 59 -41 100t-104 41q-69 0 -115.5 -49.5t-51.5 -124.5zM250 26q78 0 127.5 54.5t49.5 136.5q0 72 -44 119t-114 47q-78 0 -128.5 -54.5t-50.5 -136.5q0 -71 45 -118.5t115 -47.5z" />
    <glyph glyph-name="Racute" unicode="&#x154;" horiz-adv-x="565" 
d="M327 755l106 195h49l-122 -195h-33zM359 199l106 -199h-44l-101 190q-35 -5 -67 -5h-120l-33 -185h-40l120 680h127q113 0 173.5 -62t59.5 -158t-46.5 -165.5t-134.5 -95.5zM139 220h113q129 0 187.5 65t59.5 175q1 84 -48 134.5t-147 50.5h-90z" />
    <glyph glyph-name="racute" unicode="&#x155;" horiz-adv-x="307" 
d="M200 497l106 195h49l-122 -195h-33zM44 0l72 408h38l-21 -92q46 100 128 100q27 0 49 -11l-16 -33q-18 8 -35 8q-53 0 -89 -41.5t-48 -110.5l-40 -228h-38z" />
    <glyph glyph-name="Rcommaaccent" unicode="&#x156;" horiz-adv-x="565" 
d="M359 199l106 -199h-44l-101 190q-35 -5 -67 -5h-120l-33 -185h-40l120 680h127q113 0 173.5 -62t59.5 -158t-46.5 -165.5t-134.5 -95.5zM163 -243l48 103q-23 6 -23 35q0 16 12 27t27 11q17 0 27.5 -10t10.5 -27q0 -14 -10 -31l-67 -108h-25zM139 220h113q129 0 187.5 65
t59.5 175q1 84 -48 134.5t-147 50.5h-90z" />
    <glyph glyph-name="rcommaaccent" unicode="&#x157;" horiz-adv-x="307" 
d="M44 0l72 408h38l-21 -92q46 100 128 100q27 0 49 -11l-16 -33q-18 8 -35 8q-53 0 -89 -41.5t-48 -110.5l-40 -228h-38zM-15 -243l48 103q-23 6 -23 35q0 16 12 27t27 11q17 0 27.5 -10t10.5 -27q0 -14 -10 -31l-67 -108h-25z" />
    <glyph glyph-name="Rcaron" unicode="&#x158;" horiz-adv-x="565" 
d="M342 749l-84 182h34l62 -125l102 125h37l-142 -182h-9zM359 199l106 -199h-44l-101 190q-35 -5 -67 -5h-120l-33 -185h-40l120 680h127q113 0 173.5 -62t59.5 -158t-46.5 -165.5t-134.5 -95.5zM139 220h113q129 0 187.5 65t59.5 175q1 84 -48 134.5t-147 50.5h-90z" />
    <glyph glyph-name="rcaron" unicode="&#x159;" horiz-adv-x="307" 
d="M215 491l-84 182h34l62 -125l102 125h37l-142 -182h-9zM44 0l72 408h38l-21 -92q46 100 128 100q27 0 49 -11l-16 -33q-18 8 -35 8q-53 0 -89 -41.5t-48 -110.5l-40 -228h-38z" />
    <glyph glyph-name="Sacute" unicode="&#x15a;" horiz-adv-x="524" 
d="M306 755l106 195h49l-122 -195h-33zM239 -8q-79 0 -134 38t-85 95l33 19q66 -117 186 -117q82 0 125 43t43 114q0 46 -23.5 76t-78.5 65l-54 34q-116 74 -116 170q0 74 48 116.5t112 42.5q105 0 161 -93l-30 -21q-25 40 -55 59.5t-77 19.5q-50 0 -84.5 -32.5t-34.5 -89.5
q0 -44 21.5 -74t71.5 -62l54 -34q66 -42 95.5 -82.5t29.5 -99.5q0 -83 -55.5 -135t-152.5 -52z" />
    <glyph glyph-name="sacute" unicode="&#x15b;" horiz-adv-x="397" 
d="M210 497l106 195h49l-122 -195h-33zM186 -8q-59 0 -101 26t-63 67l32 18q45 -77 133 -77q48 0 74 21t26 59q0 30 -21 48t-75 47q-53 28 -79 53.5t-26 65.5q0 46 34 71.5t85 25.5q82 0 125 -62l-27 -21q-37 50 -99 50q-36 0 -58.5 -16t-22.5 -46q0 -28 19.5 -46.5
t66.5 -42.5q29 -15 43 -23.5t35 -25t30 -36t9 -42.5q0 -52 -36.5 -83t-103.5 -31z" />
    <glyph glyph-name="Scircumflex" unicode="&#x15c;" horiz-adv-x="524" 
d="M206 752l142 182h9l84 -182h-34l-62 125l-102 -125h-37zM239 -8q-79 0 -134 38t-85 95l33 19q66 -117 186 -117q82 0 125 43t43 114q0 46 -23.5 76t-78.5 65l-54 34q-116 74 -116 170q0 74 48 116.5t112 42.5q105 0 161 -93l-30 -21q-25 40 -55 59.5t-77 19.5
q-50 0 -84.5 -32.5t-34.5 -89.5q0 -44 21.5 -74t71.5 -62l54 -34q66 -42 95.5 -82.5t29.5 -99.5q0 -83 -55.5 -135t-152.5 -52z" />
    <glyph glyph-name="scircumflex" unicode="&#x15d;" horiz-adv-x="397" 
d="M117 494l142 182h9l84 -182h-34l-62 125l-102 -125h-37zM186 -8q-59 0 -101 26t-63 67l32 18q45 -77 133 -77q48 0 74 21t26 59q0 30 -21 48t-75 47q-53 28 -79 53.5t-26 65.5q0 46 34 71.5t85 25.5q82 0 125 -62l-27 -21q-37 50 -99 50q-36 0 -58.5 -16t-22.5 -46
q0 -28 19.5 -46.5t66.5 -42.5q29 -15 43 -23.5t35 -25t30 -36t9 -42.5q0 -52 -36.5 -83t-103.5 -31z" />
    <glyph glyph-name="Scedilla" unicode="&#x15e;" horiz-adv-x="524" 
d="M217 -228q-34 0 -59 17.5t-35 41.5l30 17q19 -43 63 -43q24 0 39.5 15t15.5 38q0 24 -14.5 39.5t-43.5 15.5h-14l14 80q-131 12 -193 132l33 19q66 -117 186 -117q82 0 125 43t43 114q0 46 -23.5 76t-78.5 65l-54 34q-116 74 -116 170q0 74 48 116.5t112 42.5
q105 0 161 -93l-30 -21q-25 40 -55 59.5t-77 19.5q-50 0 -84.5 -32.5t-34.5 -89.5q0 -44 21.5 -74t71.5 -62l54 -34q66 -42 95.5 -82.5t29.5 -99.5q0 -81 -53.5 -133t-147.5 -54l-8 -51q29 -4 49.5 -27.5t20.5 -56.5q0 -39 -26.5 -62t-64.5 -23z" />
    <glyph glyph-name="scedilla" unicode="&#x15f;" horiz-adv-x="397" 
d="M163 -228q-34 0 -59 17.5t-35 41.5l30 17q19 -43 63 -43q24 0 39.5 15t15.5 38q0 24 -14.5 39.5t-43.5 15.5h-14l14 81q-96 10 -137 91l32 18q45 -77 133 -77q48 0 74 21t26 59q0 30 -21 48t-75 47q-53 28 -79 53.5t-26 65.5q0 46 34 71.5t85 25.5q82 0 125 -62l-27 -21
q-37 50 -99 50q-36 0 -58.5 -16t-22.5 -46q0 -28 19.5 -46.5t66.5 -42.5q29 -15 43 -23.5t35 -25t30 -36t9 -42.5q0 -51 -34.5 -82t-99.5 -32l-8 -51q29 -4 49.5 -27.5t20.5 -56.5q0 -39 -26.5 -62t-64.5 -23z" />
    <glyph glyph-name="Scaron" unicode="&#x160;" horiz-adv-x="524" 
d="M239 -8q-79 0 -134 38t-85 95l33 19q66 -117 186 -117q82 0 125 43t43 114q0 46 -23.5 76t-78.5 65l-54 34q-116 74 -116 170q0 74 48 116.5t112 42.5q105 0 161 -93l-30 -21q-25 40 -55 59.5t-77 19.5q-50 0 -84.5 -32.5t-34.5 -89.5q0 -44 21.5 -74t71.5 -62l54 -34
q66 -42 95.5 -82.5t29.5 -99.5q0 -83 -55.5 -135t-152.5 -52zM327 749l-84 182h34l62 -125l102 125h37l-142 -182h-9z" />
    <glyph glyph-name="scaron" unicode="&#x161;" horiz-adv-x="397" 
d="M186 -8q-59 0 -101 26t-63 67l32 18q45 -77 133 -77q48 0 74 21t26 59q0 30 -21 48t-75 47q-53 28 -79 53.5t-26 65.5q0 46 34 71.5t85 25.5q82 0 125 -62l-27 -21q-37 50 -99 50q-36 0 -58.5 -16t-22.5 -46q0 -28 19.5 -46.5t66.5 -42.5q29 -15 43 -23.5t35 -25t30 -36
t9 -42.5q0 -52 -36.5 -83t-103.5 -31zM230 491l-84 182h34l62 -125l102 125h37l-142 -182h-9z" />
    <glyph glyph-name="Tcommaaccent" unicode="&#x162;" horiz-adv-x="527" 
d="M208 0l114 646h-212l6 34h463l-6 -34h-211l-114 -646h-40zM147 -243l48 103q-23 6 -23 35q0 16 12 27t27 11q17 0 27.5 -10t10.5 -27q0 -14 -10 -31l-67 -108h-25z" />
    <glyph glyph-name="Tcommaaccent" unicode="&#x21a;" horiz-adv-x="527" 
d="M208 0l114 646h-212l6 34h463l-6 -34h-211l-114 -646h-40zM147 -243l48 103q-23 6 -23 35q0 16 12 27t27 11q17 0 27.5 -10t10.5 -27q0 -14 -10 -31l-67 -108h-25z" />
    <glyph glyph-name="tcommaaccent" unicode="&#x163;" horiz-adv-x="312" 
d="M127 375h-62l5 33h63l38 213h38l-38 -213h116l-6 -33h-116l-47 -265q-15 -84 46 -84q31 0 62 27l23 -25q-38 -36 -86 -36q-46 0 -69.5 30.5t-12.5 90.5zM46 -243l48 103q-23 6 -23 35q0 16 12 27t27 11q17 0 27.5 -10t10.5 -27q0 -14 -10 -31l-67 -108h-25z" />
    <glyph glyph-name="tcommaaccent" unicode="&#x21b;" horiz-adv-x="312" 
d="M127 375h-62l5 33h63l38 213h38l-38 -213h116l-6 -33h-116l-47 -265q-15 -84 46 -84q31 0 62 27l23 -25q-38 -36 -86 -36q-46 0 -69.5 30.5t-12.5 90.5zM46 -243l48 103q-23 6 -23 35q0 16 12 27t27 11q17 0 27.5 -10t10.5 -27q0 -14 -10 -31l-67 -108h-25z" />
    <glyph glyph-name="Tcaron" unicode="&#x164;" horiz-adv-x="527" 
d="M354 749l-84 182h34l62 -125l102 125h37l-142 -182h-9zM208 0l114 646h-212l6 34h463l-6 -34h-211l-114 -646h-40z" />
    <glyph glyph-name="tcaron" unicode="&#x165;" horiz-adv-x="336" 
d="M305 511l48 103q-23 6 -23 35q0 16 12 27t27 11q17 0 27.5 -10t10.5 -27q0 -14 -10 -31l-67 -108h-25zM127 375h-62l5 33h63l38 213h38l-38 -213h116l-6 -33h-116l-47 -265q-15 -84 46 -84q31 0 62 27l23 -25q-38 -36 -86 -36q-46 0 -69.5 30.5t-12.5 90.5z" />
    <glyph glyph-name="Umacron" unicode="&#x16a;" horiz-adv-x="637" 
d="M320 768l6 34h194l-6 -34h-194zM309 -8q-106 0 -167.5 66t-40.5 186l76 436h41l-75 -433q-19 -107 28.5 -163t137.5 -56q165 0 195 174l83 478h40l-84 -481q-19 -111 -78.5 -159t-155.5 -48z" />
    <glyph glyph-name="umacron" unicode="&#x16b;" horiz-adv-x="493" 
d="M194 510l6 34h194l-6 -34h-194zM201 -9q-70 0 -108 48t-24 129l42 240h38l-41 -233q-12 -69 13 -109t85 -40q63 0 104.5 38.5t54.5 109.5l42 234h38l-60 -339q-6 -35 20 -35h42l-6 -34h-44q-31 0 -43 24t-3 54l2 7q-54 -94 -152 -94z" />
    <glyph glyph-name="Ubreve" unicode="&#x16c;" horiz-adv-x="637" 
d="M411 742q-48 0 -75.5 31t-31.5 75l35 6q6 -37 21.5 -57.5t50.5 -20.5q65 0 88 78l35 -7q-13 -45 -43.5 -75t-79.5 -30zM309 -8q-106 0 -167.5 66t-40.5 186l76 436h41l-75 -433q-19 -107 28.5 -163t137.5 -56q165 0 195 174l83 478h40l-84 -481q-19 -111 -78.5 -159
t-155.5 -48z" />
    <glyph glyph-name="ubreve" unicode="&#x16d;" horiz-adv-x="493" 
d="M291 484q-48 0 -75.5 31t-31.5 75l35 6q6 -37 21.5 -57.5t50.5 -20.5q65 0 88 78l35 -7q-13 -45 -43.5 -75t-79.5 -30zM201 -9q-70 0 -108 48t-24 129l42 240h38l-41 -233q-12 -69 13 -109t85 -40q63 0 104.5 38.5t54.5 109.5l42 234h38l-60 -339q-6 -35 20 -35h42
l-6 -34h-44q-31 0 -43 24t-3 54l2 7q-54 -94 -152 -94z" />
    <glyph glyph-name="Uring" unicode="&#x16e;" horiz-adv-x="637" 
d="M412 746q-39 0 -66.5 27t-27.5 65t27.5 65t66.5 27t66.5 -27t27.5 -65t-27.5 -65t-66.5 -27zM309 -8q-106 0 -167.5 66t-40.5 186l76 436h41l-75 -433q-19 -107 28.5 -163t137.5 -56q165 0 195 174l83 478h40l-84 -481q-19 -111 -78.5 -159t-155.5 -48zM412 776
q26 0 42.5 17t16.5 45t-16.5 45t-42.5 17t-42.5 -17t-16.5 -45t16.5 -45t42.5 -17z" />
    <glyph glyph-name="uring" unicode="&#x16f;" horiz-adv-x="493" 
d="M301 488q-39 0 -66.5 27t-27.5 65t27.5 65t66.5 27t66.5 -27t27.5 -65t-27.5 -65t-66.5 -27zM201 -9q-70 0 -108 48t-24 129l42 240h38l-41 -233q-12 -69 13 -109t85 -40q63 0 104.5 38.5t54.5 109.5l42 234h38l-60 -339q-6 -35 20 -35h42l-6 -34h-44q-31 0 -43 24t-3 54
l2 7q-54 -94 -152 -94zM301 518q26 0 42.5 17t16.5 45t-16.5 45t-42.5 17t-42.5 -17t-16.5 -45t16.5 -45t42.5 -17z" />
    <glyph glyph-name="Uhungarumlaut" unicode="&#x170;" horiz-adv-x="637" 
d="M446 755l107 195h48l-122 -195h-33zM329 755l107 195h48l-122 -195h-33zM309 -8q-106 0 -167.5 66t-40.5 186l76 436h41l-75 -433q-19 -107 28.5 -163t137.5 -56q165 0 195 174l83 478h40l-84 -481q-19 -111 -78.5 -159t-155.5 -48z" />
    <glyph glyph-name="uhungarumlaut" unicode="&#x171;" horiz-adv-x="493" 
d="M334 497l107 195h48l-122 -195h-33zM217 497l107 195h48l-122 -195h-33zM201 -9q-70 0 -108 48t-24 129l42 240h38l-41 -233q-12 -69 13 -109t85 -40q63 0 104.5 38.5t54.5 109.5l42 234h38l-60 -339q-6 -35 20 -35h42l-6 -34h-44q-31 0 -43 24t-3 54l2 7
q-54 -94 -152 -94z" />
    <glyph glyph-name="Uogonek" unicode="&#x172;" horiz-adv-x="637" 
d="M260 -4q-86 15 -131.5 79t-27.5 169l76 436h41l-75 -433q-19 -107 28.5 -163t137.5 -56q165 0 195 174l83 478h40l-84 -481q-19 -111 -78.5 -159t-155.5 -48h-13l-33 -37q-21 -24 -30 -35.5t-17 -29.5t-8 -37q0 -21 14.5 -34.5t35.5 -13.5q35 0 59 39l29 -15
q-27 -57 -90 -57q-35 0 -60.5 21.5t-25.5 59.5q0 53 63 116z" />
    <glyph glyph-name="uogonek" unicode="&#x173;" horiz-adv-x="493" 
d="M360 15q-20 25 -9 63l2 7q-54 -94 -152 -94q-70 0 -108 48t-24 129l42 240h38l-41 -233q-12 -69 13 -109t85 -40q63 0 104.5 38.5t54.5 109.5l42 234h38l-60 -339q-6 -35 20 -35h42l-6 -34h-44q-8 0 -12 1l-41 -46q-30 -33 -42.5 -54t-12.5 -48q0 -21 14.5 -34.5
t35.5 -13.5q35 0 59 39l29 -15q-27 -57 -90 -57q-35 0 -60.5 21.5t-25.5 59.5q0 53 63 116z" />
    <glyph glyph-name="Ydieresis" unicode="&#x178;" horiz-adv-x="630" 
d="M482 779q-13 0 -22.5 9.5t-9.5 22.5t9.5 22.5t22.5 9.5t22.5 -9.5t9.5 -22.5t-9.5 -22.5t-22.5 -9.5zM330 779q-13 0 -22.5 9.5t-9.5 22.5t9.5 22.5t22.5 9.5t22.5 -9.5t9.5 -22.5t-9.5 -22.5t-22.5 -9.5zM295 214l-169 466h42l142 -394l10 -43q12 26 24 43l282 394h45
l-336 -469l-37 -211h-41z" />
    <glyph glyph-name="Zacute" unicode="&#x179;" horiz-adv-x="568" 
d="M367 755l106 195h49l-122 -195h-33zM12 0v10l510 636h-351l6 34h411v-10l-510 -636h413l-6 -34h-473z" />
    <glyph glyph-name="zacute" unicode="&#x17a;" horiz-adv-x="413" 
d="M259 497l106 195h49l-122 -195h-33zM15 0v10l331 366h-239l6 32h297v-11l-330 -365h266l-6 -32h-325z" />
    <glyph glyph-name="Zdotaccent" unicode="&#x17b;" horiz-adv-x="568" 
d="M384 778q-13 0 -23 9.5t-10 23.5t10 23.5t23 9.5t23 -9.5t10 -23.5t-10 -23.5t-23 -9.5zM12 0v10l510 636h-351l6 34h411v-10l-510 -636h413l-6 -34h-473z" />
    <glyph glyph-name="zdotaccent" unicode="&#x17c;" horiz-adv-x="413" 
d="M272 520q-13 0 -23 9.5t-10 23.5t10 23.5t23 9.5t23 -9.5t10 -23.5t-10 -23.5t-23 -9.5zM15 0v10l331 366h-239l6 32h297v-11l-330 -365h266l-6 -32h-325z" />
    <glyph glyph-name="Zcaron" unicode="&#x17d;" horiz-adv-x="568" 
d="M12 0v10l510 636h-351l6 34h411v-10l-510 -636h413l-6 -34h-473zM384 749l-84 182h34l62 -125l102 125h37l-142 -182h-9z" />
    <glyph glyph-name="zcaron" unicode="&#x17e;" horiz-adv-x="413" 
d="M15 0v10l331 366h-239l6 32h297v-11l-330 -365h266l-6 -32h-325zM267 491l-84 182h34l62 -125l102 125h37l-142 -182h-9z" />
    <glyph glyph-name="florin" unicode="&#x192;" horiz-adv-x="324" 
d="M117 214h-69l5 32h69l45 254q21 118 103 118q57 0 86 -51l-29 -21q-24 38 -57 38q-27 0 -41.5 -17.5t-23.5 -67.5l-45 -253h89l-5 -32h-89l-75 -426h-38z" />
    <glyph glyph-name="Scommaaccent" unicode="&#x218;" horiz-adv-x="524" 
d="M239 -8q-79 0 -134 38t-85 95l33 19q66 -117 186 -117q82 0 125 43t43 114q0 46 -23.5 76t-78.5 65l-54 34q-116 74 -116 170q0 74 48 116.5t112 42.5q105 0 161 -93l-30 -21q-25 40 -55 59.5t-77 19.5q-50 0 -84.5 -32.5t-34.5 -89.5q0 -44 21.5 -74t71.5 -62l54 -34
q66 -42 95.5 -82.5t29.5 -99.5q0 -83 -55.5 -135t-152.5 -52zM133 -243l48 103q-23 6 -23 35q0 16 12 27t27 11q17 0 27.5 -10t10.5 -27q0 -14 -10 -31l-67 -108h-25z" />
    <glyph glyph-name="scommaaccent" unicode="&#x219;" horiz-adv-x="397" 
d="M186 -8q-59 0 -101 26t-63 67l32 18q45 -77 133 -77q48 0 74 21t26 59q0 30 -21 48t-75 47q-53 28 -79 53.5t-26 65.5q0 46 34 71.5t85 25.5q82 0 125 -62l-27 -21q-37 50 -99 50q-36 0 -58.5 -16t-22.5 -46q0 -28 19.5 -46.5t66.5 -42.5q29 -15 43 -23.5t35 -25t30 -36
t9 -42.5q0 -52 -36.5 -83t-103.5 -31zM78 -243l48 103q-23 6 -23 35q0 16 12 27t27 11q17 0 27.5 -10t10.5 -27q0 -14 -10 -31l-67 -108h-25z" />
    <glyph glyph-name="circumflex" unicode="&#x2c6;" 
d="M183 494l142 182h9l84 -182h-34l-62 125l-102 -125h-37z" />
    <glyph glyph-name="caron" unicode="&#x2c7;" 
d="M299 491l-84 182h34l62 -125l102 125h37l-142 -182h-9z" />
    <glyph glyph-name="breve" unicode="&#x2d8;" 
d="M309 484q-48 0 -75.5 31t-31.5 75l35 6q6 -37 21.5 -57.5t50.5 -20.5q65 0 88 78l35 -7q-13 -45 -43.5 -75t-79.5 -30z" />
    <glyph glyph-name="dotaccent" unicode="&#x2d9;" 
d="M312 520q-13 0 -23 9.5t-10 23.5t10 23.5t23 9.5t23 -9.5t10 -23.5t-10 -23.5t-23 -9.5z" />
    <glyph glyph-name="ring" unicode="&#x2da;" 
d="M315 488q-39 0 -66.5 27t-27.5 65t27.5 65t66.5 27t66.5 -27t27.5 -65t-27.5 -65t-66.5 -27zM315 518q26 0 42.5 17t16.5 45t-16.5 45t-42.5 17t-42.5 -17t-16.5 -45t16.5 -45t42.5 -17z" />
    <glyph glyph-name="ogonek" unicode="&#x2db;" 
d="M233 -228q-35 0 -60.5 21.5t-25.5 59.5q0 53 63 116l31 31h39l-40 -45q-21 -24 -30 -35.5t-17 -29.5t-8 -37q0 -21 14.5 -34.5t35.5 -13.5q35 0 59 39l29 -15q-27 -57 -90 -57z" />
    <glyph glyph-name="tilde" unicode="&#x2dc;" horiz-adv-x="490" 
d="M201 488l-34 5q19 96 82 96q25 0 63 -36q2 -2 6 -5q29 -27 42 -28q16 0 26 14.5t20 53.5l34 -5q-20 -96 -82 -96q-28 0 -64 36l-6.5 6.5l-6 6l-5 5t-5.5 5t-5 3.5l-4.5 3t-4.5 2t-5 1.5t-5 0.5q-16 0 -26 -14.5t-20 -53.5z" />
    <glyph glyph-name="hungarumlaut" unicode="&#x2dd;" 
d="M325 497l107 195h48l-122 -195h-33zM208 497l107 195h48l-122 -195h-33z" />
    <glyph glyph-name="Delta" unicode="&#x394;" horiz-adv-x="180" 
d="M96 197q-15 0 -27.5 12t-12.5 28q0 17 12 28.5t28 11.5t28 -11.5t12 -28.5q0 -16 -12 -28t-28 -12z" />
    <glyph glyph-name="Delta" unicode="&#x2206;" horiz-adv-x="180" 
d="M96 197q-15 0 -27.5 12t-12.5 28q0 17 12 28.5t28 11.5t28 -11.5t12 -28.5q0 -16 -12 -28t-28 -12z" />
    <glyph glyph-name="Omega" unicode="&#x3a9;" horiz-adv-x="180" 
d="M96 197q-15 0 -27.5 12t-12.5 28q0 17 12 28.5t28 11.5t28 -11.5t12 -28.5q0 -16 -12 -28t-28 -12z" />
    <glyph glyph-name="Omega" unicode="&#x2126;" horiz-adv-x="180" 
d="M96 197q-15 0 -27.5 12t-12.5 28q0 17 12 28.5t28 11.5t28 -11.5t12 -28.5q0 -16 -12 -28t-28 -12z" />
    <glyph glyph-name="pi" unicode="&#x3c0;" horiz-adv-x="180" 
d="M96 197q-15 0 -27.5 12t-12.5 28q0 17 12 28.5t28 11.5t28 -11.5t12 -28.5q0 -16 -12 -28t-28 -12z" />
    <glyph glyph-name="endash" unicode="&#x2013;" horiz-adv-x="377" 
d="M29 161l6 34h303l-6 -34h-303z" />
    <glyph glyph-name="emdash" unicode="&#x2014;" horiz-adv-x="589" 
d="M29 161l6 34h515l-6 -34h-515z" />
    <glyph glyph-name="quoteleft" unicode="&#x2018;" horiz-adv-x="172" 
d="M145 504q-17 0 -27.5 10t-10.5 27q0 14 10 31l67 108h25l-48 -103q23 -6 23 -35q0 -16 -12 -27t-27 -11z" />
    <glyph glyph-name="quoteright" unicode="&#x2019;" horiz-adv-x="172" 
d="M101 511l48 103q-23 6 -23 35q0 16 12 27t27 11q17 0 27.5 -10t10.5 -27q0 -14 -10 -31l-67 -108h-25z" />
    <glyph glyph-name="quotesinglbase" unicode="&#x201a;" horiz-adv-x="172" 
d="M1 -89l40 89q-9 2 -16 11.5t-7 23.5q0 16 12 27t27 11q17 0 27.5 -10t10.5 -27q0 -14 -10 -31l-59 -94h-25z" />
    <glyph glyph-name="quotedblleft" unicode="&#x201c;" horiz-adv-x="304" 
d="M277 504q-17 0 -27.5 10t-10.5 27q0 14 10 31l67 108h25l-48 -103q23 -6 23 -35q0 -16 -12 -27t-27 -11zM145 504q-17 0 -27.5 10t-10.5 27q0 14 10 31l67 108h25l-48 -103q23 -6 23 -35q0 -16 -12 -27t-27 -11z" />
    <glyph glyph-name="quotedblright" unicode="&#x201d;" horiz-adv-x="304" 
d="M233 511l48 103q-23 6 -23 35q0 16 12 27t27 11q17 0 27.5 -10t10.5 -27q0 -14 -10 -31l-67 -108h-25zM101 511l48 103q-23 6 -23 35q0 16 12 27t27 11q17 0 27.5 -10t10.5 -27q0 -14 -10 -31l-67 -108h-25z" />
    <glyph glyph-name="quotedblbase" unicode="&#x201e;" horiz-adv-x="304" 
d="M133 -89l40 89q-9 2 -16 11.5t-7 23.5q0 16 12 27t27 11q17 0 27.5 -10t10.5 -27q0 -14 -10 -31l-59 -94h-25zM1 -89l40 89q-9 2 -16 11.5t-7 23.5q0 16 12 27t27 11q17 0 27.5 -10t10.5 -27q0 -14 -10 -31l-59 -94h-25z" />
    <glyph glyph-name="dagger" unicode="&#x2020;" horiz-adv-x="325" 
d="M203 540h-96l6 32h96l19 108h37l-19 -108h96l-6 -32h-96l-42 -241h-37z" />
    <glyph glyph-name="daggerdbl" unicode="&#x2021;" horiz-adv-x="325" 
d="M203 540h-96l6 32h95l20 108h37l-20 -108h97l-6 -32h-96l-18 -101h96l-5 -32h-97l-19 -108h-37l19 108h-95l5 32h96z" />
    <glyph glyph-name="bullet" unicode="&#x2022;" horiz-adv-x="279" 
d="M149 167q-36 0 -62.5 26t-26.5 62q0 37 26.5 62.5t62.5 25.5t62 -25.5t26 -62.5q0 -36 -26 -62t-62 -26z" />
    <glyph glyph-name="ellipsis" unicode="&#x2026;" horiz-adv-x="538" 
d="M420 -7q-15 0 -27 11.5t-12 27.5q0 17 12 28.5t27 11.5q16 0 27.5 -11.5t11.5 -28.5q0 -16 -11.5 -27.5t-27.5 -11.5zM239 -7q-15 0 -27 11.5t-12 27.5q0 17 12 28.5t27 11.5q16 0 27.5 -11.5t11.5 -28.5q0 -16 -11.5 -27.5t-27.5 -11.5zM58 -7q-15 0 -27 11.5t-12 27.5
q0 17 12 28.5t27 11.5q16 0 27.5 -11.5t11.5 -28.5q0 -16 -11.5 -27.5t-27.5 -11.5z" />
    <glyph glyph-name="perthousand" unicode="&#x2030;" horiz-adv-x="1066" 
d="M185 219q-56 0 -95.5 37.5t-39.5 96.5q0 63 45.5 106.5t105.5 43.5q55 0 94.5 -37.5t39.5 -95.5q0 -66 -45 -108.5t-105 -42.5zM157 0l393 495h43l-393 -495h-43zM881 -8q-56 0 -95.5 37.5t-39.5 96.5q0 63 45.5 106.5t105.5 43.5q55 0 94.5 -37.5t39.5 -95.5
q0 -66 -45 -108.5t-105 -42.5zM547 -8q-56 0 -95.5 37.5t-39.5 96.5q0 63 45.5 106.5t105.5 43.5q55 0 94.5 -37.5t39.5 -95.5q0 -66 -45 -108.5t-105 -42.5zM185 251q48 0 80 33t32 87q0 45 -26.5 72t-69.5 27q-48 0 -80.5 -32.5t-32.5 -84.5q0 -47 27 -74.5t70 -27.5z
M881 24q48 0 80 33t32 87q0 45 -26.5 72t-69.5 27q-48 0 -80.5 -32.5t-32.5 -84.5q0 -47 27 -74.5t70 -27.5zM547 24q48 0 80 33t32 87q0 45 -26.5 72t-69.5 27q-48 0 -80.5 -32.5t-32.5 -84.5q0 -47 27 -74.5t70 -27.5z" />
    <glyph glyph-name="guilsinglleft" unicode="&#x2039;" horiz-adv-x="214" 
d="M99 40l-62 143v8l117 165h47l-124 -171l65 -145h-43z" />
    <glyph glyph-name="guilsinglright" unicode="&#x203a;" horiz-adv-x="214" 
d="M11 40l124 171l-65 145h43l62 -143v-8l-117 -165h-47z" />
    <glyph glyph-name="fraction" unicode="&#x2044;" horiz-adv-x="441" 
d="M-41 0l528 680h43l-528 -680h-43z" />
    <glyph glyph-name="fraction" unicode="&#x2215;" horiz-adv-x="441" 
d="M-41 0l528 680h43l-528 -680h-43z" />
    <glyph glyph-name="Euro" unicode="&#x20ac;" horiz-adv-x="607" 
d="M118 288h-64l5 32h67q26 83 94.5 133t152.5 50q129 0 188 -98l-29 -19q-51 82 -159 82q-71 0 -127 -40.5t-78 -107.5h267l-5 -32h-270q-5 -27 -5 -50q0 -11 2 -33h258l-5 -32h-248q17 -68 66 -107t122 -39q97 0 166 77l26 -24q-74 -88 -193 -88q-88 0 -149 49t-79 132
h-87l5 32h77q-2 11 -2 32q0 19 4 51z" />
    <glyph glyph-name="trademark" unicode="&#x2122;" horiz-adv-x="717" 
d="M373 386l53 299h8l109 -169l169 169h8l-53 -299h-36l38 217l-127 -130h-10l-83 132l-39 -219h-37zM222 648h-92l6 32h220l-6 -32h-91l-46 -262h-37z" />
    <glyph glyph-name="partialdiff" unicode="&#x2202;" horiz-adv-x="180" 
d="M96 197q-15 0 -27.5 12t-12.5 28q0 17 12 28.5t28 11.5t28 -11.5t12 -28.5q0 -16 -12 -28t-28 -12z" />
    <glyph glyph-name="product" unicode="&#x220f;" horiz-adv-x="180" 
d="M96 197q-15 0 -27.5 12t-12.5 28q0 17 12 28.5t28 11.5t28 -11.5t12 -28.5q0 -16 -12 -28t-28 -12z" />
    <glyph glyph-name="summation" unicode="&#x2211;" horiz-adv-x="555" 
d="M20 0v10l296 301l-184 359v10h442l-6 -36h-340l-42 2q12 -18 22 -37l153 -299v-8l-228 -230l-44 -39q27 3 55 3h330l-6 -36h-448z" />
    <glyph glyph-name="minus" unicode="&#x2212;" horiz-adv-x="180" 
d="M96 197q-15 0 -27.5 12t-12.5 28q0 17 12 28.5t28 11.5t28 -11.5t12 -28.5q0 -16 -12 -28t-28 -12z" />
    <glyph glyph-name="radical" unicode="&#x221a;" horiz-adv-x="180" 
d="M96 197q-15 0 -27.5 12t-12.5 28q0 17 12 28.5t28 11.5t28 -11.5t12 -28.5q0 -16 -12 -28t-28 -12z" />
    <glyph glyph-name="integral" unicode="&#x222b;" horiz-adv-x="180" 
d="M96 197q-15 0 -27.5 12t-12.5 28q0 17 12 28.5t28 11.5t28 -11.5t12 -28.5q0 -16 -12 -28t-28 -12z" />
    <glyph glyph-name="approxequal" unicode="&#x2248;" horiz-adv-x="180" 
d="M96 197q-15 0 -27.5 12t-12.5 28q0 17 12 28.5t28 11.5t28 -11.5t12 -28.5q0 -16 -12 -28t-28 -12z" />
    <glyph glyph-name="lessequal" unicode="&#x2264;" horiz-adv-x="180" 
d="M96 197q-15 0 -27.5 12t-12.5 28q0 17 12 28.5t28 11.5t28 -11.5t12 -28.5q0 -16 -12 -28t-28 -12z" />
    <glyph glyph-name="greaterequal" unicode="&#x2265;" horiz-adv-x="180" 
d="M96 197q-15 0 -27.5 12t-12.5 28q0 17 12 28.5t28 11.5t28 -11.5t12 -28.5q0 -16 -12 -28t-28 -12z" />
    <glyph glyph-name="lozenge" unicode="&#x25ca;" horiz-adv-x="180" 
d="M96 197q-15 0 -27.5 12t-12.5 28q0 17 12 28.5t28 11.5t28 -11.5t12 -28.5q0 -16 -12 -28t-28 -12z" />
    <glyph glyph-name="Lslashsmall" unicode="&#xf6f9;" horiz-adv-x="396" 
d="M120 166l-23 -132h233l-6 -34h-271l26 150l-60 -23l7 37l60 23l54 308h38l-51 -292l148 58l-7 -37z" />
    <glyph glyph-name="OEsmall" unicode="&#xf6fa;" horiz-adv-x="736" 
d="M278 0q-107 0 -167.5 59.5t-60.5 156.5q0 128 77.5 203.5t211.5 75.5h379l-6 -33h-249l-44 -253h225l-6 -33h-225l-25 -143h265l-5 -33h-370zM279 33h72l75 429h-83q-124 0 -189.5 -67.5t-65.5 -178.5q0 -83 48 -133t143 -50z" />
    <glyph glyph-name="Scaronsmall" unicode="&#xf6fd;" horiz-adv-x="406" 
d="M189 -8q-63 0 -109 31t-66 70l31 19q21 -36 57.5 -61t86.5 -25q57 0 87 27.5t30 72.5q0 35 -20.5 60t-64.5 51l-37 22q-87 52 -87 126q0 54 37 86t87 32q83 0 124 -75l-30 -19q-34 61 -95 61q-35 0 -60 -22.5t-25 -61.5q0 -31 15.5 -52t53.5 -44l37 -22q103 -61 103 -144
q0 -57 -41.5 -94.5t-113.5 -37.5zM238 559l-84 182h34l62 -125l102 125h37l-142 -182h-9z" />
    <glyph glyph-name="Zcaronsmall" unicode="&#xf6ff;" horiz-adv-x="443" 
d="M8 0v7l361 455h-249l6 33h307v-8l-361 -454h290l-6 -33h-348zM279 559l-84 182h34l62 -125l102 125h37l-142 -182h-9z" />
    <glyph glyph-name="Asmall" unicode="&#xf761;" horiz-adv-x="489" 
d="M96 91l-51 -91h-40l286 501h9l112 -501h-38l-20 91h-258zM347 124l-53 248l-8 67q-16 -41 -29 -64l-142 -251h232z" />
    <glyph glyph-name="Bsmall" unicode="&#xf762;" horiz-adv-x="456" 
d="M45 0l87 495h153q54 0 85.5 -30.5t31.5 -75.5q0 -92 -84 -118q37 -8 60 -38.5t23 -74.5q0 -71 -43.5 -114.5t-124.5 -43.5h-188zM134 288h129q51 0 76 26.5t25 73.5q0 32 -21.5 52.5t-62.5 20.5h-116zM89 34h138q68 0 101 33t33 92q0 43 -23.5 69.5t-72.5 26.5h-137z" />
    <glyph glyph-name="Csmall" unicode="&#xf763;" horiz-adv-x="545" 
d="M288 -8q-100 0 -167.5 68t-67.5 172q0 115 77.5 193t188.5 78q127 0 189 -96l-29 -20q-56 82 -161 82q-95 0 -160 -68t-65 -168q0 -90 54.5 -148.5t141.5 -58.5q101 0 169 79l28 -24q-78 -89 -198 -89z" />
    <glyph glyph-name="Dsmall" unicode="&#xf764;" horiz-adv-x="499" 
d="M45 0l87 495h106q109 0 167.5 -59.5t58.5 -157.5q0 -126 -76 -202t-213 -76h-130zM89 33h82q124 0 188.5 67t64.5 179q0 83 -47 133t-142 50h-71z" />
    <glyph glyph-name="Esmall" unicode="&#xf765;" horiz-adv-x="436" 
d="M45 0l87 495h286l-6 -33h-249l-44 -253h225l-6 -33h-225l-25 -143h266l-6 -33h-303z" />
    <glyph glyph-name="Fsmall" unicode="&#xf766;" horiz-adv-x="416" 
d="M45 0l87 495h286l-6 -33h-248l-44 -254h225l-6 -33h-225l-31 -175h-38z" />
    <glyph glyph-name="Gsmall" unicode="&#xf767;" horiz-adv-x="552" 
d="M294 -8q-105 0 -173 66t-68 172q0 117 77.5 195t185.5 78q111 0 176 -77l-28 -23q-57 66 -150 66q-94 0 -158 -69t-64 -168q0 -92 56 -149t146 -57q78 0 140 41l22 125h-152l6 34h188l-31 -178q-75 -56 -173 -56z" />
    <glyph glyph-name="Hsmall" unicode="&#xf768;" horiz-adv-x="513" 
d="M395 209l50 286h38l-87 -495h-38l31 176h-275l-31 -176h-38l87 495h38l-50 -286h275z" />
    <glyph glyph-name="Ismall" unicode="&#xf769;" horiz-adv-x="208" 
d="M49 0l87 495h38l-87 -495h-38z" />
    <glyph glyph-name="Jsmall" unicode="&#xf76a;" horiz-adv-x="353" 
d="M131 -8q-42 0 -72.5 21.5t-44.5 52.5l32 18q32 -57 86 -57q75 0 89 84l67 384h38l-68 -390q-19 -113 -127 -113z" />
    <glyph glyph-name="Ksmall" unicode="&#xf76b;" horiz-adv-x="450" 
d="M106 175q31 44 49 63l245 257h46l-224 -233l166 -262h-44l-148 237l-87 -89l-26 -148h-38l87 495h38l-43 -245q-6 -30 -21 -75z" />
    <glyph glyph-name="Lsmall" unicode="&#xf76c;" horiz-adv-x="388" 
d="M45 0l87 495h38l-81 -461h233l-6 -34h-271z" />
    <glyph glyph-name="Msmall" unicode="&#xf76d;" horiz-adv-x="619" 
d="M45 0l88 501h8l165 -300l276 300h8l-88 -501h-37l62 353l15 67q-22 -34 -44 -58l-194 -211h-8l-113 203q-7 12 -15 29.5t-12 28.5l-4 12q-3 -43 -8 -71l-62 -353h-37z" />
    <glyph glyph-name="Nsmall" unicode="&#xf76e;" horiz-adv-x="531" 
d="M405 -6l-226 373l-30 58q-1 -37 -6 -65l-63 -360h-35l88 500h8l224 -368l32 -65q2 45 7 73l62 355h35l-88 -501h-8z" />
    <glyph glyph-name="Osmall" unicode="&#xf76f;" horiz-adv-x="595" 
d="M290 -8q-100 0 -168.5 67t-68.5 171q0 116 78.5 194.5t189.5 78.5q100 0 168.5 -66t68.5 -170q0 -116 -78.5 -195.5t-189.5 -79.5zM291 26q96 0 162 70t66 172q0 88 -56 144.5t-143 56.5q-97 0 -162.5 -69t-65.5 -170q0 -88 56 -146t143 -58z" />
    <glyph glyph-name="Psmall" unicode="&#xf770;" horiz-adv-x="449" 
d="M105 125l-22 -125h-38l87 495h116q83 0 128 -47t45 -119q0 -93 -56 -148.5t-159 -55.5h-101zM111 158h94q91 0 134 47t44 124q1 60 -33.5 96.5t-104.5 36.5h-81z" />
    <glyph glyph-name="Qsmall" unicode="&#xf771;" horiz-adv-x="595" 
d="M458 52l58 -78l-26 -19l-58 78q-65 -41 -142 -41q-100 0 -168.5 67t-68.5 171q0 116 78.5 194.5t189.5 78.5q100 0 168.5 -66t68.5 -170q0 -66 -26.5 -121.5t-73.5 -93.5zM411 60l-71 95l26 19l71 -95q82 68 82 189q0 88 -56 144.5t-143 56.5q-97 0 -162.5 -69
t-65.5 -170q0 -88 56 -146t143 -58q67 0 120 34z" />
    <glyph glyph-name="Rsmall" unicode="&#xf772;" horiz-adv-x="445" 
d="M286 146l82 -146h-41l-77 137q-22 -3 -51 -3h-93l-23 -134h-38l87 495h105q84 0 129.5 -45.5t44.5 -117.5q-1 -67 -32.5 -116.5t-92.5 -69.5zM112 167h87q90 0 131.5 44.5t41.5 120.5q0 60 -34.5 95t-103.5 35h-70z" />
    <glyph glyph-name="Ssmall" unicode="&#xf773;" horiz-adv-x="406" 
d="M189 -8q-63 0 -109 31t-66 70l31 19q21 -36 57.5 -61t86.5 -25q57 0 87 27.5t30 72.5q0 35 -20.5 60t-64.5 51l-37 22q-87 52 -87 126q0 54 37 86t87 32q83 0 124 -75l-30 -19q-34 61 -95 61q-35 0 -60 -22.5t-25 -61.5q0 -31 15.5 -52t53.5 -44l37 -22q103 -61 103 -144
q0 -57 -41.5 -94.5t-113.5 -37.5z" />
    <glyph glyph-name="Tsmall" unicode="&#xf774;" horiz-adv-x="404" 
d="M146 0l82 462h-152l6 33h342l-6 -33h-152l-82 -462h-38z" />
    <glyph glyph-name="Usmall" unicode="&#xf775;" horiz-adv-x="491" 
d="M228 -6q-78 0 -123.5 49.5t-30.5 137.5l55 314h38l-55 -314q-14 -76 19.5 -114.5t97.5 -38.5q117 0 137 123l59 344h38l-60 -348q-26 -153 -175 -153z" />
    <glyph glyph-name="Vsmall" unicode="&#xf776;" horiz-adv-x="489" 
d="M205 -6l-113 501h40l78 -358l10 -77q18 46 34 74l204 361h41l-285 -501h-9z" />
    <glyph glyph-name="Wsmall" unicode="&#xf777;" horiz-adv-x="702" 
d="M158 -6l-68 501h39l44 -348l4 -83q13 47 30 79l193 357h8l64 -357l5 -79q14 50 27 78l169 353h40l-243 -501h-8l-64 368l-6 70q-13 -39 -28 -67l-198 -371h-8z" />
    <glyph glyph-name="Xsmall" unicode="&#xf778;" horiz-adv-x="473" 
d="M9 0l217 269l-103 226h41l67 -150l20 -56q16 28 37 55l120 151h43l-182 -226l123 -269h-41l-87 193l-18 55q-16 -28 -37 -54l-156 -194h-44z" />
    <glyph glyph-name="Ysmall" unicode="&#xf779;" horiz-adv-x="486" 
d="M215 156l-123 339h41l90 -251q4 -12 8 -29t5 -27l2 -11q18 40 37 67l179 251h42l-244 -341l-27 -154h-38z" />
    <glyph glyph-name="Zsmall" unicode="&#xf77a;" horiz-adv-x="443" 
d="M8 0v7l361 455h-249l6 33h307v-8l-361 -454h290l-6 -33h-348z" />
    <glyph glyph-name="Agravesmall" unicode="&#xf7e0;" horiz-adv-x="489" 
d="M96 91l-51 -91h-40l286 501h9l112 -501h-38l-20 91h-258zM347 124l-53 248l-8 67q-16 -41 -29 -64l-142 -251h232zM275 565l-86 195h46l72 -195h-32z" />
    <glyph glyph-name="Aacutesmall" unicode="&#xf7e1;" horiz-adv-x="489" 
d="M96 91l-51 -91h-40l286 501h9l112 -501h-38l-20 91h-258zM347 124l-53 248l-8 67q-16 -41 -29 -64l-142 -251h232zM285 565l106 195h49l-122 -195h-33z" />
    <glyph glyph-name="Acircumflexsmall" unicode="&#xf7e2;" horiz-adv-x="489" 
d="M96 91l-51 -91h-40l286 501h9l112 -501h-38l-20 91h-258zM347 124l-53 248l-8 67q-16 -41 -29 -64l-142 -251h232zM183 562l142 182h9l84 -182h-34l-62 125l-102 -125h-37z" />
    <glyph glyph-name="Atildesmall" unicode="&#xf7e3;" horiz-adv-x="489" 
d="M96 91l-51 -91h-40l286 501h9l112 -501h-38l-20 91h-258zM347 124l-53 248l-8 67q-16 -41 -29 -64l-142 -251h232zM201 556l-34 5q19 96 82 96q25 0 63 -36q2 -2 6 -5q29 -27 42 -28q16 0 26 14.5t20 53.5l34 -5q-20 -96 -82 -96q-28 0 -64 36l-6.5 6.5l-6 6l-5 5t-5.5 5
t-5 3.5l-4.5 3t-4.5 2t-5 1.5t-5 0.5q-16 0 -26 -14.5t-20 -53.5z" />
    <glyph glyph-name="Adieresissmall" unicode="&#xf7e4;" horiz-adv-x="489" 
d="M96 91l-51 -91h-40l286 501h9l112 -501h-38l-20 91h-258zM347 124l-53 248l-8 67q-16 -41 -29 -64l-142 -251h232zM387 589q-13 0 -22.5 9.5t-9.5 22.5t9.5 22.5t22.5 9.5t22.5 -9.5t9.5 -22.5t-9.5 -22.5t-22.5 -9.5zM235 589q-13 0 -22.5 9.5t-9.5 22.5t9.5 22.5
t22.5 9.5t22.5 -9.5t9.5 -22.5t-9.5 -22.5t-22.5 -9.5z" />
    <glyph glyph-name="Aringsmall" unicode="&#xf7e5;" horiz-adv-x="489" 
d="M96 91l-51 -91h-40l286 501h9l112 -501h-38l-20 91h-258zM347 124l-53 248l-8 67q-16 -41 -29 -64l-142 -251h232zM315 556q-39 0 -66.5 27t-27.5 65t27.5 65t66.5 27t66.5 -27t27.5 -65t-27.5 -65t-66.5 -27zM315 586q26 0 42.5 17t16.5 45t-16.5 45t-42.5 17t-42.5 -17
t-16.5 -45t16.5 -45t42.5 -17z" />
    <glyph glyph-name="AEsmall" unicode="&#xf7e6;" horiz-adv-x="687" 
d="M108 91l-75 -91h-43l411 495h274l-6 -33h-249l-44 -253h225l-6 -33h-225l-25 -143h266l-6 -33h-303l16 91h-210zM324 124l38 219l26 97q-37 -55 -59 -82l-194 -234h189z" />
    <glyph glyph-name="Ccedillasmall" unicode="&#xf7e7;" horiz-adv-x="545" 
d="M237 -3q-81 17 -132.5 81t-51.5 154q0 115 77.5 193t188.5 78q127 0 189 -96l-29 -20q-56 82 -161 82q-95 0 -160 -68t-65 -168q0 -90 54.5 -148.5t141.5 -58.5q101 0 169 79l28 -24q-78 -89 -198 -89q-12 0 -17 1l-9 -52q29 -4 49.5 -27.5t20.5 -56.5q0 -39 -26.5 -62
t-64.5 -23q-34 0 -59 17.5t-35 41.5l30 17q19 -43 63 -43q24 0 39.5 15t15.5 38q0 24 -14.5 39.5t-43.5 15.5h-14z" />
    <glyph glyph-name="Egravesmall" unicode="&#xf7e8;" horiz-adv-x="436" 
d="M45 0l87 495h286l-6 -33h-249l-44 -253h225l-6 -33h-225l-25 -143h266l-6 -33h-303zM261 565l-86 195h46l72 -195h-32z" />
    <glyph glyph-name="Eacutesmall" unicode="&#xf7e9;" horiz-adv-x="436" 
d="M45 0l87 495h286l-6 -33h-249l-44 -253h225l-6 -33h-225l-25 -143h266l-6 -33h-303zM267 565l106 195h49l-122 -195h-33z" />
    <glyph glyph-name="Ecircumflexsmall" unicode="&#xf7ea;" horiz-adv-x="436" 
d="M45 0l87 495h286l-6 -33h-249l-44 -253h225l-6 -33h-225l-25 -143h266l-6 -33h-303zM165 562l142 182h9l84 -182h-34l-62 125l-102 -125h-37z" />
    <glyph glyph-name="Edieresissmall" unicode="&#xf7eb;" horiz-adv-x="436" 
d="M45 0l87 495h286l-6 -33h-249l-44 -253h225l-6 -33h-225l-25 -143h266l-6 -33h-303zM364 589q-13 0 -22.5 9.5t-9.5 22.5t9.5 22.5t22.5 9.5t22.5 -9.5t9.5 -22.5t-9.5 -22.5t-22.5 -9.5zM212 589q-13 0 -22.5 9.5t-9.5 22.5t9.5 22.5t22.5 9.5t22.5 -9.5t9.5 -22.5
t-9.5 -22.5t-22.5 -9.5z" />
    <glyph glyph-name="Igravesmall" unicode="&#xf7ec;" horiz-adv-x="208" 
d="M49 0l87 495h38l-87 -495h-38zM141 565l-86 195h46l72 -195h-32z" />
    <glyph glyph-name="Iacutesmall" unicode="&#xf7ed;" horiz-adv-x="208" 
d="M49 0l87 495h38l-87 -495h-38zM149 565l106 195h49l-122 -195h-33z" />
    <glyph glyph-name="Icircumflexsmall" unicode="&#xf7ee;" horiz-adv-x="208" 
d="M49 0l87 495h38l-87 -495h-38zM47 562l142 182h9l84 -182h-34l-62 125l-102 -125h-37z" />
    <glyph glyph-name="Idieresissmall" unicode="&#xf7ef;" horiz-adv-x="208" 
d="M49 0l87 495h38l-87 -495h-38zM250 589q-13 0 -22.5 9.5t-9.5 22.5t9.5 22.5t22.5 9.5t22.5 -9.5t9.5 -22.5t-9.5 -22.5t-22.5 -9.5zM98 589q-13 0 -22.5 9.5t-9.5 22.5t9.5 22.5t22.5 9.5t22.5 -9.5t9.5 -22.5t-9.5 -22.5t-22.5 -9.5z" />
    <glyph glyph-name="Ethsmall" unicode="&#xf7f0;" 
d="M77 178h-60l6 33h60l50 284h106q109 0 167.5 -59.5t58.5 -157.5q0 -126 -76 -202t-213 -76h-130zM121 211h138l-6 -33h-138l-25 -145h82q124 0 188.5 67t64.5 179q0 83 -47 133t-142 50h-71z" />
    <glyph glyph-name="Ntildesmall" unicode="&#xf7f1;" horiz-adv-x="531" 
d="M405 -6l-226 373l-30 58q-1 -37 -6 -65l-63 -360h-35l88 500h8l224 -368l32 -65q2 45 7 73l62 355h35l-88 -501h-8zM224 556l-34 5q20 96 82 96q25 0 63 -36q2 -2 6 -5q29 -27 42 -28q16 0 26 14.5t20 53.5l34 -5q-19 -96 -82 -96q-28 0 -64 36l-6.5 6.5l-6 6l-5 5
t-5.5 5t-5 3.5l-4.5 3t-4.5 2t-5 1.5t-5 0.5q-16 0 -26 -14.5t-20 -53.5z" />
    <glyph glyph-name="Ogravesmall" unicode="&#xf7f2;" horiz-adv-x="595" 
d="M290 -8q-100 0 -168.5 67t-68.5 171q0 116 78.5 194.5t189.5 78.5q100 0 168.5 -66t68.5 -170q0 -116 -78.5 -195.5t-189.5 -79.5zM291 26q96 0 162 70t66 172q0 88 -56 144.5t-143 56.5q-97 0 -162.5 -69t-65.5 -170q0 -88 56 -146t143 -58zM311 565l-86 195h46l72 -195
h-32z" />
    <glyph glyph-name="Oacutesmall" unicode="&#xf7f3;" horiz-adv-x="595" 
d="M290 -8q-100 0 -168.5 67t-68.5 171q0 116 78.5 194.5t189.5 78.5q100 0 168.5 -66t68.5 -170q0 -116 -78.5 -195.5t-189.5 -79.5zM291 26q96 0 162 70t66 172q0 88 -56 144.5t-143 56.5q-97 0 -162.5 -69t-65.5 -170q0 -88 56 -146t143 -58zM321 565l106 195h49
l-122 -195h-33z" />
    <glyph glyph-name="Ocircumflexsmall" unicode="&#xf7f4;" horiz-adv-x="595" 
d="M290 -8q-100 0 -168.5 67t-68.5 171q0 116 78.5 194.5t189.5 78.5q100 0 168.5 -66t68.5 -170q0 -116 -78.5 -195.5t-189.5 -79.5zM291 26q96 0 162 70t66 172q0 88 -56 144.5t-143 56.5q-97 0 -162.5 -69t-65.5 -170q0 -88 56 -146t143 -58zM214 562l142 182h9l84 -182
h-34l-62 125l-102 -125h-37z" />
    <glyph glyph-name="Otildesmall" unicode="&#xf7f5;" horiz-adv-x="595" 
d="M290 -8q-100 0 -168.5 67t-68.5 171q0 116 78.5 194.5t189.5 78.5q100 0 168.5 -66t68.5 -170q0 -116 -78.5 -195.5t-189.5 -79.5zM291 26q96 0 162 70t66 172q0 88 -56 144.5t-143 56.5q-97 0 -162.5 -69t-65.5 -170q0 -88 56 -146t143 -58zM237 556l-34 5q19 96 82 96
q25 0 63 -36q2 -2 6 -5q29 -27 42 -28q16 0 26 14.5t20 53.5l34 -5q-19 -96 -82 -96q-28 0 -64 36l-6.5 6.5l-6 6l-5 5t-5.5 5t-5 3.5l-4.5 3t-4.5 2t-5 1.5t-5 0.5q-16 0 -26 -14.5t-20 -53.5z" />
    <glyph glyph-name="Odieresissmall" unicode="&#xf7f6;" horiz-adv-x="595" 
d="M290 -8q-100 0 -168.5 67t-68.5 171q0 116 78.5 194.5t189.5 78.5q100 0 168.5 -66t68.5 -170q0 -116 -78.5 -195.5t-189.5 -79.5zM291 26q96 0 162 70t66 172q0 88 -56 144.5t-143 56.5q-97 0 -162.5 -69t-65.5 -170q0 -88 56 -146t143 -58zM424 589q-13 0 -22.5 9.5
t-9.5 22.5t9.5 22.5t22.5 9.5t22.5 -9.5t9.5 -22.5t-9.5 -22.5t-22.5 -9.5zM272 589q-13 0 -22.5 9.5t-9.5 22.5t9.5 22.5t22.5 9.5t22.5 -9.5t9.5 -22.5t-9.5 -22.5t-22.5 -9.5z" />
    <glyph glyph-name="Oslashsmall" unicode="&#xf7f8;" horiz-adv-x="595" 
d="M503 422q55 -65 55 -155q0 -116 -78.5 -195.5t-189.5 -79.5q-93 0 -160 59l-59 -58l-22 21l59 59q-55 66 -55 157q0 116 78.5 194.5t189.5 78.5q94 0 162 -60l58 59l20 -22zM134 99l324 320q-55 50 -138 50q-97 0 -162.5 -69t-65.5 -170q0 -78 42 -131zM478 397
l-324 -321q55 -50 137 -50q96 0 162 70t66 172q0 75 -41 129z" />
    <glyph glyph-name="Ugravesmall" unicode="&#xf7f9;" horiz-adv-x="491" 
d="M228 -6q-78 0 -123.5 49.5t-30.5 137.5l55 314h38l-55 -314q-14 -76 19.5 -114.5t97.5 -38.5q117 0 137 123l59 344h38l-60 -348q-26 -153 -175 -153zM284 565l-86 195h46l72 -195h-32z" />
    <glyph glyph-name="Uacutesmall" unicode="&#xf7fa;" horiz-adv-x="491" 
d="M228 -6q-78 0 -123.5 49.5t-30.5 137.5l55 314h38l-55 -314q-14 -76 19.5 -114.5t97.5 -38.5q117 0 137 123l59 344h38l-60 -348q-26 -153 -175 -153zM285 565l106 195h49l-122 -195h-33z" />
    <glyph glyph-name="Ucircumflexsmall" unicode="&#xf7fb;" horiz-adv-x="491" 
d="M228 -6q-78 0 -123.5 49.5t-30.5 137.5l55 314h38l-55 -314q-14 -76 19.5 -114.5t97.5 -38.5q117 0 137 123l59 344h38l-60 -348q-26 -153 -175 -153zM185 562l142 182h9l84 -182h-34l-62 125l-102 -125h-37z" />
    <glyph glyph-name="Udieresissmall" unicode="&#xf7fc;" horiz-adv-x="491" 
d="M228 -6q-78 0 -123.5 49.5t-30.5 137.5l55 314h38l-55 -314q-14 -76 19.5 -114.5t97.5 -38.5q117 0 137 123l59 344h38l-60 -348q-26 -153 -175 -153zM388 589q-13 0 -22.5 9.5t-9.5 22.5t9.5 22.5t22.5 9.5t22.5 -9.5t9.5 -22.5t-9.5 -22.5t-22.5 -9.5zM236 589
q-13 0 -22.5 9.5t-9.5 22.5t9.5 22.5t22.5 9.5t22.5 -9.5t9.5 -22.5t-9.5 -22.5t-22.5 -9.5z" />
    <glyph glyph-name="Yacutesmall" unicode="&#xf7fd;" horiz-adv-x="486" 
d="M215 156l-123 339h41l90 -251q4 -12 8 -29t5 -27l2 -11q18 40 37 67l179 251h42l-244 -341l-27 -154h-38zM281 565l106 195h49l-122 -195h-33z" />
    <glyph glyph-name="Thornsmall" unicode="&#xf7fe;" horiz-adv-x="448" 
d="M159 436h78q83 0 128 -47t45 -119q0 -93 -56 -148.5t-159 -55.5h-102l-11 -66h-37l87 495h38zM99 99h95q91 0 134 47t44 124q1 60 -33.5 96.5t-104.5 36.5h-81z" />
    <glyph glyph-name="Ydieresissmall" unicode="&#xf7ff;" horiz-adv-x="486" 
d="M215 156l-123 339h41l90 -251q4 -12 8 -29t5 -27l2 -11q18 40 37 67l179 251h42l-244 -341l-27 -154h-38zM385 589q-13 0 -22.5 9.5t-9.5 22.5t9.5 22.5t22.5 9.5t22.5 -9.5t9.5 -22.5t-9.5 -22.5t-22.5 -9.5zM233 589q-13 0 -22.5 9.5t-9.5 22.5t9.5 22.5t22.5 9.5
t22.5 -9.5t9.5 -22.5t-9.5 -22.5t-22.5 -9.5z" />
    <glyph glyph-name="Q.alt1" horiz-adv-x="786" 
d="M394 -8q5 -3 15 -9.5t15 -10.5q26 -18 44 -28.5t48 -19.5t62 -9q65 0 109 46l29 -27q-53 -57 -138 -57q-79 0 -178 70q-32 22 -51.5 33.5t-52 23.5t-63.5 12q-78 0 -129 -76l-28 22q52 76 132 85q-62 42 -97.5 111t-35.5 156q0 160 105.5 267t258.5 107q137 0 228.5 -89
t91.5 -230q0 -161 -106 -269t-259 -108zM395 28q137 0 230 98.5t93 242.5q0 124 -77.5 203.5t-201.5 79.5q-137 0 -230 -97t-93 -240q0 -125 77 -206t202 -81z" />
    <glyph glyph-name="apple" horiz-adv-x="180" 
d="M96 197q-15 0 -27.5 12t-12.5 28q0 17 12 28.5t28 11.5t28 -11.5t12 -28.5q0 -16 -12 -28t-28 -12z" />
    <glyph glyph-name="G.alt" horiz-adv-x="774" 
d="M396 -8q-139 0 -229 91t-90 232q0 161 107 267t259 106q185 0 261 -132l-34 -20q-68 116 -229 116q-135 0 -229 -97t-94 -237q0 -129 78 -209.5t202 -80.5t202 68t97 168h-260l6 35h300q-16 -139 -110 -223t-237 -84z" />
    <glyph glyph-name="M.alt" horiz-adv-x="794" 
d="M6 0l211 689h7l157 -441l17 -65q14 32 37 65l305 441h7l-31 -689h-40l23 507l10 89q-18 -40 -45 -79l-272 -393h-7l-140 393l-23 81q-9 -50 -20 -85l-157 -513h-39z" />
    <glyph glyph-name="Q.alt" horiz-adv-x="786" 
d="M390 -7l-28 -157h-37l28 159q-122 14 -200 101t-78 218q0 160 105.5 267t258.5 107q137 0 228.5 -89t91.5 -230q0 -161 -106 -268.5t-259 -107.5h-4zM359 29l28 154h37l-28 -156q137 1 229.5 99.5t92.5 242.5q0 124 -77.5 203.5t-201.5 79.5q-137 0 -230 -97t-93 -240
q0 -116 66.5 -195t176.5 -91z" />
    <glyph glyph-name="e.alt" horiz-adv-x="499" 
d="M90 196v-4q0 -71 44.5 -118.5t114.5 -47.5q91 0 143 59l25 -22q-63 -71 -168 -71q-85 0 -141.5 56.5t-56.5 144.5q0 93 63 158.5t153 65.5t140 -62.5t41 -158.5h-358zM93 228h319q0 69 -37 112.5t-109 43.5q-67 0 -114.5 -44t-58.5 -112z" />
    <glyph glyph-name="u.alt" horiz-adv-x="478" 
d="M216 -8q-77 0 -119 46.5t-27 134.5l41 235h38l-42 -237q-14 -77 17.5 -111t90.5 -34q60 0 95 32t48 106l43 244h38l-44 -252q-14 -84 -61.5 -124t-117.5 -40z" />
    <glyph glyph-name="eacute.alt" horiz-adv-x="499" 
d="M90 196v-4q0 -71 44.5 -118.5t114.5 -47.5q91 0 143 59l25 -22q-63 -71 -168 -71q-85 0 -141.5 56.5t-56.5 144.5q0 93 63 158.5t153 65.5t140 -62.5t41 -158.5h-358zM93 228h319q0 69 -37 112.5t-109 43.5q-67 0 -114.5 -44t-58.5 -112zM271 497l106 195h49l-122 -195
h-33z" />
    <glyph glyph-name="egrave.alt" horiz-adv-x="499" 
d="M90 196v-4q0 -71 44.5 -118.5t114.5 -47.5q91 0 143 59l25 -22q-63 -71 -168 -71q-85 0 -141.5 56.5t-56.5 144.5q0 93 63 158.5t153 65.5t140 -62.5t41 -158.5h-358zM93 228h319q0 69 -37 112.5t-109 43.5q-67 0 -114.5 -44t-58.5 -112zM255 497l-86 195h46l72 -195h-32
z" />
    <glyph glyph-name="ecircumflex.alt" horiz-adv-x="499" 
d="M90 196v-4q0 -71 44.5 -118.5t114.5 -47.5q91 0 143 59l25 -22q-63 -71 -168 -71q-85 0 -141.5 56.5t-56.5 144.5q0 93 63 158.5t153 65.5t140 -62.5t41 -158.5h-358zM93 228h319q0 69 -37 112.5t-109 43.5q-67 0 -114.5 -44t-58.5 -112zM166 494l142 182h9l84 -182h-34
l-62 125l-102 -125h-37z" />
    <glyph glyph-name="edieresis.alt" horiz-adv-x="499" 
d="M90 196v-4q0 -71 44.5 -118.5t114.5 -47.5q91 0 143 59l25 -22q-63 -71 -168 -71q-85 0 -141.5 56.5t-56.5 144.5q0 93 63 158.5t153 65.5t140 -62.5t41 -158.5h-358zM93 228h319q0 69 -37 112.5t-109 43.5q-67 0 -114.5 -44t-58.5 -112zM368 521q-13 0 -22.5 9.5
t-9.5 22.5t9.5 22.5t22.5 9.5t22.5 -9.5t9.5 -22.5t-9.5 -22.5t-22.5 -9.5zM216 521q-13 0 -22.5 9.5t-9.5 22.5t9.5 22.5t22.5 9.5t22.5 -9.5t9.5 -22.5t-9.5 -22.5t-22.5 -9.5z" />
    <glyph glyph-name="uacute.alt" horiz-adv-x="478" 
d="M216 -8q-77 0 -119 46.5t-27 134.5l41 235h38l-42 -237q-14 -77 17.5 -111t90.5 -34q60 0 95 32t48 106l43 244h38l-44 -252q-14 -84 -61.5 -124t-117.5 -40zM271 497l106 195h49l-122 -195h-33z" />
    <glyph glyph-name="ugrave.alt" horiz-adv-x="478" 
d="M216 -8q-77 0 -119 46.5t-27 134.5l41 235h38l-42 -237q-14 -77 17.5 -111t90.5 -34q60 0 95 32t48 106l43 244h38l-44 -252q-14 -84 -61.5 -124t-117.5 -40zM267 497l-86 195h46l72 -195h-32z" />
    <glyph glyph-name="ucircumflex.alt" horiz-adv-x="478" 
d="M216 -8q-77 0 -119 46.5t-27 134.5l41 235h38l-42 -237q-14 -77 17.5 -111t90.5 -34q60 0 95 32t48 106l43 244h38l-44 -252q-14 -84 -61.5 -124t-117.5 -40zM171 494l142 182h9l84 -182h-34l-62 125l-102 -125h-37z" />
    <glyph glyph-name="udieresis.alt" horiz-adv-x="478" 
d="M216 -8q-77 0 -119 46.5t-27 134.5l41 235h38l-42 -237q-14 -77 17.5 -111t90.5 -34q60 0 95 32t48 106l43 244h38l-44 -252q-14 -84 -61.5 -124t-117.5 -40zM372 521q-13 0 -22.5 9.5t-9.5 22.5t9.5 22.5t22.5 9.5t22.5 -9.5t9.5 -22.5t-9.5 -22.5t-22.5 -9.5zM220 521
q-13 0 -22.5 9.5t-9.5 22.5t9.5 22.5t22.5 9.5t22.5 -9.5t9.5 -22.5t-9.5 -22.5t-22.5 -9.5z" />
    <glyph glyph-name="zerolining" horiz-adv-x="686" 
d="M338 -8q-124 0 -199 84t-75 222q0 171 95 280.5t235 109.5q124 0 200 -84t76 -222q0 -171 -96 -280.5t-236 -109.5zM341 28q126 0 207 101t81 251q0 124 -64 198t-172 74q-126 0 -207 -101t-81 -251q0 -124 64 -198t172 -74z" />
    <glyph glyph-name="onelining" horiz-adv-x="276" 
d="M92 0l114 645h-104l6 35h143l-120 -680h-39z" />
    <glyph glyph-name="twolining" horiz-adv-x="509" 
d="M-10 0v4l320 291q72 65 106.5 114t34.5 113q0 58 -36 94t-100 36q-130 0 -177 -144l-37 9q23 83 80 127t135 44t126.5 -47.5t48.5 -122.5q0 -68 -41.5 -125t-116.5 -125l-209 -189q-11 -10 -27 -22.5t-26 -19.5l-10 -7q40 5 68 5h281l-6 -35h-414z" />
    <glyph glyph-name="threelining" horiz-adv-x="524" 
d="M238 -8q-76 0 -134 38t-82 89l33 18q59 -109 183 -109q94 0 149.5 53t55.5 143q0 81 -50.5 134.5t-137.5 53.5q-34 0 -63 -9l-3 5l208 204l45 38q-30 -5 -55 -5h-251l6 35h368v-4l-201 -197q-10 -9 -21 -18t-18 -13l-6 -4q99 -1 159 -63t60 -157q0 -107 -69 -169.5
t-176 -62.5z" />
    <glyph glyph-name="fourlining" horiz-adv-x="547" 
d="M435 174h68l-6 -35h-68l-25 -139h-39l25 139h-378v4l512 554h3zM396 174l62 356l17 74q-26 -38 -50 -64l-289 -315q-9 -10 -24.5 -24t-25.5 -23l-11 -8q43 4 70 4h251z" />
    <glyph glyph-name="fivelining" horiz-adv-x="517" 
d="M243 -8q-69 0 -127 35t-86 87l34 19q25 -47 72 -76t107 -29q91 0 144 58t53 150q0 82 -46 136.5t-131 54.5q-76 0 -148 -50l-4 2l53 301h329l-6 -35h-294l-37 -209q47 26 108 26q98 0 157 -65t59 -161q0 -108 -65.5 -176t-171.5 -68z" />
    <glyph glyph-name="sixlining" horiz-adv-x="531" 
d="M262 -8q-93 0 -154 61t-61 154q0 87 66 165l265 308h47l-196 -228q-8 -9 -23 -22.5t-26 -21.5l-10 -9q58 42 121 42q85 0 142.5 -59t57.5 -149q0 -103 -65 -172t-164 -69zM263 28q82 0 135 58t53 148q0 78 -46.5 125t-122.5 47q-85 0 -140 -58.5t-55 -142.5
q0 -79 48.5 -128t127.5 -49z" />
    <glyph glyph-name="sevenlining" horiz-adv-x="522" 
d="M80 0l426 645h-395l6 35h452v-4l-446 -676h-43z" />
    <glyph glyph-name="eightlining" horiz-adv-x="537" 
d="M225 386q-83 39 -83 134q0 74 55 121t136 47q74 0 120 -43.5t46 -109.5q0 -61 -36 -102.5t-96 -56.5q60 -21 95.5 -67t35.5 -109q0 -93 -66.5 -150.5t-172.5 -57.5q-95 0 -158.5 54.5t-63.5 141.5q0 78 51 131t137 67zM309 396q66 0 108.5 40t42.5 101q0 51 -34.5 84
t-93.5 33q-68 0 -109.5 -38t-41.5 -97q0 -55 34 -89t94 -34zM260 28q92 0 144.5 48t52.5 124q0 73 -49 118.5t-130 45.5q-88 0 -144.5 -50t-56.5 -125q0 -73 51.5 -117t131.5 -44z" />
    <glyph glyph-name="ninelining" horiz-adv-x="540" 
d="M176 0l180 215l60 60q-56 -44 -122 -44q-88 0 -147 62.5t-59 153.5q0 100 68 170.5t168 70.5q94 0 155 -62t61 -153q0 -93 -75 -183l-242 -290h-47zM304 266q82 0 139.5 62t57.5 145q0 77 -48.5 128t-129.5 51q-87 0 -141.5 -60t-54.5 -144q0 -78 48 -130t129 -52z" />
    <glyph glyph-name="minuslining" horiz-adv-x="180" 
d="M96 197q-15 0 -27.5 12t-12.5 28q0 17 12 28.5t28 11.5t28 -11.5t12 -28.5q0 -16 -12 -28t-28 -12z" />
    <glyph glyph-name="multiplylining" horiz-adv-x="180" 
d="M96 197q-15 0 -27.5 12t-12.5 28q0 17 12 28.5t28 11.5t28 -11.5t12 -28.5q0 -16 -12 -28t-28 -12z" />
    <glyph glyph-name="spacelining" horiz-adv-x="244" 
 />
    <glyph glyph-name="numbersignlining" horiz-adv-x="415" 
d="M178 532h-84l6 33h86l29 115h36l-29 -115h111l29 115h36l-29 -115h74l-6 -33h-76l-31 -125h85l-6 -33h-87l-28 -111h-37l28 111h-110l-28 -111h-36l28 111h-73l6 33h75zM325 532h-111l-31 -125h110z" />
    <glyph glyph-name="dollarlining" horiz-adv-x="524" 
d="M196 -6q-118 14 -184 131l33 19q59 -105 157 -116l57 326l-7 5q-117 74 -117 170q0 74 51 116.5t118 42.5h14l15 85h37l-16 -90q75 -16 121 -92l-30 -21q-41 65 -97 78l-48 -273l22 -14q66 -42 95.5 -82.5t29.5 -99.5q0 -81 -58.5 -133.5t-155.5 -53.5l-19 -108h-37z
M312 653h-9q-54 0 -91 -32.5t-37 -89.5q0 -44 21 -74t70 -62zM239 27q78 3 123 46t45 111q0 46 -23.5 76.5t-77.5 64.5l-13 8z" />
    <glyph glyph-name="percentlining" horiz-adv-x="735" 
d="M223 368q-62 0 -104 43t-42 107q0 72 48.5 121t113.5 49q62 0 104.5 -43t42.5 -107q0 -73 -48 -121.5t-115 -48.5zM106 0l528 680h43l-528 -680h-43zM543 -8q-62 0 -104 43t-42 107q0 72 48.5 121t113.5 49q62 0 104.5 -43t42.5 -107q0 -73 -48 -121.5t-115 -48.5z
M224 402q52 0 88 37.5t36 98.5q0 51 -30 83.5t-80 32.5q-52 0 -87.5 -37.5t-35.5 -98.5q0 -52 29.5 -84t79.5 -32zM544 26q52 0 88 37.5t36 98.5q0 51 -30 83.5t-80 32.5q-52 0 -87.5 -37.5t-35.5 -98.5q0 -52 29.5 -84t79.5 -32z" />
    <glyph glyph-name="parenleftlining" horiz-adv-x="248" 
d="M135 -136q-101 131 -101 335q0 292 251 519l23 -24q-233 -221 -233 -492q0 -186 87 -317z" />
    <glyph glyph-name="parenrightlining" horiz-adv-x="247" 
d="M-7 -136l-23 24q233 221 233 496q0 182 -87 313l27 21q101 -131 101 -331q0 -296 -251 -523z" />
    <glyph glyph-name="pluslining" horiz-adv-x="383" 
d="M229 308l-27 -152h-37l26 152h-135l6 35h135l27 152h37l-27 -152h135l-6 -35h-134z" />
    <glyph glyph-name="commalining" horiz-adv-x="175" 
d="M-11 -111l53 109q-23 6 -23 36q0 16 12 27.5t27 11.5q17 0 28 -11t11 -28q0 -12 -10 -28l-73 -117h-25z" />
    <glyph glyph-name="periodlining" horiz-adv-x="176" 
d="M58 -7q-15 0 -27 11.5t-12 27.5q0 17 12 28.5t27 11.5q16 0 27.5 -11.5t11.5 -28.5q0 -16 -11.5 -27.5t-27.5 -11.5z" />
    <glyph glyph-name="colonlining" horiz-adv-x="186" 
d="M102 214q-15 0 -27 11.5t-12 27.5q0 17 12 28.5t27 11.5q16 0 27.5 -11.5t11.5 -28.5q0 -16 -11.5 -27.5t-27.5 -11.5zM63 -7q-15 0 -27 11.5t-12 27.5q0 17 12 28.5t27 11.5q16 0 27.5 -11.5t11.5 -28.5q0 -16 -11.5 -27.5t-27.5 -11.5z" />
    <glyph glyph-name="semicolonlining" horiz-adv-x="186" 
d="M102 214q-15 0 -27 11.5t-12 27.5q0 17 12 28.5t27 11.5q16 0 27.5 -11.5t11.5 -28.5q0 -16 -11.5 -27.5t-27.5 -11.5zM-6 -111l53 109q-23 6 -23 36q0 16 12 27.5t27 11.5q17 0 28 -11t11 -28q0 -12 -10 -28l-73 -117h-25z" />
    <glyph glyph-name="lesslining" horiz-adv-x="377" 
d="M320 162l-253 156v11l309 154l-7 -43l-243 -118l200 -122z" />
    <glyph glyph-name="equallining" horiz-adv-x="383" 
d="M71 364l7 36h296l-7 -36h-296zM48 232l6 36h296l-6 -36h-296z" />
    <glyph glyph-name="greaterlining" horiz-adv-x="377" 
d="M43 162l7 43l243 118l-200 122l6 38l253 -156v-11z" />
    <glyph glyph-name="bracketleftlining" horiz-adv-x="285" 
d="M20 -128l150 850h168l-6 -34h-128l-138 -782h128l-6 -34h-168z" />
    <glyph glyph-name="bracketrightlining" horiz-adv-x="285" 
d="M-21 -128l6 34h128l138 782h-128l6 34h168l-150 -850h-168z" />
    <glyph glyph-name="braceleftlining" horiz-adv-x="341" 
d="M205 -128q-127 0 -101 149l27 154q7 42 -4 56.5t-40 14.5h-58l6 34h54q60 0 74 76l43 234q15 80 50 106t86 26h52l-6 -34h-48q-40 0 -62 -20.5t-33 -80.5l-43 -239q-7 -41 -24 -59.5t-45 -24.5q50 -16 37 -92l-27 -156q-11 -64 6 -87t58 -23h43l-6 -34h-39z" />
    <glyph glyph-name="bracerightlining" horiz-adv-x="341" 
d="M-21 -128l6 34h48q40 0 62 20.5t33 80.5l30 171q7 41 24 59.5t45 24.5q-50 16 -37 92l40 224q11 64 -6 87t-58 23h-43l6 34h39q127 0 101 -149l-40 -222q-7 -42 4 -56.5t40 -14.5h58l-6 -34h-54q-60 0 -74 -76l-30 -166q-8 -42 -22 -70t-34 -40.5t-38 -17t-42 -4.5h-52z
" />
    <glyph glyph-name="degreelining" horiz-adv-x="353" 
d="M238 437q-50 0 -85.5 36t-35.5 87q0 54 36.5 91t88.5 37q50 0 85.5 -36t35.5 -87q0 -54 -36.5 -91t-88.5 -37zM239 469q40 0 64.5 27.5t24.5 69.5q0 39 -24 64.5t-62 25.5q-40 0 -65 -27.5t-25 -69.5q0 -39 24 -64.5t63 -25.5z" />
    <glyph glyph-name="centlining" horiz-adv-x="455" 
d="M192 -1q-63 17 -102 71t-39 123q0 93 61 158t153 66l19 106h34l-19 -108q74 -10 120 -67l-27 -23q-37 49 -99 56l-62 -354q5 -1 15 -1q75 0 123 45l24 -25q-62 -54 -147 -54q-14 0 -21 1l-19 -109h-34zM259 383q-76 -4 -122.5 -57.5t-46.5 -133.5q0 -56 29.5 -99.5
t78.5 -59.5z" />
    <glyph glyph-name="sterlinglining" horiz-adv-x="566" 
d="M195 279h-97l6 33h86q-17 98 -17 162q0 96 54 155t150 59q69 0 116 -32t68 -88l-34 -15q-21 50 -56 74.5t-94 24.5q-79 0 -120.5 -46t-41.5 -132q0 -46 15 -162h184l-6 -33h-174q10 -68 10 -126q0 -24 -5 -51q56 -48 84 -61q30 -13 62 -13q36 0 59 13.5t46 42.5l29 -22
q-29 -37 -59.5 -53.5t-76.5 -16.5q-32 0 -62.5 13t-47.5 25.5t-46 37.5q-34 -76 -118 -76q-37 0 -64.5 22.5t-27.5 59.5q0 42 27 65t69 23q47 0 93 -34q1 8 1 25q0 56 -12 126zM199 92q-48 37 -85 37q-27 0 -44.5 -14.5t-17.5 -39.5q0 -23 15.5 -36.5t41.5 -13.5q68 0 90 67
z" />
    <glyph glyph-name="sectionlining" horiz-adv-x="527" 
d="M169 443q-13 33 -13 69q0 76 51 126t130 50q109 0 156 -98l-34 -18q-42 80 -123 80q-64 0 -101 -39.5t-37 -99.5q0 -85 87 -131l95 -51q57 -31 82 -65.5t25 -79.5q0 -93 -112 -130q18 -34 18 -74q0 -72 -49 -117t-127 -45q-63 0 -112.5 30.5t-73.5 80.5l34 19
q52 -94 150 -94q63 0 99.5 35.5t36.5 92.5q0 45 -22 71t-71 52l-92 49q-57 30 -81 64.5t-24 81.5q0 51 29.5 86.5t78.5 54.5zM356 83q91 33 91 102q0 36 -20 61.5t-68 51.5l-95 51q-55 30 -79 67q-84 -35 -84 -112q0 -36 19 -62.5t68 -52.5l92 -49q48 -25 76 -57z" />
    <glyph glyph-name="yenlining" horiz-adv-x="574" 
d="M357 281l-50 -75l-6 -33h208l-6 -32h-208l-24 -141h-39l25 141h-207l6 32h206l6 33l-23 75h-170l5 32h154l-114 367h41l122 -394l10 -52q12 32 25 52l262 394h42l-244 -367h155l-5 -32h-171z" />
    <glyph glyph-name="florinlining" horiz-adv-x="324" 
d="M128 276h-80l5 32h81l46 262q21 118 102 118q56 0 86 -52l-28 -20q-25 38 -57 38q-26 0 -41.5 -18.5t-24.5 -66.5l-46 -261h94l-5 -32h-95l-85 -488h-38z" />
    <glyph glyph-name="dividelining" horiz-adv-x="180" 
d="M96 197q-15 0 -27.5 12t-12.5 28q0 17 12 28.5t28 11.5t28 -11.5t12 -28.5q0 -16 -12 -28t-28 -12z" />
    <glyph glyph-name="perthousandlining" horiz-adv-x="1103" 
d="M223 368q-62 0 -104 43t-42 107q0 72 48.5 121t113.5 49q62 0 104.5 -43t42.5 -107q0 -73 -48 -121.5t-115 -48.5zM106 0l528 680h43l-528 -680h-43zM911 -8q-62 0 -104 43t-42 107q0 72 48.5 121t113.5 49q62 0 104.5 -43t42.5 -107q0 -73 -48 -121.5t-115 -48.5z
M543 -8q-62 0 -104 43t-42 107q0 72 48.5 121t113.5 49q62 0 104.5 -43t42.5 -107q0 -73 -48 -121.5t-115 -48.5zM224 402q52 0 88 37.5t36 98.5q0 51 -30 83.5t-80 32.5q-52 0 -87.5 -37.5t-35.5 -98.5q0 -52 29.5 -84t79.5 -32zM912 26q52 0 88 37.5t36 98.5
q0 51 -30 83.5t-80 32.5q-52 0 -87.5 -37.5t-35.5 -98.5q0 -52 29.5 -84t79.5 -32zM544 26q52 0 88 37.5t36 98.5q0 51 -30 83.5t-80 32.5q-52 0 -87.5 -37.5t-35.5 -98.5q0 -52 29.5 -84t79.5 -32z" />
    <glyph glyph-name="fl.alt" horiz-adv-x="461" 
d="M358 0q-62 0 -48 78l114 644h39l-117 -653q-6 -35 20 -35h49l-6 -34h-51zM131 375h-63l6 33h63l38 214q20 113 106 113q59 0 86 -51l-29 -19q-22 36 -57 36q-26 0 -43.5 -18t-25.5 -66l-37 -209h107l-6 -33h-107l-83 -473q-11 -64 -38 -89t-72 -25h-29l6 35h25
q27 0 44.5 17t26.5 67z" />
    <glyph glyph-name="ffl.alt" horiz-adv-x="693" 
d="M590 0q-62 0 -48 78l114 644h39l-117 -653q-6 -35 20 -35h49l-6 -34h-51zM363 375h-193l-83 -473q-11 -64 -38.5 -89t-72.5 -25h-29l6 35h25q27 0 44.5 17t26.5 67l82 468h-63l6 33h63l35 197q19 110 107 110q59 0 86 -51l-29 -19q-22 36 -57 36q-28 0 -44.5 -17.5
t-24.5 -63.5l-34 -192h193l38 214q20 113 106 113q59 0 86 -51l-29 -19q-22 36 -57 36q-26 0 -43.5 -18t-25.5 -66l-37 -209h107l-6 -33h-107l-79 -453q-11 -64 -38.5 -89t-72.5 -25h-29l6 35h25q27 0 44.5 17t26.5 67z" />
    <glyph glyph-name="Eurolining" horiz-adv-x="716" 
d="M146 372h-89l6 34h89q28 126 113.5 204t200.5 78q160 0 223 -132l-33 -18q-55 114 -190 114q-102 0 -174.5 -68t-97.5 -178h326l-6 -34h-326q-5 -38 -5 -72q0 -23 1 -34h311l-6 -34h-300q17 -95 79.5 -149.5t149.5 -54.5q138 0 218 118l31 -21q-88 -133 -249 -133
q-102 0 -177.5 64.5t-94.5 175.5h-114l6 34h104q-1 11 -1 33q0 35 5 73z" />
    <glyph glyph-name="minussmall" horiz-adv-x="180" 
d="M96 197q-15 0 -27.5 12t-12.5 28q0 17 12 28.5t28 11.5t28 -11.5t12 -28.5q0 -16 -12 -28t-28 -12z" />
    <glyph glyph-name="multiplysmall" horiz-adv-x="180" 
d="M96 197q-15 0 -27.5 12t-12.5 28q0 17 12 28.5t28 11.5t28 -11.5t12 -28.5q0 -16 -12 -28t-28 -12z" />
    <glyph glyph-name="spacesmall" horiz-adv-x="244" 
 />
    <glyph glyph-name="numbersignsmall" horiz-adv-x="408" 
d="M162 462h-84l6 33h86l29 115h36l-29 -115h111l29 115h36l-29 -115h74l-6 -33h-76l-31 -125h85l-6 -33h-87l-28 -111h-37l28 111h-110l-28 -111h-36l28 111h-73l6 33h75zM309 462h-111l-31 -125h110z" />
    <glyph glyph-name="dollarsmall" horiz-adv-x="404" 
d="M146 -5q-53 8 -91 36.5t-55 66.5l35 17q34 -74 116 -88l39 222l-11 5q-99 45 -99 126q0 59 43 91t109 32h3l18 102h34l-19 -106q76 -16 107 -85l-32 -17q-26 58 -81 70l-34 -196l19 -9q57 -26 83 -57.5t26 -76.5q0 -64 -48 -100t-126 -36h-3l-19 -108h-34zM229 470
q-49 0 -79.5 -21.5t-30.5 -67.5q0 -61 75 -95l3 -1zM185 25q61 1 96 28t35 78q0 33 -20 56t-64 43l-10 5z" />
    <glyph glyph-name="percentsmall" horiz-adv-x="732" 
d="M185 219q-56 0 -95.5 37.5t-39.5 96.5q0 63 45.5 106.5t105.5 43.5q55 0 94.5 -37.5t39.5 -95.5q0 -66 -45 -108.5t-105 -42.5zM157 0l393 495h43l-393 -495h-43zM547 -8q-56 0 -95.5 37.5t-39.5 96.5q0 63 45.5 106.5t105.5 43.5q55 0 94.5 -37.5t39.5 -95.5
q0 -66 -45 -108.5t-105 -42.5zM185 251q48 0 80 33t32 87q0 45 -26.5 72t-69.5 27q-48 0 -80.5 -32.5t-32.5 -84.5q0 -47 27 -74.5t70 -27.5zM547 24q48 0 80 33t32 87q0 45 -26.5 72t-69.5 27q-48 0 -80.5 -32.5t-32.5 -84.5q0 -47 27 -74.5t70 -27.5z" />
    <glyph glyph-name="parenleftsmall" horiz-adv-x="254" 
d="M159 -57q-114 147 -114 326q0 267 252 469l21 -25q-232 -191 -232 -441q0 -68 18 -132.5t36 -99.5t46 -77z" />
    <glyph glyph-name="parenrightsmall" horiz-adv-x="254" 
d="M6 -57l-21 25q232 191 232 441q0 68 -18 132.5t-36 99.5t-46 77l27 20q114 -147 114 -326q0 -267 -252 -469z" />
    <glyph glyph-name="plussmall" horiz-adv-x="355" 
d="M199 228l-23 -132h-37l23 132h-119l6 35h119l24 132h37l-23 -132h119l-6 -35h-120z" />
    <glyph glyph-name="commasmall" horiz-adv-x="175" 
d="M-11 -111l53 109q-23 6 -23 36q0 16 12 27.5t27 11.5q17 0 28 -11t11 -28q0 -12 -10 -28l-73 -117h-25z" />
    <glyph glyph-name="periodsmall" horiz-adv-x="176" 
d="M58 -7q-15 0 -27 11.5t-12 27.5q0 17 12 28.5t27 11.5q16 0 27.5 -11.5t11.5 -28.5q0 -16 -11.5 -27.5t-27.5 -11.5z" />
    <glyph glyph-name="slashsmall" horiz-adv-x="426" 
d="M-21 -128l456 850h44l-456 -850h-44z" />
    <glyph glyph-name="zerosmall" horiz-adv-x="526" 
d="M250 -8q-90 0 -146 63.5t-56 164.5q0 124 69.5 203.5t171.5 79.5q90 0 147 -64t57 -165q0 -123 -70.5 -202.5t-172.5 -79.5zM252 26q87 0 144 70.5t57 176.5q0 88 -45 142t-120 54q-88 0 -145 -71t-57 -177q0 -87 45.5 -141t120.5 -54z" />
    <glyph glyph-name="onesmall" horiz-adv-x="238" 
d="M86 0l82 461h-93l7 34h129l-87 -495h-38z" />
    <glyph glyph-name="twosmall" horiz-adv-x="394" 
d="M-5 0v7l240 209q53 46 76.5 81t23.5 79q0 40 -26.5 66t-68.5 26q-89 0 -125 -104l-37 10q18 60 60 94.5t102 34.5q58 0 96 -36.5t38 -92.5q0 -50 -27.5 -90.5t-86.5 -91.5l-138 -120l-62 -43q42 5 62 5h208l-6 -34h-329z" />
    <glyph glyph-name="threesmall" horiz-adv-x="403" 
d="M178 -8q-62 0 -106 30.5t-63 71.5l33 17q46 -85 136 -85q65 0 101 37t36 99q0 58 -36 94.5t-98 36.5q-28 0 -47 -7l-3 4l144 145l37 30q-33 -3 -51 -3h-172l6 33h280v-7l-135 -134q-8 -8 -18 -16t-16 -12l-6 -4q66 -1 109.5 -46.5t43.5 -113.5q0 -77 -48.5 -123.5
t-126.5 -46.5z" />
    <glyph glyph-name="foursmall" horiz-adv-x="449" 
d="M280 0l17 97h-286l4 20l383 383h8l-65 -370h55l-6 -33h-55l-17 -97h-38zM67 128q17 2 45 2h191l41 234l12 54q-15 -23 -36 -43l-214 -213z" />
    <glyph glyph-name="fivesmall" horiz-adv-x="402" 
d="M176 -8q-56 0 -99.5 27t-63.5 67l33 18q43 -78 130 -78q63 0 100.5 39t37.5 104q0 58 -32.5 94.5t-90.5 36.5q-56 0 -110 -32l-4 3l39 224h251l-5 -33h-218l-25 -145q33 15 76 15q71 0 114.5 -46.5t43.5 -116.5q0 -80 -49.5 -128.5t-127.5 -48.5z" />
    <glyph glyph-name="sixsmall" horiz-adv-x="426" 
d="M203 -8q-71 0 -118.5 47t-47.5 117q0 67 51 126l184 213h43l-117 -139q-10 -12 -27 -27t-29 -24l-12 -9q48 34 97 34q65 0 111 -46.5t46 -114.5q0 -77 -52 -127t-129 -50zM204 26q62 0 102 39.5t40 103.5q0 57 -36 93t-91 36q-63 0 -103.5 -41.5t-40.5 -100.5
q0 -58 36 -94t93 -36z" />
    <glyph glyph-name="sevensmall" horiz-adv-x="408" 
d="M57 0l303 461h-279l6 34h332v-7l-320 -488h-42z" />
    <glyph glyph-name="eightsmall" horiz-adv-x="421" 
d="M170 284q-63 31 -63 98q0 53 41.5 87t101.5 34q56 0 93 -35t37 -84q0 -44 -27.5 -72.5t-70.5 -38.5q44 -16 71 -48.5t27 -76.5q0 -70 -49 -113t-129 -43q-73 0 -122.5 43t-49.5 104q0 60 38 98t102 47zM239 294q46 0 75 25t29 65q0 36 -27 61.5t-67 25.5q-47 0 -76 -25.5
t-29 -64.5q0 -38 26.5 -62.5t68.5 -24.5zM202 26q66 0 103 34t37 89q0 49 -38 81t-96 32q-61 0 -100.5 -33.5t-39.5 -87.5q0 -52 38 -83.5t96 -31.5z" />
    <glyph glyph-name="ninesmall" horiz-adv-x="427" 
d="M139 0l110 132q12 15 29.5 32t29.5 26l11 9q-54 -35 -101 -35q-65 0 -111 47t-46 114q0 75 52 126.5t127 51.5q74 0 120 -46t46 -117q0 -75 -57 -142l-167 -198h-43zM227 196q61 0 101.5 41.5t40.5 101.5q0 57 -35 94t-94 37q-63 0 -102.5 -42t-39.5 -102
q0 -57 35.5 -93.5t93.5 -36.5z" />
    <glyph glyph-name="colonsmall" horiz-adv-x="186" 
d="M102 214q-15 0 -27 11.5t-12 27.5q0 17 12 28.5t27 11.5q16 0 27.5 -11.5t11.5 -28.5q0 -16 -11.5 -27.5t-27.5 -11.5zM63 -7q-15 0 -27 11.5t-12 27.5q0 17 12 28.5t27 11.5q16 0 27.5 -11.5t11.5 -28.5q0 -16 -11.5 -27.5t-27.5 -11.5z" />
    <glyph glyph-name="semicolonsmall" horiz-adv-x="186" 
d="M102 214q-15 0 -27 11.5t-12 27.5q0 17 12 28.5t27 11.5q16 0 27.5 -11.5t11.5 -28.5q0 -16 -11.5 -27.5t-27.5 -11.5zM-6 -111l53 109q-23 6 -23 36q0 16 12 27.5t27 11.5q17 0 28 -11t11 -28q0 -12 -10 -28l-73 -117h-25z" />
    <glyph glyph-name="lesssmall" horiz-adv-x="355" 
d="M276 105l-233 133v11l281 132l-7 -42l-212 -97l177 -99z" />
    <glyph glyph-name="equalsmall" horiz-adv-x="355" 
d="M59 283l6 36h265l-6 -36h-265zM39 170l6 36h265l-6 -36h-265z" />
    <glyph glyph-name="greatersmall" horiz-adv-x="355" 
d="M31 105l7 42l212 97l-177 99l6 38l233 -133v-11z" />
    <glyph glyph-name="bracketleftsmall" horiz-adv-x="285" 
d="M34 -52l138 784h168l-6 -34h-128l-126 -716h128l-6 -34h-168z" />
    <glyph glyph-name="bracketrightsmall" horiz-adv-x="285" 
d="M-7 -52l6 34h128l126 716h-128l6 34h168l-138 -784h-168z" />
    <glyph glyph-name="Q.alt1small" horiz-adv-x="595" 
d="M297 -8q1 0 3 -2t3 -2t11 -7.5t11.5 -9t11 -7.5t13 -7.5t12 -6.5t13.5 -6t13.5 -3.5t16 -3.5t15.5 -1q46 0 76 34l27 -24q-40 -44 -103 -44q-27 0 -56 12t-40.5 20t-41.5 29q-25 19 -35 25.5t-32 15.5t-43 9q-53 0 -91 -56l-27 22q34 50 89 61q-90 69 -90 190
q0 116 78.5 194.5t189.5 78.5q100 0 168.5 -66t68.5 -170q0 -114 -76 -193t-185 -82zM291 26q96 0 162 70t66 172q0 88 -56 144.5t-143 56.5q-97 0 -162.5 -69t-65.5 -170q0 -88 56 -146t143 -58z" />
    <glyph glyph-name="braceleftsmall" horiz-adv-x="341" 
d="M218 -52q-127 0 -101 149l14 78q7 42 -4 56.5t-40 14.5h-58l6 34h54q60 0 74 76l43 244q15 80 50 106t86 26h52l-6 -34h-48q-40 0 -61.5 -20.5t-32.5 -80.5l-44 -249q-7 -41 -24 -59.5t-45 -24.5q50 -16 37 -92l-14 -80q-11 -64 6 -87t58 -23h43l-6 -34h-39z" />
    <glyph glyph-name="bracerightsmall" horiz-adv-x="341" 
d="M-6 -52l6 34h48q40 0 62 20.5t33 80.5l16 95q7 41 24 59.5t45 24.5q-50 16 -37 92l42 234q11 64 -6 87t-58 23h-43l6 34h39q127 0 101 -149l-42 -232q-7 -42 4 -56.5t40 -14.5h58l-6 -34h-54q-60 0 -74 -76l-16 -90q-8 -42 -22 -70t-34 -40.5t-38 -17t-42 -4.5h-52z" />
    <glyph glyph-name="degreesmall" horiz-adv-x="322" 
d="M183 294q-43 0 -72 29t-29 71q0 46 32.5 77.5t77.5 31.5q43 0 71.5 -29t28.5 -71q0 -46 -32 -77.5t-77 -31.5zM183 323q33 0 53.5 23t20.5 58q0 31 -17.5 50.5t-48.5 19.5q-33 0 -54 -23t-21 -58q0 -31 18 -50.5t49 -19.5z" />
    <glyph glyph-name="centsmall" horiz-adv-x="355" 
d="M146 -1q-50 14 -81.5 56.5t-31.5 97.5q0 73 48.5 124t122.5 52l17 97h34l-18 -100q55 -12 88 -53l-26 -21q-27 35 -68 42l-47 -268h3q57 0 95 35l22 -24q-47 -43 -117 -43h-9l-17 -100h-34zM198 297q-57 -3 -92.5 -43.5t-35.5 -100.5q0 -44 22 -77t59 -45z" />
    <glyph glyph-name="sterlingsmall" horiz-adv-x="438" 
d="M141 215h-74l5 31h64q-9 56 -9 98q0 71 39.5 115t108.5 44q49 0 85 -24.5t54 -64.5l-32 -16q-34 71 -107 71q-52 0 -80.5 -32.5t-28.5 -92.5q0 -32 8 -98h132l-5 -31h-123q8 -51 8 -99q0 -21 -4 -36q21 -19 32 -27.5t31.5 -18t41.5 -9.5q50 0 85 44l27 -21
q-44 -56 -113 -56q-54 0 -114 58q-27 -58 -91 -58q-31 0 -52.5 19.5t-21.5 49.5q0 33 22 51.5t55 18.5q34 0 67 -25v9q0 34 -10 100zM146 73q-34 30 -61 30q-21 0 -34 -11t-13 -30q0 -18 12 -30t31 -12q50 0 65 53z" />
    <glyph glyph-name="sectionsmall" horiz-adv-x="402" 
d="M123 319q-12 24 -12 56q0 56 37 92t94 36q82 0 119 -73l-32 -18q-31 57 -87 57q-44 0 -67.5 -25.5t-23.5 -67.5q0 -61 58 -92l71 -39q43 -23 60.5 -48t17.5 -60q0 -68 -82 -94q14 -25 14 -56q0 -52 -35 -86t-93 -34q-47 0 -85 23.5t-57 59.5l32 19q41 -68 109 -68
q42 0 66 24t24 63q0 30 -15 47.5t-51 37.5l-66 37q-77 44 -77 106q0 72 81 103zM258 65q62 19 62 71q0 25 -13 42.5t-48 35.5l-70 38q-33 18 -53 44q-56 -23 -56 -77q0 -24 13 -42t46 -36l67 -37q33 -17 52 -39z" />
    <glyph glyph-name="yensmall" horiz-adv-x="450" 
d="M270 204l-36 -54l-4 -22h151l-6 -28h-150l-18 -100h-38l18 100h-149l6 28h148l4 24l-16 52h-124l6 28h109l-83 263h40l78 -256l13 -68q16 39 34 67l170 257h40l-175 -263h111l-6 -28h-123z" />
    <glyph glyph-name="florinsmall" horiz-adv-x="304" 
d="M109 235h-74l5 32h75l21 118q21 118 103 118q57 0 85 -50l-28 -20q-21 36 -57 36q-27 0 -41.5 -17.5t-23.5 -67.5l-21 -117h83l-5 -32h-84l-58 -329h-38z" />
    <glyph glyph-name="Eurosmall" horiz-adv-x="536" 
d="M107 277h-61l6 30h61q23 88 84.5 142t142.5 54q115 0 166 -99l-31 -17q-43 82 -136 82q-68 0 -117 -44.5t-69 -117.5h231l-6 -30h-231q-5 -30 -5 -57q0 -15 1 -23h220l-6 -30h-210q13 -65 56 -103t104 -38q95 0 153 84l29 -20q-67 -98 -183 -98q-74 0 -129 47.5
t-69 127.5h-82l6 30h72q-1 7 -1 23q0 21 4 57z" />
    <glyph glyph-name="perthousandsmall" horiz-adv-x="1066" 
d="M185 219q-56 0 -95.5 37.5t-39.5 96.5q0 63 45.5 106.5t105.5 43.5q55 0 94.5 -37.5t39.5 -95.5q0 -66 -45 -108.5t-105 -42.5zM157 0l393 495h43l-393 -495h-43zM881 -8q-56 0 -95.5 37.5t-39.5 96.5q0 63 45.5 106.5t105.5 43.5q55 0 94.5 -37.5t39.5 -95.5
q0 -66 -45 -108.5t-105 -42.5zM547 -8q-56 0 -95.5 37.5t-39.5 96.5q0 63 45.5 106.5t105.5 43.5q55 0 94.5 -37.5t39.5 -95.5q0 -66 -45 -108.5t-105 -42.5zM185 251q48 0 80 33t32 87q0 45 -26.5 72t-69.5 27q-48 0 -80.5 -32.5t-32.5 -84.5q0 -47 27 -74.5t70 -27.5z
M881 24q48 0 80 33t32 87q0 45 -26.5 72t-69.5 27q-48 0 -80.5 -32.5t-32.5 -84.5q0 -47 27 -74.5t70 -27.5zM547 24q48 0 80 33t32 87q0 45 -26.5 72t-69.5 27q-48 0 -80.5 -32.5t-32.5 -84.5q0 -47 27 -74.5t70 -27.5z" />
    <glyph glyph-name="dotlessi.001" horiz-adv-x="208" 
d="M49 0l87 495h38l-87 -495h-38z" />
    <glyph glyph-name="G.altsmall" horiz-adv-x="582" 
d="M287 -8q-102 0 -168 67t-66 171q0 117 78 195t188 78q129 0 193 -98l-32 -20q-53 83 -163 83q-94 0 -159.5 -68t-65.5 -168q0 -94 54.5 -150t142.5 -56q85 0 140.5 48t67.5 116h-189l5 34h228q-11 -105 -79.5 -168.5t-174.5 -63.5z" />
    <glyph glyph-name="M.altsmall" horiz-adv-x="607" 
d="M27 0l140 502h8l103 -294l18 -65q18 35 36 62l201 297h8l-33 -502h-38l22 330l14 89q-21 -49 -41 -78l-173 -254h-8l-89 250l-21 83q-10 -58 -17 -86l-93 -334h-37z" />
    <glyph glyph-name="Q.altsmall" horiz-adv-x="595" 
d="M288 -8l-19 -110h-36l20 113q-87 12 -143.5 77t-56.5 158q0 116 78.5 194.5t189.5 78.5q100 0 168.5 -66t68.5 -170q0 -116 -78.5 -195.5t-189.5 -79.5h-2zM259 28l20 110h35l-20 -112q96 1 160.5 71t64.5 171q0 88 -56 144.5t-143 56.5q-97 0 -162.5 -69t-65.5 -170
q0 -79 46.5 -135t120.5 -67z" />
    <glyph glyph-name="minustab" horiz-adv-x="520" 
d="M96 228l6 35h336l-6 -35h-336z" />
    <glyph glyph-name="multiplytab" horiz-adv-x="520" 
d="M291 242l103 -130l-27 -22l-103 129l-146 -129l-23 25l148 131l-103 130l27 22l102 -129l147 129l23 -25z" />
    <glyph glyph-name="spacetab" horiz-adv-x="200" 
 />
    <glyph glyph-name="numbersigntab" horiz-adv-x="520" 
d="M213 462h-94l6 33h96l29 115h36l-29 -115h121l29 115h36l-29 -115h84l-6 -33h-86l-31 -125h95l-6 -33h-97l-28 -111h-37l28 111h-120l-28 -111h-36l28 111h-83l6 33h85zM369 462h-120l-31 -125h120z" />
    <glyph glyph-name="dollartab" horiz-adv-x="520" 
d="M204 -5q-53 9 -93 38.5t-57 68.5l35 17q33 -77 120 -92l39 222l-11 5q-55 25 -81.5 54t-26.5 72q0 59 44.5 91t111.5 32h8l18 102h34l-19 -106q79 -19 110 -89l-32 -17q-26 59 -84 73l-8 -48l-18 -98l-8 -49l19 -9q60 -27 88 -58t28 -76q0 -64 -48 -100t-131 -36h-5
l-19 -108h-34zM287 470h-3q-51 0 -83.5 -21.5t-32.5 -67.5q0 -33 19.5 -54t64.5 -41l3 -1zM243 25q66 0 102 27t36 79q0 33 -21.5 55t-69.5 44l-10 5z" />
    <glyph glyph-name="percenttab" horiz-adv-x="750" 
d="M194 219q-56 0 -95.5 37.5t-39.5 96.5q0 63 45.5 106.5t105.5 43.5q55 0 94.5 -37.5t39.5 -95.5q0 -66 -45 -108.5t-105 -42.5zM166 0l394 495h42l-394 -495h-42zM556 -8q-56 0 -95.5 37.5t-39.5 96.5q0 63 45.5 106.5t105.5 43.5q55 0 94.5 -37.5t39.5 -95.5
q0 -66 -45 -108.5t-105 -42.5zM194 251q48 0 80.5 33t32.5 87q0 45 -27 72t-70 27q-48 0 -81 -32.5t-33 -84.5q0 -47 27 -74.5t71 -27.5zM556 24q48 0 80.5 33t32.5 87q0 45 -27 72t-70 27q-48 0 -81 -32.5t-33 -84.5q0 -47 27 -74.5t71 -27.5z" />
    <glyph glyph-name="parenlefttab" horiz-adv-x="300" 
d="M161 -136q-101 131 -101 335q0 292 251 519l23 -24q-233 -221 -233 -492q0 -186 87 -317z" />
    <glyph glyph-name="parenrighttab" horiz-adv-x="300" 
d="M19 -136l-23 24q233 221 233 496q0 182 -87 313l27 21q101 -131 101 -331q0 -296 -251 -523z" />
    <glyph glyph-name="plustab" horiz-adv-x="520" 
d="M282 228l-29 -162h-37l29 162h-149l6 35h149l29 162h37l-29 -162h149l-6 -35h-149z" />
    <glyph glyph-name="commatab" horiz-adv-x="200" 
d="M9 -97l45 95q-23 6 -23 36q0 16 12 27.5t27 11.5q17 0 28 -11t11 -28q0 -12 -10 -28l-65 -103h-25z" />
    <glyph glyph-name="periodtab" horiz-adv-x="200" 
d="M70 -7q-15 0 -27 11.5t-12 27.5q0 17 12 28.5t27 11.5q16 0 27.5 -11.5t11.5 -28.5q0 -16 -11.5 -27.5t-27.5 -11.5z" />
    <glyph glyph-name="zerotab" horiz-adv-x="520" 
d="M241 -8q-88 0 -138 61.5t-49 155.5q0 132 67.5 213t171.5 81q87 0 137 -61t50 -156q0 -132 -67.5 -213t-171.5 -81zM242 27q90 0 144 70.5t54 189.5q0 81 -39.5 131t-110.5 50q-89 0 -142.5 -71t-53.5 -189q0 -81 38.5 -131t109.5 -50z" />
    <glyph glyph-name="onetab" horiz-adv-x="520" 
d="M222 34l75 427h-131l6 34h171l-81 -461h139l-6 -34h-326l6 34h147z" />
    <glyph glyph-name="twotab" horiz-adv-x="520" 
d="M29 0v7l217 163q79 59 117.5 103.5t38.5 95.5q0 48 -31 73.5t-75 25.5q-106 0 -149 -112l-35 13q22 63 70.5 98.5t113.5 35.5q60 0 103 -35.5t43 -98.5q0 -59 -46.5 -113t-126.5 -112l-118 -86l-45 -26q31 3 49 3h254l-6 -35h-374z" />
    <glyph glyph-name="threetab" horiz-adv-x="520" 
d="M224 -103q-67 0 -119 31t-80 89l33 18q49 -103 166 -103q76 0 124.5 44.5t48.5 127.5q0 70 -39.5 110t-109.5 40q-43 0 -85 -18l-6 8l208 190q6 6 16 13.5t17 11.5l6 4q-33 -2 -52 -2h-224l6 34h342v-4l-194 -177l-38 -30q84 6 138.5 -47.5t54.5 -137.5q0 -91 -61 -146.5
t-152 -55.5z" />
    <glyph glyph-name="fourtab" horiz-adv-x="520" 
d="M380 66h78l-7 -35h-77l-22 -125h-39l23 125h-329v7l443 469h8zM342 66l53 300l12 53q-20 -26 -37 -44l-255 -273q-8 -9 -18.5 -18.5t-16.5 -14.5l-7 -5q25 2 50 2h219z" />
    <glyph glyph-name="fivetab" horiz-adv-x="520" 
d="M216 -103q-64 0 -110.5 29t-69.5 73l31 18q44 -85 149 -85q79 0 129.5 49.5t50.5 129.5q0 71 -39.5 111.5t-112.5 40.5q-82 0 -147 -52l-6 3l49 281h308l-6 -34h-272l-33 -190q47 27 111 27q84 0 136.5 -53t52.5 -136q0 -94 -63.5 -153t-157.5 -59z" />
    <glyph glyph-name="sixtab" horiz-adv-x="520" 
d="M249 -8q-88 0 -140.5 54t-52.5 135q0 79 68 156l241 275h45l-189 -215q-6 -7 -20 -19.5t-25 -21.5l-10 -8q60 41 110 41q85 0 136.5 -53t51.5 -135q0 -89 -61.5 -149t-153.5 -60zM247 27q78 0 127.5 49t49.5 126q0 69 -40 110.5t-112 41.5q-81 0 -128.5 -50t-47.5 -125
q0 -67 41 -109.5t110 -42.5z" />
    <glyph glyph-name="seventab" horiz-adv-x="520" 
d="M70 -94l362 555h-333l6 34h388v-7l-380 -582h-43z" />
    <glyph glyph-name="eighttab" horiz-adv-x="520" 
d="M223 349q-70 34 -70 114q0 67 47 111t116 44q65 0 108 -39.5t43 -98.5q0 -56 -31.5 -94t-85.5 -50q51 -19 80.5 -58.5t29.5 -93.5q0 -88 -59.5 -140t-153.5 -52q-90 0 -144 50t-54 127q0 75 47.5 122.5t126.5 57.5zM304 359q58 0 91 33t33 88q0 47 -30 75.5t-83 28.5
q-57 0 -90 -33.5t-33 -86.5q0 -48 29 -76.5t83 -28.5zM247 28q77 0 124.5 43t47.5 114q0 66 -41.5 102.5t-115.5 36.5q-79 0 -125.5 -42.5t-46.5 -113.5q0 -62 42 -101t115 -39z" />
    <glyph glyph-name="ninetab" horiz-adv-x="520" 
d="M123 -94l174 179q11 11 25.5 23.5t23.5 19.5l10 7q-50 -33 -101 -33q-84 0 -136.5 54t-52.5 136q0 89 61.5 150t153.5 61q87 0 139.5 -55.5t52.5 -135.5q0 -45 -23.5 -93.5t-57.5 -82.5l-222 -230h-47zM256 137q82 0 129.5 51t47.5 126q0 67 -41 110.5t-111 43.5
q-77 0 -126 -50t-49 -127q0 -70 39.5 -112t110.5 -42z" />
    <glyph glyph-name="colontab" horiz-adv-x="200" 
d="M109 214q-15 0 -27 11.5t-12 27.5q0 17 12 28.5t27 11.5q16 0 27.5 -11.5t11.5 -28.5q0 -16 -11.5 -27.5t-27.5 -11.5zM70 -7q-15 0 -27 11.5t-12 27.5q0 17 12 28.5t27 11.5q16 0 27.5 -11.5t11.5 -28.5q0 -16 -11.5 -27.5t-27.5 -11.5z" />
    <glyph glyph-name="semicolontab" horiz-adv-x="200" 
d="M109 214q-15 0 -27 11.5t-12 27.5q0 17 12 28.5t27 11.5q16 0 27.5 -11.5t11.5 -28.5q0 -16 -11.5 -27.5t-27.5 -11.5zM9 -97l45 95q-23 6 -23 36q0 16 12 27.5t27 11.5q17 0 28 -11t11 -28q0 -12 -10 -28l-65 -103h-25z" />
    <glyph glyph-name="lesstab" horiz-adv-x="520" 
d="M380 91l-281 151v10l336 156l-7 -41l-264 -123l222 -118z" />
    <glyph glyph-name="equaltab" horiz-adv-x="520" 
d="M106 284l6 35h336l-6 -35h-336zM86 170l6 35h336l-6 -35h-336z" />
    <glyph glyph-name="greatertab" horiz-adv-x="520" 
d="M101 91l7 41l264 123l-222 118l6 35l281 -151v-10z" />
    <glyph glyph-name="bracketlefttab" horiz-adv-x="300" 
d="M27 -128l150 850h172l-6 -34h-132l-138 -782h132l-6 -34h-172z" />
    <glyph glyph-name="bracketrighttab" horiz-adv-x="300" 
d="M-18 -128l6 34h132l138 782h-132l6 34h172l-150 -850h-172z" />
    <glyph glyph-name="bracelefttab" horiz-adv-x="300" 
d="M155 -128q-127 0 -101 149l27 154q7 42 -4 56.5t-40 14.5h-29l6 34h25q60 0 74 76l43 234q15 80 50 106t86 26h57l-6 -34h-53q-40 0 -62 -20.5t-33 -80.5l-43 -239q-7 -41 -24 -59.5t-45 -24.5q50 -16 37 -92l-27 -156q-11 -64 6 -87t58 -23h48l-6 -34h-44z" />
    <glyph glyph-name="bracerighttab" horiz-adv-x="300" 
d="M-18 -128l6 34h54q40 0 62 20.5t33 80.5l30 171q7 41 24 59.5t45 24.5q-50 16 -37 92l40 224q11 64 -6 87t-58 23h-49l6 34h45q127 0 101 -149l-40 -222q-7 -42 4 -56.5t40 -14.5h30l-6 -34h-26q-60 0 -74 -76l-30 -166q-8 -42 -22 -70t-34 -40.5t-38 -17t-42 -4.5h-58z
" />
    <glyph glyph-name="degreetab" horiz-adv-x="350" 
d="M205 294q-43 0 -72 29t-29 71q0 46 32.5 77.5t77.5 31.5q43 0 71.5 -29t28.5 -71q0 -46 -32 -77.5t-77 -31.5zM205 323q33 0 53.5 23t20.5 58q0 31 -17.5 50.5t-48.5 19.5q-33 0 -54 -23t-21 -58q0 -31 18 -50.5t49 -19.5z" />
    <glyph glyph-name="centtab" horiz-adv-x="520" 
d="M224 -1q-63 17 -102 71t-39 123q0 93 61 158t153 66l19 106h34l-19 -108q74 -10 120 -67l-27 -23q-37 49 -99 56l-62 -354q5 -1 15 -1q75 0 123 45l24 -25q-62 -54 -147 -54q-14 0 -21 1l-19 -109h-34zM291 383q-76 -4 -122.5 -57.5t-46.5 -133.5q0 -56 29.5 -99.5
t78.5 -59.5z" />
    <glyph glyph-name="sterlingtab" horiz-adv-x="520" 
d="M186 268h-93l6 32h83q-10 86 -10 127q0 91 49 141t129 50q110 0 158 -101l-32 -17q-41 83 -127 83q-64 0 -100.5 -39t-36.5 -120q0 -38 8 -124h166l-6 -32h-156q7 -68 7 -125q0 -27 -8 -53q24 -21 37.5 -31.5t36.5 -21t46 -10.5q34 0 54 10.5t42 34.5l25 -24
q-25 -29 -51 -42.5t-70 -13.5q-26 0 -51.5 10.5t-42 22.5t-40.5 33q-38 -66 -113 -66q-40 0 -64 22.5t-24 58.5q0 37 25 59.5t67 22.5q43 0 94 -40q2 18 2 28q0 41 -10 125zM184 81q-51 44 -85 44q-26 0 -41.5 -14.5t-15.5 -38.5q0 -23 14.5 -36.5t40.5 -13.5t49.5 15
t37.5 44z" />
    <glyph glyph-name="sectiontab" horiz-adv-x="520" 
d="M168 425q-9 24 -9 53q0 60 41 100t107 40q55 0 92 -27t52 -66l-33 -15q-31 74 -111 74q-51 0 -79 -30t-28 -77q0 -68 71 -101l85 -40q106 -49 106 -133q0 -80 -91 -113q15 -26 15 -62q0 -58 -42 -94.5t-112 -36.5q-66 0 -111 31t-63 77l34 14q40 -88 139 -88
q52 0 83.5 27.5t31.5 71.5q0 37 -20.5 59t-67.5 44l-76 36q-57 27 -82 58t-25 81q0 39 25.5 71t67.5 46zM352 116q71 21 71 88q0 31 -18 53t-64 43l-83 40q-53 26 -76 59q-67 -24 -67 -92q0 -36 18.5 -58.5t62.5 -43.5l75 -35q56 -26 81 -54z" />
    <glyph glyph-name="yentab" horiz-adv-x="520" 
d="M334 241l-63 -85h180l-6 -32h-180l-21 -124h-40l22 124h-181l6 32h180l-33 85h-133l6 32h114l-87 222h41l102 -266l14 -54q12 31 29 54l195 266h44l-165 -222h113l-6 -32h-131z" />
    <glyph glyph-name="florintab" horiz-adv-x="520" 
d="M217 213h-102l6 33h102l40 228q25 144 134 144q77 0 111 -69l-30 -18q-14 27 -30.5 39.5t-49.5 12.5q-77 0 -96 -110l-40 -227h143l-6 -33h-143l-75 -425h-39z" />
    <glyph glyph-name="dividetab" horiz-adv-x="520" 
d="M293 356q-15 0 -26 11t-11 26q0 16 11 26.5t26 10.5t26 -10.5t11 -26.5t-11 -26.5t-26 -10.5zM96 228l6 35h335l-6 -35h-335zM241 60q-15 0 -26 11t-11 26q0 16 11 26.5t26 10.5t26 -10.5t11 -26.5t-11 -26.5t-26 -10.5z" />
    <glyph glyph-name="Eurotab" horiz-adv-x="520" 
d="M91 288h-64l5 32h66q24 83 88 133t142 50q111 0 171 -98l-31 -19q-26 42 -58 62t-82 20q-65 0 -116 -40t-73 -108h234l-5 -32h-236q-4 -21 -4 -50q0 -22 1 -33h224l-5 -32h-214q13 -69 54.5 -107.5t108.5 -38.5q96 0 155 82l29 -20q-67 -97 -185 -97q-77 0 -131.5 49.5
t-71.5 131.5h-86l5 32h76q-1 11 -1 32q0 30 4 51z" />
    <glyph glyph-name="perthousandtab" horiz-adv-x="1100" 
d="M202 219q-56 0 -95.5 37.5t-39.5 96.5q0 63 45.5 106.5t105.5 43.5q55 0 94.5 -37.5t39.5 -95.5q0 -66 -45 -108.5t-105 -42.5zM174 0l394 495h42l-394 -495h-42zM898 -8q-56 0 -95.5 37.5t-39.5 96.5q0 63 45.5 106.5t105.5 43.5q55 0 94.5 -37.5t39.5 -95.5
q0 -66 -45 -108.5t-105 -42.5zM564 -8q-56 0 -95.5 37.5t-39.5 96.5q0 63 45.5 106.5t105.5 43.5q55 0 94.5 -37.5t39.5 -95.5q0 -66 -45 -108.5t-105 -42.5zM202 251q48 0 80.5 33t32.5 87q0 45 -27 72t-70 27q-48 0 -81 -32.5t-33 -84.5q0 -47 27 -74.5t71 -27.5zM898 24
q48 0 80.5 33t32.5 87q0 45 -27 72t-70 27q-48 0 -81 -32.5t-33 -84.5q0 -47 27 -74.5t71 -27.5zM564 24q48 0 80.5 33t32.5 87q0 45 -27 72t-70 27q-48 0 -81 -32.5t-33 -84.5q0 -47 27 -74.5t71 -27.5z" />
    <glyph glyph-name="minustablining" horiz-adv-x="580" 
d="M129 308l6 35h357l-6 -35h-357z" />
    <glyph glyph-name="multiplytablining" horiz-adv-x="520" 
d="M305 323l103 -130l-27 -22l-103 129l-146 -129l-23 25l148 131l-103 130l27 22l102 -129l147 129l23 -25z" />
    <glyph glyph-name="spacetablining" horiz-adv-x="200" 
 />
    <glyph glyph-name="numbersigntablining" horiz-adv-x="580" 
d="M256 532h-103l6 33h105l29 115h36l-29 -115h120l30 115h36l-29 -115h96l-6 -33h-98l-34 -135h103l-6 -33h-105l-28 -112h-37l28 112h-120l-28 -112h-36l28 112h-95l6 33h97zM412 532h-120l-34 -135h120z" />
    <glyph glyph-name="dollartablining" horiz-adv-x="580" 
d="M224 -6q-123 14 -189 132l33 19q59 -106 162 -116l57 325l-7 5q-120 76 -120 174q0 73 52 114t120 41h14l15 85h37l-16 -90q80 -16 125 -92l-30 -21q-40 64 -101 78l-48 -273l22 -14q67 -42 98 -84.5t31 -101.5q0 -80 -58.5 -131t-159.5 -52l-19 -108h-37zM340 653h-9
q-55 0 -93 -31t-38 -87q0 -45 22 -76.5t72 -63.5zM267 27q82 3 127 44.5t45 108.5q0 46 -25 78t-80 67l-13 8z" />
    <glyph glyph-name="percenttablining" horiz-adv-x="800" 
d="M255 368q-62 0 -104 43t-42 107q0 72 48.5 121t113.5 49q62 0 104.5 -43t42.5 -107q0 -73 -48 -121.5t-115 -48.5zM138 0l528 680h43l-528 -680h-43zM575 -8q-62 0 -104 43t-42 107q0 72 48.5 121t113.5 49q62 0 104.5 -43t42.5 -107q0 -73 -48 -121.5t-115 -48.5z
M256 402q52 0 88.5 37.5t36.5 98.5q0 51 -30.5 83.5t-80.5 32.5q-52 0 -88 -37.5t-36 -98.5q0 -51 30 -83.5t80 -32.5zM576 26q52 0 88.5 37.5t36.5 98.5q0 51 -30.5 83.5t-80.5 32.5q-52 0 -88 -37.5t-36 -98.5q0 -51 30 -83.5t80 -32.5z" />
    <glyph glyph-name="parenlefttablining" horiz-adv-x="300" 
d="M161 -136q-101 131 -101 335q0 292 251 519l23 -24q-233 -221 -233 -492q0 -186 87 -317z" />
    <glyph glyph-name="parenrighttablining" horiz-adv-x="300" 
d="M19 -136l-23 24q233 221 233 496q0 182 -87 313l27 21q101 -131 101 -331q0 -296 -251 -523z" />
    <glyph glyph-name="plustablining" horiz-adv-x="580" 
d="M326 308l-31 -172h-37l31 172h-160l6 35h160l31 172h37l-31 -172h160l-6 -35h-160z" />
    <glyph glyph-name="commatablining" horiz-adv-x="200" 
d="M1 -111l53 109q-23 6 -23 36q0 16 12 27.5t27 11.5q17 0 28 -11t11 -28q0 -12 -10 -28l-73 -117h-25z" />
    <glyph glyph-name="periodtablining" horiz-adv-x="200" 
d="M70 -7q-15 0 -27 11.5t-12 27.5q0 17 12 28.5t27 11.5q16 0 27.5 -11.5t11.5 -28.5q0 -16 -11.5 -27.5t-27.5 -11.5z" />
    <glyph glyph-name="zerotablining" horiz-adv-x="580" 
d="M270 -8q-93 0 -142.5 70.5t-49.5 192.5q1 187 78 310t202 123q93 0 142.5 -70.5t49.5 -192.5q0 -186 -77.5 -309.5t-202.5 -123.5zM271 28q108 0 173.5 115t65.5 283q0 226 -153 226q-108 0 -174 -115t-65 -283q0 -226 153 -226z" />
    <glyph glyph-name="onetablining" horiz-adv-x="580" 
d="M248 0l114 645h-161l6 35h200l-120 -680h-39z" />
    <glyph glyph-name="twotablining" horiz-adv-x="580" 
d="M25 0v4l320 291q72 65 106.5 114t34.5 113q0 58 -36 94t-100 36q-130 0 -177 -144l-37 9q23 83 80 127t135 44t126.5 -47.5t48.5 -122.5q0 -68 -41.5 -125t-116.5 -125l-209 -189q-11 -10 -27 -22.5t-26 -19.5l-10 -7q40 5 68 5h281l-6 -35h-414z" />
    <glyph glyph-name="threetablining" horiz-adv-x="580" 
d="M273 -8q-78 0 -137 38t-83 89l33 18q59 -109 187 -109q91 0 143 53t52 143q0 81 -50.5 134.5t-137.5 53.5q-31 0 -60 -9l-3 5l208 204l45 38q-30 -5 -55 -5h-248l6 35h365v-4l-201 -197q-10 -9 -21 -18t-18 -13l-6 -4q96 -1 156 -63.5t60 -156.5q0 -107 -65.5 -169.5
t-169.5 -62.5z" />
    <glyph glyph-name="fourtablining" horiz-adv-x="580" 
d="M443 174h68l-6 -35h-68l-25 -139h-39l25 139h-360v4l494 554h3zM404 174l62 356l17 74q-23 -38 -48 -66l-276 -310q-10 -12 -25.5 -26.5t-25.5 -23.5l-11 -9q47 5 74 5h233z" />
    <glyph glyph-name="fivetablining" horiz-adv-x="580" 
d="M278 -8q-69 0 -125 34t-84 87l34 19q25 -47 70 -75.5t105 -28.5q88 0 140.5 58t52.5 150q0 82 -45.5 136.5t-127.5 54.5q-72 0 -144 -50l-4 2l53 301h329l-6 -35h-294l-37 -209q47 26 104 26q96 0 154 -65.5t58 -160.5q0 -108 -64.5 -176t-168.5 -68z" />
    <glyph glyph-name="sixtablining" horiz-adv-x="580" 
d="M286 -8q-93 0 -153 61t-60 154q0 87 66 165l265 308h47l-196 -228q-8 -9 -22.5 -22.5t-25.5 -21.5l-11 -9q58 42 119 42q85 0 141.5 -59t56.5 -149q0 -103 -64.5 -172t-162.5 -69zM287 28q82 0 134 58t52 148q0 78 -45.5 125t-121.5 47q-85 0 -139 -58.5t-54 -142.5
q0 -79 47.5 -128t126.5 -49z" />
    <glyph glyph-name="seventablining" horiz-adv-x="580" 
d="M105 0l421 645h-375l6 35h432v-4l-441 -676h-43z" />
    <glyph glyph-name="eighttablining" horiz-adv-x="580" 
d="M251 385q-83 38 -83 135q0 75 52.5 121.5t131.5 46.5q73 0 118 -43.5t45 -109.5q0 -61 -36.5 -102.5t-95.5 -56.5q60 -20 95.5 -66.5t35.5 -109.5q0 -93 -64.5 -150.5t-163.5 -57.5q-95 0 -159 54t-64 142q0 78 51.5 131t136.5 66zM329 396q64 0 105.5 40t41.5 101
q0 52 -33.5 84.5t-91.5 32.5q-66 0 -105 -37.5t-39 -97.5q0 -55 32.5 -89t89.5 -34zM287 28q84 0 135 49t51 123q0 72 -47.5 118t-125.5 46q-86 0 -141.5 -50t-55.5 -125q0 -74 52 -117.5t132 -43.5z" />
    <glyph glyph-name="ninetablining" horiz-adv-x="580" 
d="M194 0l180 215l60 60q-56 -44 -120 -44q-88 0 -146 62.5t-58 153.5q0 100 67 170.5t167 70.5q94 0 154 -62t60 -153q0 -93 -75 -183l-242 -290h-47zM324 266q82 0 138.5 62t56.5 145q0 78 -47.5 128.5t-128.5 50.5q-87 0 -140.5 -60t-53.5 -144q0 -78 47 -130t128 -52z
" />
    <glyph glyph-name="colontablining" horiz-adv-x="200" 
d="M109 214q-15 0 -27 11.5t-12 27.5q0 17 12 28.5t27 11.5q16 0 27.5 -11.5t11.5 -28.5q0 -16 -11.5 -27.5t-27.5 -11.5zM70 -7q-15 0 -27 11.5t-12 27.5q0 17 12 28.5t27 11.5q16 0 27.5 -11.5t11.5 -28.5q0 -16 -11.5 -27.5t-27.5 -11.5z" />
    <glyph glyph-name="semicolontablining" horiz-adv-x="200" 
d="M109 214q-15 0 -27 11.5t-12 27.5q0 17 12 28.5t27 11.5q16 0 27.5 -11.5t11.5 -28.5q0 -16 -11.5 -27.5t-27.5 -11.5zM1 -111l53 109q-23 6 -23 36q0 16 12 27.5t27 11.5q17 0 28 -11t11 -28q0 -12 -10 -28l-73 -117h-25z" />
    <glyph glyph-name="lesstablining" horiz-adv-x="580" 
d="M424 143l-316 175v10l381 183l-7 -41l-315 -148l263 -144z" />
    <glyph glyph-name="equaltablining" horiz-adv-x="580" 
d="M138 365l8 35h358l-8 -35h-358zM117 231l6 35h358l-6 -35h-358z" />
    <glyph glyph-name="greatertablining" horiz-adv-x="580" 
d="M91 143l7 41l315 148l-263 144l6 35l316 -175v-10z" />
    <glyph glyph-name="bracketlefttablining" horiz-adv-x="300" 
d="M27 -128l150 850h172l-6 -34h-132l-138 -782h132l-6 -34h-172z" />
    <glyph glyph-name="bracketrighttablining" horiz-adv-x="300" 
d="M-18 -128l6 34h132l138 782h-132l6 34h172l-150 -850h-172z" />
    <glyph glyph-name="bracelefttablining" horiz-adv-x="300" 
d="M155 -128q-127 0 -101 149l27 154q7 42 -4 56.5t-40 14.5h-29l6 34h25q60 0 74 76l43 234q15 80 50 106t86 26h57l-6 -34h-53q-40 0 -62 -20.5t-33 -80.5l-43 -239q-7 -41 -24 -59.5t-45 -24.5q50 -16 37 -92l-27 -156q-11 -64 6 -87t58 -23h48l-6 -34h-44z" />
    <glyph glyph-name="bracerighttablining" horiz-adv-x="300" 
d="M-18 -128l6 34h54q40 0 62 20.5t33 80.5l30 171q7 41 24 59.5t45 24.5q-50 16 -37 92l40 224q11 64 -6 87t-58 23h-49l6 34h45q127 0 101 -149l-40 -222q-7 -42 4 -56.5t40 -14.5h30l-6 -34h-26q-60 0 -74 -76l-30 -166q-8 -42 -22 -70t-34 -40.5t-38 -17t-42 -4.5h-58z
" />
    <glyph glyph-name="degreetablining" horiz-adv-x="364" 
d="M243 437q-50 0 -85.5 36t-35.5 87q0 54 36.5 91t88.5 37q50 0 85.5 -36t35.5 -87q0 -54 -36.5 -91t-88.5 -37zM244 469q40 0 64.5 27.5t24.5 69.5q0 39 -24 64.5t-62 25.5q-40 0 -65 -27.5t-25 -69.5q0 -39 24 -64.5t63 -25.5z" />
    <glyph glyph-name="centtablining" horiz-adv-x="580" 
d="M254 -1q-63 17 -102 71t-39 123q0 93 61 158t153 66l19 106h34l-19 -108q74 -10 120 -67l-27 -23q-37 49 -99 56l-62 -354q5 -1 15 -1q75 0 123 45l24 -25q-62 -54 -147 -54q-14 0 -21 1l-19 -109h-34zM321 383q-76 -4 -122.5 -57.5t-46.5 -133.5q0 -56 29.5 -99.5
t78.5 -59.5z" />
    <glyph glyph-name="sterlingtablining" horiz-adv-x="580" 
d="M202 279h-97l6 33h86q-17 98 -17 162q0 96 54 155t150 59q69 0 116 -32t68 -88l-34 -15q-21 50 -56 74.5t-94 24.5q-79 0 -120.5 -46t-41.5 -132q0 -46 15 -162h184l-6 -33h-174q10 -68 10 -126q0 -24 -5 -51q56 -48 84 -61q30 -13 62 -13q36 0 59 13.5t46 42.5l29 -22
q-29 -37 -59.5 -53.5t-76.5 -16.5q-32 0 -62.5 13t-47.5 25.5t-46 37.5q-34 -76 -118 -76q-37 0 -64.5 22.5t-27.5 59.5q0 42 27 65t69 23q47 0 93 -34q1 8 1 25q0 56 -12 126zM206 92q-48 37 -85 37q-27 0 -44.5 -14.5t-17.5 -39.5q0 -23 15.5 -36.5t41.5 -13.5q68 0 90 67
z" />
    <glyph glyph-name="sectiontablining" horiz-adv-x="580" 
d="M192 443q-13 33 -13 69q0 76 51 126t130 50q109 0 156 -98l-34 -18q-42 80 -123 80q-64 0 -101 -39.5t-37 -99.5q0 -85 87 -131l95 -51q57 -31 82 -65.5t25 -79.5q0 -93 -112 -130q18 -34 18 -74q0 -72 -49 -117t-127 -45q-63 0 -112.5 30.5t-73.5 80.5l34 19
q52 -94 150 -94q63 0 99.5 35.5t36.5 92.5q0 45 -22 71t-71 52l-92 49q-57 30 -81 64.5t-24 81.5q0 51 29.5 86.5t78.5 54.5zM379 83q91 33 91 102q0 36 -20 61.5t-68 51.5l-95 51q-55 30 -79 67q-84 -35 -84 -112q0 -36 19 -62.5t68 -52.5l92 -49q48 -25 76 -57z" />
    <glyph glyph-name="yentablining" horiz-adv-x="580" 
d="M358 281l-48 -74l-6 -34h208l-6 -32h-208l-24 -141h-39l25 141h-207l6 32h206l6 35l-21 73h-172l5 32h157l-107 367h41l111 -388l10 -58q12 34 26 55l252 391h42l-237 -367h158l-5 -32h-173z" />
    <glyph glyph-name="florintablining" horiz-adv-x="520" 
d="M228 275h-106l6 33h105l42 236q25 144 134 144q77 0 111 -69l-30 -18q-14 27 -30.5 39.5t-49.5 12.5q-77 0 -96 -110l-42 -235h140l-6 -33h-139l-86 -487h-39z" />
    <glyph glyph-name="dividetablining" horiz-adv-x="520" 
d="M307 431q-15 0 -26 11t-11 26q0 16 11 26.5t26 10.5t26 -10.5t11 -26.5t-11 -26.5t-26 -10.5zM99 308l6 35h357l-6 -35h-357zM256 145q-15 0 -26 11t-11 26q0 16 11 26.5t26 10.5t26 -10.5t11 -26.5t-11 -26.5t-26 -10.5z" />
    <glyph glyph-name="Eurotablining" horiz-adv-x="580" 
d="M105 372h-64l6 34h65q30 126 102.5 204t171.5 78q123 0 177 -127l-33 -15q-26 53 -57.5 79.5t-89.5 26.5q-82 0 -142 -69t-87 -177h260l-6 -34h-261q-9 -47 -11 -106h253l-6 -34h-246q5 -95 47.5 -149.5t120.5 -54.5q61 0 103 29.5t79 88.5l33 -17q-79 -137 -216 -137
q-95 0 -149 64.5t-59 175.5h-80l6 34h73q2 59 10 106z" />
    <glyph glyph-name="perthousandtablining" horiz-adv-x="1160" 
d="M251 368q-62 0 -104 43t-42 107q0 72 48.5 121t113.5 49q62 0 104.5 -43t42.5 -107q0 -73 -48 -121.5t-115 -48.5zM134 0l528 680h43l-528 -680h-43zM939 -8q-62 0 -104 43t-42 107q0 72 48.5 121t113.5 49q62 0 104.5 -43t42.5 -107q0 -73 -48 -121.5t-115 -48.5z
M571 -8q-62 0 -104 43t-42 107q0 72 48.5 121t113.5 49q62 0 104.5 -43t42.5 -107q0 -73 -48 -121.5t-115 -48.5zM252 402q52 0 88.5 37.5t36.5 98.5q0 51 -30.5 83.5t-80.5 32.5q-52 0 -88 -37.5t-36 -98.5q0 -51 30 -83.5t80 -32.5zM940 26q52 0 88.5 37.5t36.5 98.5
q0 51 -30.5 83.5t-80.5 32.5q-52 0 -88 -37.5t-36 -98.5q0 -51 30 -83.5t80 -32.5zM572 26q52 0 88.5 37.5t36.5 98.5q0 51 -30.5 83.5t-80.5 32.5q-52 0 -88 -37.5t-36 -98.5q0 -51 30 -83.5t80 -32.5z" />
    <glyph glyph-name="minustabsmall" 
d="M86 228l6 35h336l-6 -35h-336z" />
    <glyph glyph-name="multiplytabsmall" 
d="M281 242l103 -130l-27 -22l-103 129l-146 -129l-23 25l148 131l-103 130l27 22l102 -129l147 129l23 -25z" />
    <glyph glyph-name="spacetabsmall" horiz-adv-x="200" 
 />
    <glyph glyph-name="numbersigntabsmall" 
d="M208 462h-84l6 33h86l29 115h36l-29 -115h111l29 115h36l-29 -115h74l-6 -33h-76l-31 -125h85l-6 -33h-87l-28 -111h-37l28 111h-110l-28 -111h-36l28 111h-73l6 33h75zM355 462h-111l-31 -125h110z" />
    <glyph glyph-name="dollartabsmall" 
d="M193 -5q-52 7 -90 35.5t-55 67.5l35 17q34 -77 116 -88l39 222l-11 5q-101 46 -101 126q0 59 44 91t110 32h3l19 107h34l-20 -111q76 -16 107 -85l-32 -17q-26 58 -81 70l-34 -196l19 -9q59 -26 84 -57t25 -77q0 -64 -48.5 -100t-128.5 -36l-20 -112h-34zM277 470
q-49 0 -80.5 -21.5t-31.5 -67.5q0 -60 77 -95l2 -1zM233 25q61 1 96 28t35 78q0 34 -19 56t-65 43l-10 5z" />
    <glyph glyph-name="percenttabsmall" horiz-adv-x="750" 
d="M194 219q-56 0 -95.5 37.5t-39.5 96.5q0 63 45.5 106.5t105.5 43.5q55 0 94.5 -37.5t39.5 -95.5q0 -66 -45 -108.5t-105 -42.5zM166 0l394 495h42l-394 -495h-42zM556 -8q-56 0 -95.5 37.5t-39.5 96.5q0 63 45.5 106.5t105.5 43.5q55 0 94.5 -37.5t39.5 -95.5
q0 -66 -45 -108.5t-105 -42.5zM194 251q48 0 80.5 33t32.5 87q0 45 -27 72t-70 27q-48 0 -81 -32.5t-33 -84.5q0 -47 27 -74.5t71 -27.5zM556 24q48 0 80.5 33t32.5 87q0 45 -27 72t-70 27q-48 0 -81 -32.5t-33 -84.5q0 -47 27 -74.5t71 -27.5z" />
    <glyph glyph-name="parenlefttabsmall" horiz-adv-x="300" 
d="M182 -57q-114 147 -114 326q0 267 252 469l21 -25q-232 -191 -232 -441q0 -68 18 -132.5t36 -99.5t46 -77z" />
    <glyph glyph-name="parenrighttabsmall" horiz-adv-x="300" 
d="M29 -57l-21 25q232 191 232 441q0 68 -18 132.5t-36 99.5t-46 77l27 20q114 -147 114 -326q0 -267 -252 -469z" />
    <glyph glyph-name="plustabsmall" 
d="M272 228l-29 -162h-37l29 162h-149l6 35h149l29 162h37l-29 -162h149l-6 -35h-149z" />
    <glyph glyph-name="commatabsmall" horiz-adv-x="200" 
d="M9 -97l45 95q-23 6 -23 36q0 16 12 27.5t27 11.5q17 0 28 -11t11 -28q0 -12 -10 -28l-65 -103h-25z" />
    <glyph glyph-name="periodtabsmall" horiz-adv-x="200" 
d="M70 -7q-15 0 -27 11.5t-12 27.5q0 17 12 28.5t27 11.5q16 0 27.5 -11.5t11.5 -28.5q0 -16 -11.5 -27.5t-27.5 -11.5z" />
    <glyph glyph-name="zerotabsmall" 
d="M230 -8q-84 0 -132 58.5t-48 147.5q0 134 68.5 219.5t170.5 85.5q83 0 129 -58.5t46 -147.5q0 -134 -66 -219.5t-168 -85.5zM231 27q85 0 139 76.5t54 192.5q0 79 -35.5 125.5t-102.5 46.5q-85 0 -140.5 -76.5t-55.5 -192.5q0 -78 36.5 -125t104.5 -47z" />
    <glyph glyph-name="onetabsmall" 
d="M205 34l75 427h-129l6 34h168l-81 -461h132l-6 -34h-300l6 34h129z" />
    <glyph glyph-name="twotabsmall" 
d="M44 0v7l240 209q53 46 76.5 81t23.5 79q0 40 -26.5 66t-68.5 26q-89 0 -125 -104l-37 10q18 60 60 94.5t102 34.5q58 0 96 -36.5t38 -92.5q0 -50 -27.5 -90.5t-86.5 -91.5l-138 -120l-62 -43q42 5 62 5h208l-6 -34h-329z" />
    <glyph glyph-name="threetabsmall" 
d="M224 -8q-62 0 -106 30.5t-63 71.5l33 17q46 -85 136 -85q65 0 101 37t36 99q0 58 -36 94.5t-98 36.5q-28 0 -47 -7l-3 4l144 145l37 30q-33 -3 -51 -3h-172l6 33h280v-7l-135 -134q-8 -8 -18 -16t-16 -12l-6 -4q66 -1 109.5 -46.5t43.5 -113.5q0 -77 -48.5 -123.5
t-126.5 -46.5z" />
    <glyph glyph-name="fourtabsmall" 
d="M307 0l17 97h-286l4 20l383 383h8l-65 -370h55l-6 -33h-55l-17 -97h-38zM94 128q17 2 45 2h191l41 234l12 54q-15 -23 -36 -43l-214 -213z" />
    <glyph glyph-name="fivetabsmall" 
d="M225 -8q-56 0 -99.5 27t-63.5 67l33 18q43 -78 130 -78q63 0 100.5 39t37.5 104q0 58 -32.5 94.5t-90.5 36.5q-56 0 -110 -32l-4 3l39 224h251l-5 -33h-218l-25 -145q33 15 76 15q71 0 114.5 -46.5t43.5 -116.5q0 -80 -49.5 -128.5t-127.5 -48.5z" />
    <glyph glyph-name="sixtabsmall" 
d="M239 -8q-71 0 -118.5 47t-47.5 117q0 67 51 126l184 213h43l-117 -139q-10 -12 -27 -27t-29 -24l-12 -9q48 34 97 34q65 0 111 -46.5t46 -114.5q0 -77 -52 -127t-129 -50zM240 26q62 0 102 39.5t40 103.5q0 57 -36 93t-91 36q-63 0 -103.5 -41.5t-40.5 -100.5
q0 -58 36 -94t93 -36z" />
    <glyph glyph-name="seventabsmall" 
d="M104 0l303 461h-296l6 34h349v-7l-320 -488h-42z" />
    <glyph glyph-name="eighttabsmall" 
d="M204 284q-63 31 -63 98q0 53 41.5 87t101.5 34q56 0 93 -35t37 -84q0 -44 -27.5 -72.5t-70.5 -38.5q44 -16 71 -48.5t27 -76.5q0 -70 -49 -113t-129 -43q-73 0 -122.5 43t-49.5 104q0 59 38 97.5t102 47.5zM273 294q46 0 75 25t29 65q0 36 -27 61.5t-67 25.5
q-47 0 -76 -25.5t-29 -64.5q0 -38 26.5 -62.5t68.5 -24.5zM236 26q66 0 103 34t37 89q0 49 -38 81t-96 32q-61 0 -100.5 -33.5t-39.5 -87.5q0 -52 38 -83.5t96 -31.5z" />
    <glyph glyph-name="ninetabsmall" 
d="M174 0l110 132q12 15 29.5 32t28.5 26l12 9q-54 -35 -101 -35q-65 0 -111 47t-46 114q0 75 52 126.5t127 51.5q74 0 120 -46t46 -117q0 -75 -57 -142l-167 -198h-43zM262 196q61 0 101.5 41.5t40.5 101.5q0 57 -35 94t-94 37q-63 0 -102.5 -42t-39.5 -102
q0 -57 35.5 -93.5t93.5 -36.5z" />
    <glyph glyph-name="colontabsmall" horiz-adv-x="200" 
d="M109 214q-15 0 -27 11.5t-12 27.5q0 17 12 28.5t27 11.5q16 0 27.5 -11.5t11.5 -28.5q0 -16 -11.5 -27.5t-27.5 -11.5zM70 -7q-15 0 -27 11.5t-12 27.5q0 17 12 28.5t27 11.5q16 0 27.5 -11.5t11.5 -28.5q0 -16 -11.5 -27.5t-27.5 -11.5z" />
    <glyph glyph-name="semicolontabsmall" horiz-adv-x="200" 
d="M109 214q-15 0 -27 11.5t-12 27.5q0 17 12 28.5t27 11.5q16 0 27.5 -11.5t11.5 -28.5q0 -16 -11.5 -27.5t-27.5 -11.5zM9 -97l45 95q-23 6 -23 36q0 16 12 27.5t27 11.5q17 0 28 -11t11 -28q0 -12 -10 -28l-65 -103h-25z" />
    <glyph glyph-name="lesstabsmall" 
d="M370 91l-281 151v10l336 156l-7 -41l-264 -123l222 -118z" />
    <glyph glyph-name="equaltabsmall" 
d="M96 284l6 35h336l-6 -35h-336zM76 170l6 35h336l-6 -35h-336z" />
    <glyph glyph-name="greatertabsmall" 
d="M91 91l7 41l264 123l-222 118l6 35l281 -151v-10z" />
    <glyph glyph-name="bracketlefttabsmall" horiz-adv-x="300" 
d="M41 -52l138 784h170l-6 -34h-130l-126 -716h130l-6 -34h-170z" />
    <glyph glyph-name="bracketrighttabsmall" horiz-adv-x="300" 
d="M-1 -52l6 34h129l126 716h-129l6 34h169l-138 -784h-169z" />
    <glyph glyph-name="bracelefttabsmall" horiz-adv-x="300" 
d="M185 -52q-127 0 -101 149l14 78q7 42 -4 56.5t-40 14.5h-46l6 34h42q60 0 74 76l43 244q15 80 50 106t86 26h39l-6 -34h-35q-40 0 -61.5 -20.5t-32.5 -80.5l-44 -249q-7 -41 -24 -59.5t-45 -24.5q50 -16 37 -92l-14 -80q-11 -64 6 -87t58 -23h30l-6 -34h-26z" />
    <glyph glyph-name="bracerighttabsmall" horiz-adv-x="300" 
d="M-1 -52l6 34h35q40 0 62 20.5t33 80.5l16 95q7 41 24 59.5t45 24.5q-50 16 -37 92l42 234q11 64 -6 87t-58 23h-30l6 34h26q127 0 101 -149l-42 -232q-7 -42 4 -56.5t40 -14.5h46l-6 -34h-42q-60 0 -74 -76l-16 -90q-8 -42 -22 -70t-34 -40.5t-38 -17t-42 -4.5h-39z" />
    <glyph glyph-name="degreetabsmall" horiz-adv-x="322" 
d="M191 294q-43 0 -72 29t-29 71q0 46 32.5 77.5t77.5 31.5q43 0 71.5 -29t28.5 -71q0 -46 -32 -77.5t-77 -31.5zM191 323q33 0 53.5 23t20.5 58q0 31 -17.5 50.5t-48.5 19.5q-33 0 -54 -23t-21 -58q0 -31 18 -50.5t49 -19.5z" />
    <glyph glyph-name="centtabsmall" 
d="M218 -1q-50 14 -81.5 56.5t-31.5 97.5q0 73 48.5 124t122.5 52l17 97h34l-18 -100q55 -12 88 -53l-26 -21q-27 35 -68 42l-47 -268h3q57 0 95 35l22 -24q-47 -43 -117 -43h-9l-17 -100h-34zM270 297q-57 -3 -92.5 -43.5t-35.5 -100.5q0 -44 22 -77t59 -45z" />
    <glyph glyph-name="sterlingtabsmall" 
d="M172 215h-74l5 31h64q-9 56 -9 98q0 71 39.5 115t108.5 44q49 0 85 -24.5t54 -64.5l-32 -16q-34 71 -107 71q-52 0 -80.5 -32.5t-28.5 -92.5q0 -32 8 -98h132l-5 -31h-123q8 -51 8 -99q0 -21 -4 -36q21 -19 32 -27.5t31.5 -18t41.5 -9.5q50 0 85 44l27 -21
q-44 -56 -113 -56q-54 0 -114 58q-27 -58 -91 -58q-31 0 -52.5 19.5t-21.5 49.5q0 33 22 51.5t55 18.5q34 0 67 -25v9q0 34 -10 100zM177 73q-34 30 -61 30q-21 0 -34 -11t-13 -30q0 -18 12 -30t31 -12q50 0 65 53z" />
    <glyph glyph-name="sectiontabsmall" 
d="M161 328q-11 24 -11 51q0 54 39.5 89t95.5 35q95 0 135 -81l-32 -17q-34 64 -103 64q-42 0 -68.5 -25t-26.5 -65q0 -33 17 -54t51 -41l81 -48q78 -46 78 -113q0 -33 -22.5 -55.5t-57.5 -32.5q12 -23 12 -51q0 -51 -38 -84t-99 -33q-53 0 -94.5 26t-59.5 62l32 19
q40 -73 121 -73q46 0 72.5 24t26.5 62q0 31 -15 49.5t-51 37.5l-86 47q-77 43 -77 108q0 39 23 64t57 35zM320 61q59 15 59 62q0 26 -14 45t-48 39l-78 46q-42 24 -63 51q-57 -17 -57 -74q0 -49 60 -81l86 -47q37 -20 55 -41z" />
    <glyph glyph-name="yentabsmall" 
d="M296 203l-37 -54l-4 -21h156l-5 -28h-156l-18 -100h-38l18 100h-153l5 28h153l4 21l-18 54h-126l5 29h111l-90 263h40l87 -256q4 -13 7.5 -30.5t4.5 -28.5l2 -12q14 36 34 66l180 261h40l-182 -263h113l-5 -29h-128z" />
    <glyph glyph-name="florintabsmall" 
d="M190 229h-92v33h98l17 97q13 72 48.5 108t85.5 36q72 0 110 -69l-30 -18q-15 26 -31.5 39t-47.5 13q-77 0 -96 -110l-17 -96h127v-33h-133l-57 -323h-39z" />
    <glyph glyph-name="dividetabsmall" 
d="M283 356q-15 0 -26 11t-11 26q0 16 11 26.5t26 10.5t26 -10.5t11 -26.5t-11 -26.5t-26 -10.5zM86 228l6 35h335l-6 -35h-335zM231 60q-15 0 -26 11t-11 26q0 16 11 26.5t26 10.5t26 -10.5t11 -26.5t-11 -26.5t-26 -10.5z" />
    <glyph glyph-name="Eurotabsmall" 
d="M94 277h-62l6 30h62q25 87 87 141.5t140 54.5q108 0 154 -98l-32 -14q-39 78 -124 78q-66 0 -115 -44.5t-70 -117.5h230l-6 -30h-231q-6 -31 -6 -65v-15h222l-6 -30h-213q10 -69 49.5 -105t101.5 -36q91 0 145 81l29 -18q-59 -97 -177 -97q-75 0 -125.5 46t-61.5 129h-79
l6 30h70v15q0 34 6 65z" />
    <glyph glyph-name="perthousandtabsmall" horiz-adv-x="1100" 
d="M202 219q-56 0 -95.5 37.5t-39.5 96.5q0 63 45.5 106.5t105.5 43.5q55 0 94.5 -37.5t39.5 -95.5q0 -66 -45 -108.5t-105 -42.5zM174 0l394 495h42l-394 -495h-42zM898 -8q-56 0 -95.5 37.5t-39.5 96.5q0 63 45.5 106.5t105.5 43.5q55 0 94.5 -37.5t39.5 -95.5
q0 -66 -45 -108.5t-105 -42.5zM564 -8q-56 0 -95.5 37.5t-39.5 96.5q0 63 45.5 106.5t105.5 43.5q55 0 94.5 -37.5t39.5 -95.5q0 -66 -45 -108.5t-105 -42.5zM202 251q48 0 80.5 33t32.5 87q0 45 -27 72t-70 27q-48 0 -81 -32.5t-33 -84.5q0 -47 27 -74.5t71 -27.5zM898 24
q48 0 80.5 33t32.5 87q0 45 -27 72t-70 27q-48 0 -81 -32.5t-33 -84.5q0 -47 27 -74.5t71 -27.5zM564 24q48 0 80.5 33t32.5 87q0 45 -27 72t-70 27q-48 0 -81 -32.5t-33 -84.5q0 -47 27 -74.5t71 -27.5z" />
    <glyph glyph-name="at.up" horiz-adv-x="860" 
d="M427 -94q-158 0 -259.5 104t-101.5 265q0 176 116.5 294.5t286.5 118.5q159 0 259 -99t100 -258q0 -110 -46 -167t-109 -57q-93 0 -107 86q-53 -89 -144 -89q-74 0 -120 50t-46 125q0 87 54 145.5t132 58.5q53 0 91.5 -31t52.5 -81l16 102h39l-41 -231q-9 -50 10.5 -76.5
t62.5 -26.5q50 0 84 51t34 143q0 139 -86 230.5t-235 91.5q-156 0 -260.5 -109.5t-104.5 -268.5q0 -146 89 -242t232 -96q97 0 176 43l16 -29q-83 -47 -191 -47zM425 137q62 0 106 50.5t44 117.5q0 61 -37.5 103t-94.5 42q-64 0 -106 -48t-42 -125q0 -63 36 -101.5t94 -38.5
z" />
    <glyph glyph-name="fb.alt" horiz-adv-x="784" 
d="M525 -8q-63 0 -110.5 39.5t-59.5 102.5l-20 -134h-38l126 722h38l-71 -403q28 47 72 72.5t94 25.5q80 0 129 -55t49 -142q0 -96 -61 -162t-148 -66zM131 375h-63l6 33h63l38 214q20 113 106 113q59 0 86 -51l-29 -19q-22 36 -57 36q-26 0 -43.5 -18t-25.5 -66l-37 -209
h107l-6 -33h-107l-83 -473q-11 -64 -38 -89t-72 -25h-29l6 35h25q27 0 44.5 17t26.5 67zM519 26q78 0 127.5 56.5t49.5 141.5q0 70 -38.5 114.5t-102.5 44.5q-78 0 -130.5 -55t-52.5 -139q0 -70 40.5 -116.5t106.5 -46.5z" />
    <glyph glyph-name="fh.alt" horiz-adv-x="745" 
d="M296 0l127 722h38l-69 -392q53 87 148 87q70 0 108 -48t24 -129l-30 -171q-6 -35 20 -35h42l-6 -34h-44q-62 0 -48 78l27 155q12 69 -13 109t-85 40q-64 0 -105.5 -38.5t-54.5 -109.5l-41 -234h-38zM131 375h-63l6 33h63l38 214q20 113 106 113q59 0 86 -51l-29 -19
q-22 36 -57 36q-26 0 -43.5 -18t-25.5 -66l-37 -209h107l-6 -33h-107l-83 -473q-11 -64 -38 -89t-72 -25h-29l6 35h25q27 0 44.5 17t26.5 67z" />
    <glyph glyph-name="fk.alt" horiz-adv-x="691" 
d="M357 130l-23 -130h-38l127 722h38l-89 -508q-2 -16 -9 -39l257 233h49l-190 -173l113 -181q12 -20 36 -20h24l-6 -34h-20q-42 0 -63 33l-114 179zM131 375h-63l6 33h63l38 214q20 113 106 113q59 0 86 -51l-29 -19q-22 36 -57 36q-26 0 -43.5 -18t-25.5 -66l-37 -209h107
l-6 -33h-107l-83 -473q-11 -64 -38 -89t-72 -25h-29l6 35h25q27 0 44.5 17t26.5 67z" />
    <glyph glyph-name="ffb.alt" horiz-adv-x="1017" 
d="M758 -8q-63 0 -110.5 39.5t-59.5 102.5l-20 -134h-38l126 722h38l-71 -403q28 47 72 72.5t94 25.5q80 0 129 -55t49 -142q0 -96 -61 -162t-148 -66zM131 375h-63l6 33h63l35 197q19 110 107 110q59 0 86 -51l-29 -19q-22 36 -57 36q-28 0 -44.5 -17.5t-24.5 -63.5
l-34 -192h193l38 214q20 113 106 113q59 0 86 -51l-29 -19q-22 36 -57 36q-26 0 -43.5 -18t-25.5 -66l-37 -209h107l-6 -33h-107l-79 -453q-11 -64 -38.5 -89t-72.5 -25h-29l6 35h25q27 0 44.5 17t26.5 67l79 448h-193l-83 -473q-11 -64 -38.5 -89t-72.5 -25h-29l6 35h25
q27 0 44.5 17t26.5 67zM752 26q78 0 127.5 56.5t49.5 141.5q0 70 -38.5 114.5t-102.5 44.5q-78 0 -130.5 -55t-52.5 -139q0 -70 40.5 -116.5t106.5 -46.5z" />
    <glyph glyph-name="ffh.alt" horiz-adv-x="977" 
d="M528 0l127 722h38l-69 -392q53 87 148 87q70 0 108 -48t24 -129l-30 -171q-6 -35 20 -35h42l-6 -34h-44q-62 0 -48 78l27 155q12 69 -13 109t-85 40q-64 0 -105.5 -38.5t-54.5 -109.5l-41 -234h-38zM131 375h-63l6 33h63l35 197q19 110 107 110q59 0 86 -51l-29 -19
q-22 36 -57 36q-28 0 -44.5 -17.5t-24.5 -63.5l-34 -192h193l38 214q20 113 106 113q59 0 86 -51l-29 -19q-22 36 -57 36q-26 0 -43.5 -18t-25.5 -66l-37 -209h107l-6 -33h-107l-79 -453q-11 -64 -38.5 -89t-72.5 -25h-29l6 35h25q27 0 44.5 17t26.5 67l79 448h-193
l-83 -473q-11 -64 -38.5 -89t-72.5 -25h-29l6 35h25q27 0 44.5 17t26.5 67z" />
    <glyph glyph-name="ffk.alt" horiz-adv-x="923" 
d="M711 235l113 -181q12 -20 36 -20h24l-6 -34h-20q-42 0 -63 33l-114 179l-92 -82l-23 -130h-38l127 722h38l-89 -508q-2 -16 -9 -39l257 233h49zM170 375l-83 -473q-11 -64 -38.5 -89t-72.5 -25h-29l6 35h25q27 0 44.5 17t26.5 67l82 468h-63l6 33h63l35 197
q19 110 107 110q59 0 86 -51l-29 -19q-22 36 -57 36q-28 0 -44.5 -17.5t-24.5 -63.5l-34 -192h193l38 214q20 113 106 113q59 0 86 -51l-29 -19q-22 36 -57 36q-26 0 -43.5 -18t-25.5 -66l-37 -209h107l-6 -33h-107l-79 -453q-11 -64 -38.5 -89t-72.5 -25h-29l6 35h25
q27 0 44.5 17t26.5 67l79 448h-193z" />
    <glyph glyph-name="fffl.alt" horiz-adv-x="925" 
d="M822 0q-62 0 -48 78l114 644h39l-117 -653q-6 -35 20 -35h49l-6 -34h-51zM595 375h-194l-81 -463q-11 -64 -38 -89t-72 -25h-29l6 35h25q27 0 44.5 17t26.5 67l81 458h-195l-83 -473q-11 -64 -38 -89t-72 -25h-29l6 35h25q27 0 44.5 17t26.5 67l82 468h-63l6 33h63
l35 197q19 110 106 110q59 0 86 -51l-29 -19q-22 36 -57 36q-28 0 -44.5 -17.5t-24.5 -63.5l-34 -192h194l37 207q19 110 106 110q59 0 86 -51l-29 -19q-22 36 -57 36q-28 0 -44.5 -17.5t-24.5 -63.5l-36 -202h194l38 214q20 113 106 113q59 0 86 -51l-29 -19q-22 36 -57 36
q-26 0 -43.5 -18t-25.5 -66l-37 -209h106l-6 -33h-106l-80 -453q-11 -64 -38 -89t-72 -25h-29l6 35h25q27 0 44.5 17t26.5 67z" />
    <glyph glyph-name="space.up" horiz-adv-x="244" 
 />
    <glyph glyph-name="nbspace.up" horiz-adv-x="244" 
 />
    <glyph glyph-name="hyphen.up" horiz-adv-x="289" 
d="M57 246l6 34h189l-6 -34h-189z" />
    <glyph glyph-name="guillemotleft.up" horiz-adv-x="338" 
d="M231 80l-63 144l2 8l116 164h47l-124 -171l65 -145h-43zM108 80l-63 144l2 8l116 164h47l-124 -171l65 -145h-43z" />
    <glyph glyph-name="guillemotright.up" horiz-adv-x="338" 
d="M141 80l124 171l-65 145h43l63 -144l-2 -8l-116 -164h-47zM18 80l124 171l-65 145h43l63 -144l-2 -8l-116 -164h-47z" />
    <glyph glyph-name="endash.up" horiz-adv-x="429" 
d="M49 246l6 34h345l-6 -34h-345z" />
    <glyph glyph-name="emdash.up" horiz-adv-x="663" 
d="M49 246l6 34h579l-6 -34h-579z" />
    <glyph glyph-name="guilsinglleft.up" horiz-adv-x="214" 
d="M106 80l-62 143v8l117 165h47l-124 -171l65 -145h-43z" />
    <glyph glyph-name="guilsinglright.up" horiz-adv-x="214" 
d="M18 80l124 171l-65 145h43l62 -143v-8l-117 -165h-47z" />
    <glyph glyph-name="umacron.alt" horiz-adv-x="478" 
d="M196 510l6 34h194l-6 -34h-194zM216 -8q-77 0 -119 46.5t-27 134.5l41 235h38l-42 -237q-14 -77 17.5 -111t90.5 -34q60 0 95 32t48 106l43 244h38l-44 -252q-14 -84 -61.5 -124t-117.5 -40z" />
    <glyph glyph-name="uring.alt" horiz-adv-x="478" 
d="M292 488q-39 0 -66.5 27t-27.5 65t27.5 65t66.5 27t66.5 -27t27.5 -65t-27.5 -65t-66.5 -27zM216 -8q-77 0 -119 46.5t-27 134.5l41 235h38l-42 -237q-14 -77 17.5 -111t90.5 -34q60 0 95 32t48 106l43 244h38l-44 -252q-14 -84 -61.5 -124t-117.5 -40zM292 518
q26 0 42.5 17t16.5 45t-16.5 45t-42.5 17t-42.5 -17t-16.5 -45t16.5 -45t42.5 -17z" />
    <glyph glyph-name="uhungarumlaut.alt" horiz-adv-x="478" 
d="M326 497l107 195h48l-122 -195h-33zM209 497l107 195h48l-122 -195h-33zM216 -8q-77 0 -119 46.5t-27 134.5l41 235h38l-42 -237q-14 -77 17.5 -111t90.5 -34q60 0 95 32t48 106l43 244h38l-44 -252q-14 -84 -61.5 -124t-117.5 -40z" />
    <glyph glyph-name="uogonek.alt" horiz-adv-x="478" 
d="M188 -6q-65 8 -98.5 54t-19.5 125l41 235h38l-42 -237q-14 -77 17.5 -111t90.5 -34q60 0 95 32t48 106l43 244h38l-44 -252q-27 -157 -169 -164l-33 -37q-21 -24 -30 -35.5t-17 -29.5t-8 -37q0 -21 14.5 -34.5t35.5 -13.5q35 0 59 39l29 -15q-27 -57 -90 -57
q-35 0 -60.5 21.5t-25.5 59.5q0 53 63 116z" />
    <glyph glyph-name="Gcommaaccent.alt" horiz-adv-x="774" 
d="M396 -8q-139 0 -229 91t-90 232q0 161 107 267t259 106q185 0 261 -132l-34 -20q-68 116 -229 116q-135 0 -229 -97t-94 -237q0 -129 78 -209.5t202 -80.5t202 68t97 168h-260l6 35h300q-16 -139 -110 -223t-237 -84zM280 -243l48 103q-23 6 -23 35q0 16 12 27t27 11
q17 0 27.5 -10t10.5 -27q0 -14 -10 -31l-67 -108h-25z" />
    <glyph glyph-name="Gbreve.alt" horiz-adv-x="774" 
d="M454 742q-48 0 -75.5 31t-31.5 75l35 6q6 -37 21.5 -57.5t50.5 -20.5q65 0 88 78l35 -7q-13 -45 -43.5 -75t-79.5 -30zM396 -8q-139 0 -229 91t-90 232q0 161 107 267t259 106q185 0 261 -132l-34 -20q-68 116 -229 116q-135 0 -229 -97t-94 -237q0 -129 78 -209.5
t202 -80.5t202 68t97 168h-260l6 35h300q-16 -139 -110 -223t-237 -84z" />
    <glyph glyph-name="Gcircumflex.alt" horiz-adv-x="774" 
d="M350 752l142 182h9l84 -182h-34l-62 125l-102 -125h-37zM396 -8q-139 0 -229 91t-90 232q0 161 107 267t259 106q185 0 261 -132l-34 -20q-68 116 -229 116q-135 0 -229 -97t-94 -237q0 -129 78 -209.5t202 -80.5t202 68t97 168h-260l6 35h300q-16 -139 -110 -223
t-237 -84z" />
    <glyph glyph-name="emacron.alt" horiz-adv-x="499" 
d="M192 510l6 34h194l-6 -34h-194zM90 196v-4q0 -71 44.5 -118.5t114.5 -47.5q91 0 143 59l25 -22q-63 -71 -168 -71q-85 0 -141.5 56.5t-56.5 144.5q0 93 63 158.5t153 65.5t140 -62.5t41 -158.5h-358zM93 228h319q0 69 -37 112.5t-109 43.5q-67 0 -114.5 -44t-58.5 -112z
" />
    <glyph glyph-name="edotaccent.alt" horiz-adv-x="499" 
d="M299 520q-13 0 -23 9.5t-10 23.5t10 23.5t23 9.5t23 -9.5t10 -23.5t-10 -23.5t-23 -9.5zM90 196v-4q0 -71 44.5 -118.5t114.5 -47.5q91 0 143 59l25 -22q-63 -71 -168 -71q-85 0 -141.5 56.5t-56.5 144.5q0 93 63 158.5t153 65.5t140 -62.5t41 -158.5h-358zM93 228h319
q0 69 -37 112.5t-109 43.5q-67 0 -114.5 -44t-58.5 -112z" />
    <glyph glyph-name="ecaron.alt" horiz-adv-x="499" 
d="M284 491l-84 182h34l62 -125l102 125h37l-142 -182h-9zM90 196v-4q0 -71 44.5 -118.5t114.5 -47.5q91 0 143 59l25 -22q-63 -71 -168 -71q-85 0 -141.5 56.5t-56.5 144.5q0 93 63 158.5t153 65.5t140 -62.5t41 -158.5h-358zM93 228h319q0 69 -37 112.5t-109 43.5
q-67 0 -114.5 -44t-58.5 -112z" />
    <glyph glyph-name="eogonek.alt" horiz-adv-x="499" 
d="M255 -8l-33 -37q-21 -24 -30 -35.5t-17 -29.5t-8 -37q0 -21 14.5 -34.5t35.5 -13.5q35 0 59 39l29 -15q-27 -57 -90 -57q-35 0 -60.5 21.5t-25.5 59.5q0 53 63 116l25 25q-73 11 -119.5 65.5t-46.5 133.5q0 93 63 158.5t153 65.5t140 -62.5t41 -158.5h-358v-4
q0 -71 44.5 -118.5t114.5 -47.5q91 0 143 59l25 -22q-60 -68 -162 -71zM93 228h319q0 69 -37 112.5t-109 43.5q-67 0 -114.5 -44t-58.5 -112z" />
    <glyph glyph-name="ubreve.alt" horiz-adv-x="478" 
d="M289 484q-48 0 -75.5 31t-31.5 75l35 6q6 -37 21.5 -57.5t50.5 -20.5q65 0 88 78l35 -7q-13 -45 -43.5 -75t-79.5 -30zM216 -8q-77 0 -119 46.5t-27 134.5l41 235h38l-42 -237q-14 -77 17.5 -111t90.5 -34q60 0 95 32t48 106l43 244h38l-44 -252q-14 -84 -61.5 -124
t-117.5 -40z" />
    <glyph glyph-name="Amacronsmall" horiz-adv-x="489" 
d="M201 578l6 34h194l-6 -34h-194zM96 91l-51 -91h-40l286 501h9l112 -501h-38l-20 91h-258zM347 124l-53 248l-8 67q-16 -41 -29 -64l-142 -251h232z" />
    <glyph glyph-name="Aogoneksmall" horiz-adv-x="489" 
d="M374 1l-20 90h-258l-51 -91h-40l286 501h9l112 -501l-40 -45q-21 -24 -30 -35.5t-17 -29.5t-8 -37q0 -21 14.5 -34.5t35.5 -13.5q35 0 59 39l29 -15q-27 -57 -90 -57q-35 0 -60.5 21.5t-25.5 59.5q0 53 63 116zM347 124l-53 248l-8 67q-16 -41 -29 -64l-142 -251h232z
" />
    <glyph glyph-name="Ccaronsmall" horiz-adv-x="545" 
d="M329 559l-84 182h34l62 -125l102 125h37l-142 -182h-9zM288 -8q-100 0 -167.5 68t-67.5 172q0 115 77.5 193t188.5 78q127 0 189 -96l-29 -20q-56 82 -161 82q-95 0 -160 -68t-65 -168q0 -90 54.5 -148.5t141.5 -58.5q101 0 169 79l28 -24q-78 -89 -198 -89z" />
    <glyph glyph-name="Cacutesmall" horiz-adv-x="545" 
d="M319 565l106 195h49l-122 -195h-33zM288 -8q-100 0 -167.5 68t-67.5 172q0 115 77.5 193t188.5 78q127 0 189 -96l-29 -20q-56 82 -161 82q-95 0 -160 -68t-65 -168q0 -90 54.5 -148.5t141.5 -58.5q101 0 169 79l28 -24q-78 -89 -198 -89z" />
    <glyph glyph-name="Zacutesmall" horiz-adv-x="443" 
d="M268 565l106 195h49l-122 -195h-33zM8 0v7l361 455h-249l6 33h307v-8l-361 -454h290l-6 -33h-348z" />
    <glyph glyph-name="Dcaronsmall" horiz-adv-x="499" 
d="M289 559l-84 182h34l62 -125l102 125h37l-142 -182h-9zM45 0l87 495h106q109 0 167.5 -59.5t58.5 -157.5q0 -126 -76 -202t-213 -76h-130zM89 33h82q124 0 188.5 67t64.5 179q0 83 -47 133t-142 50h-71z" />
    <glyph glyph-name="Emacronsmall" horiz-adv-x="436" 
d="M189 578l6 34h194l-6 -34h-194zM45 0l87 495h286l-6 -33h-249l-44 -253h225l-6 -33h-225l-25 -143h266l-6 -33h-303z" />
    <glyph glyph-name="Edotaccentsmall" horiz-adv-x="436" 
d="M294 588q-13 0 -23 9.5t-10 23.5t10 23.5t23 9.5t23 -9.5t10 -23.5t-10 -23.5t-23 -9.5zM45 0l87 495h286l-6 -33h-249l-44 -253h225l-6 -33h-225l-25 -143h266l-6 -33h-303z" />
    <glyph glyph-name="Ecaronsmall" horiz-adv-x="436" 
d="M276 559l-84 182h34l62 -125l102 125h37l-142 -182h-9zM45 0l87 495h286l-6 -33h-249l-44 -253h225l-6 -33h-225l-25 -143h266l-6 -33h-303z" />
    <glyph glyph-name="Eogoneksmall" horiz-adv-x="436" 
d="M261 0h-216l87 495h286l-6 -33h-249l-44 -253h225l-6 -33h-225l-25 -143h266l-6 -33h-48l-40 -45q-21 -24 -30 -35.5t-17 -29.5t-8 -37q0 -21 14.5 -34.5t35.5 -13.5q35 0 59 39l29 -15q-27 -57 -90 -57q-35 0 -60.5 21.5t-25.5 59.5q0 53 63 116z" />
    <glyph glyph-name="Gcommaaccentsmall" horiz-adv-x="552" 
d="M294 -8q-105 0 -173 66t-68 172q0 117 77.5 195t185.5 78q111 0 176 -77l-28 -23q-57 66 -150 66q-94 0 -158 -69t-64 -168q0 -92 56 -149t146 -57q78 0 140 41l22 125h-152l6 34h188l-31 -178q-75 -56 -173 -56zM158 -243l48 103q-23 6 -23 35q0 16 12 27t27 11
q17 0 27.5 -10t10.5 -27q0 -14 -10 -31l-67 -108h-25z" />
    <glyph glyph-name="Iogoneksmall" horiz-adv-x="208" 
d="M49 1l87 494h38l-87 -495l-40 -45q-21 -24 -30 -35.5t-17 -29.5t-8 -37q0 -21 14.5 -34.5t35.5 -13.5q35 0 59 39l29 -15q-27 -57 -90 -57q-35 0 -60.5 21.5t-25.5 59.5q0 53 63 116z" />
    <glyph glyph-name="Imacronsmall" horiz-adv-x="208" 
d="M73 578l6 34h194l-6 -34h-194zM49 0l87 495h38l-87 -495h-38z" />
    <glyph glyph-name="Lcommaaccentsmall" horiz-adv-x="388" 
d="M45 0l87 495h38l-81 -461h233l-6 -34h-271zM101 -243l48 103q-23 6 -23 35q0 16 12 27t27 11q17 0 27.5 -10t10.5 -27q0 -14 -10 -31l-67 -108h-25z" />
    <glyph glyph-name="Lcaronsmall" horiz-adv-x="388" 
d="M257 327l48 103q-23 6 -23 35q0 16 12 27t27 11q17 0 27.5 -10t10.5 -27q0 -14 -10 -31l-67 -108h-25zM45 0l87 495h38l-81 -461h233l-6 -34h-271z" />
    <glyph glyph-name="Lacutesmall" horiz-adv-x="388" 
d="M152 565l106 195h49l-122 -195h-33zM45 0l87 495h38l-81 -461h233l-6 -34h-271z" />
    <glyph glyph-name="Ncommaaccentsmall" horiz-adv-x="531" 
d="M405 -6l-226 373l-30 58q-1 -37 -6 -65l-63 -360h-35l88 500h8l224 -368l32 -65q2 45 7 73l62 355h35l-88 -501h-8zM153 -243l48 103q-23 6 -23 35q0 16 12 27t27 11q17 0 27.5 -10t10.5 -27q0 -14 -10 -31l-67 -108h-25z" />
    <glyph glyph-name="Abrevesmall" horiz-adv-x="489" 
d="M303 552q-48 0 -75.5 31t-31.5 75l35 6q6 -37 21.5 -57.5t50.5 -20.5q65 0 88 78l35 -7q-13 -45 -43.5 -75t-79.5 -30zM96 91l-51 -91h-40l286 501h9l112 -501h-38l-20 91h-258zM347 124l-53 248l-8 67q-16 -41 -29 -64l-142 -251h232z" />
    <glyph glyph-name="Nacutesmall" horiz-adv-x="531" 
d="M307 565l106 195h49l-122 -195h-33zM405 -6l-226 373l-30 58q-1 -37 -6 -65l-63 -360h-35l88 500h8l224 -368l32 -65q2 45 7 73l62 355h35l-88 -501h-8z" />
    <glyph glyph-name="Ncaronsmall" horiz-adv-x="531" 
d="M322 559l-84 182h34l62 -125l102 125h37l-142 -182h-9zM405 -6l-226 373l-30 58q-1 -37 -6 -65l-63 -360h-35l88 500h8l224 -368l32 -65q2 45 7 73l62 355h35l-88 -501h-8z" />
    <glyph glyph-name="Ohungarumlautsmall" horiz-adv-x="595" 
d="M372 565l107 195h48l-122 -195h-33zM255 565l107 195h48l-122 -195h-33zM290 -8q-100 0 -168.5 67t-68.5 171q0 116 78.5 194.5t189.5 78.5q100 0 168.5 -66t68.5 -170q0 -116 -78.5 -195.5t-189.5 -79.5zM291 26q96 0 162 70t66 172q0 88 -56 144.5t-143 56.5
q-97 0 -162.5 -69t-65.5 -170q0 -88 56 -146t143 -58z" />
    <glyph glyph-name="Omacronsmall" horiz-adv-x="595" 
d="M254 578l6 34h194l-6 -34h-194zM290 -8q-100 0 -168.5 67t-68.5 171q0 116 78.5 194.5t189.5 78.5q100 0 168.5 -66t68.5 -170q0 -116 -78.5 -195.5t-189.5 -79.5zM291 26q96 0 162 70t66 172q0 88 -56 144.5t-143 56.5q-97 0 -162.5 -69t-65.5 -170q0 -88 56 -146
t143 -58z" />
    <glyph glyph-name="Racutesmall" horiz-adv-x="445" 
d="M248 565l106 195h49l-122 -195h-33zM286 146l82 -146h-41l-77 137q-22 -3 -51 -3h-93l-23 -134h-38l87 495h105q84 0 129.5 -45.5t44.5 -117.5q-1 -67 -32.5 -116.5t-92.5 -69.5zM112 167h87q90 0 131.5 44.5t41.5 120.5q0 60 -34.5 95t-103.5 35h-70z" />
    <glyph glyph-name="Rcaronsmall" horiz-adv-x="445" 
d="M267 559l-84 182h34l62 -125l102 125h37l-142 -182h-9zM286 146l82 -146h-41l-77 137q-22 -3 -51 -3h-93l-23 -134h-38l87 495h105q84 0 129.5 -45.5t44.5 -117.5q-1 -67 -32.5 -116.5t-92.5 -69.5zM112 167h87q90 0 131.5 44.5t41.5 120.5q0 60 -34.5 95t-103.5 35h-70z
" />
    <glyph glyph-name="Rcommaaccentsmall" horiz-adv-x="445" 
d="M286 146l82 -146h-41l-77 137q-22 -3 -51 -3h-93l-23 -134h-38l87 495h105q84 0 129.5 -45.5t44.5 -117.5q-1 -67 -32.5 -116.5t-92.5 -69.5zM114 -243l48 103q-23 6 -23 35q0 16 12 27t27 11q17 0 27.5 -10t10.5 -27q0 -14 -10 -31l-67 -108h-25zM112 167h87
q90 0 131.5 44.5t41.5 120.5q0 60 -34.5 95t-103.5 35h-70z" />
    <glyph glyph-name="Sacutesmall" horiz-adv-x="406" 
d="M229 565l106 195h49l-122 -195h-33zM189 -8q-63 0 -109 31t-66 70l31 19q21 -36 57.5 -61t86.5 -25q57 0 87 27.5t30 72.5q0 35 -20.5 60t-64.5 51l-37 22q-87 52 -87 126q0 54 37 86t87 32q83 0 124 -75l-30 -19q-34 61 -95 61q-35 0 -60 -22.5t-25 -61.5
q0 -31 15.5 -52t53.5 -44l37 -22q103 -61 103 -144q0 -57 -41.5 -94.5t-113.5 -37.5z" />
    <glyph glyph-name="Tcaronsmall" horiz-adv-x="404" 
d="M251 559l-84 182h34l62 -125l102 125h37l-142 -182h-9zM146 0l82 462h-152l6 33h342l-6 -33h-152l-82 -462h-38z" />
    <glyph glyph-name="Umacronsmall" horiz-adv-x="491" 
d="M211 578l6 34h194l-6 -34h-194zM228 -6q-78 0 -123.5 49.5t-30.5 137.5l55 314h38l-55 -314q-14 -76 19.5 -114.5t97.5 -38.5q117 0 137 123l59 344h38l-60 -348q-26 -153 -175 -153z" />
    <glyph glyph-name="Uringsmall" horiz-adv-x="491" 
d="M312 556q-39 0 -66.5 27t-27.5 65t27.5 65t66.5 27t66.5 -27t27.5 -65t-27.5 -65t-66.5 -27zM228 -6q-78 0 -123.5 49.5t-30.5 137.5l55 314h38l-55 -314q-14 -76 19.5 -114.5t97.5 -38.5q117 0 137 123l59 344h38l-60 -348q-26 -153 -175 -153zM312 586q26 0 42.5 17
t16.5 45t-16.5 45t-42.5 17t-42.5 -17t-16.5 -45t16.5 -45t42.5 -17z" />
    <glyph glyph-name="Uhungarumlautsmall" horiz-adv-x="491" 
d="M343 565l107 195h48l-122 -195h-33zM226 565l107 195h48l-122 -195h-33zM228 -6q-78 0 -123.5 49.5t-30.5 137.5l55 314h38l-55 -314q-14 -76 19.5 -114.5t97.5 -38.5q117 0 137 123l59 344h38l-60 -348q-26 -153 -175 -153z" />
    <glyph glyph-name="Uogoneksmall" horiz-adv-x="491" 
d="M193 -3q-63 11 -97.5 59t-21.5 125l55 314h38l-55 -314q-14 -76 19.5 -114.5t97.5 -38.5q117 0 137 123l59 344h38l-60 -348q-26 -151 -173 -153l-35 -39q-21 -24 -30 -35.5t-17 -29.5t-8 -37q0 -21 14.5 -34.5t35.5 -13.5q35 0 59 39l29 -15q-27 -57 -90 -57
q-35 0 -60.5 21.5t-25.5 59.5q0 53 63 116z" />
    <glyph glyph-name="Kcommaaccentsmall" horiz-adv-x="450" 
d="M106 175q31 44 49 63l245 257h46l-224 -233l166 -262h-44l-148 237l-87 -89l-26 -148h-38l87 495h38l-43 -245q-6 -30 -21 -75zM117 -243l48 103q-23 6 -23 35q0 16 12 27t27 11q17 0 27.5 -10t10.5 -27q0 -14 -10 -31l-67 -108h-25z" />
    <glyph glyph-name="Zdotaccentsmall" horiz-adv-x="443" 
d="M293 588q-13 0 -23 9.5t-10 23.5t10 23.5t23 9.5t23 -9.5t10 -23.5t-10 -23.5t-23 -9.5zM8 0v7l361 455h-249l6 33h307v-8l-361 -454h290l-6 -33h-348z" />
    <glyph glyph-name="Idotaccentsmall" horiz-adv-x="208" 
d="M178 588q-13 0 -23 9.5t-10 23.5t10 23.5t23 9.5t23 -9.5t10 -23.5t-10 -23.5t-23 -9.5zM49 0l87 495h38l-87 -495h-38z" />
    <glyph glyph-name="Gbrevesmall" horiz-adv-x="552" 
d="M322 552q-48 0 -75.5 31t-31.5 75l35 6q6 -37 21.5 -57.5t50.5 -20.5q65 0 88 78l35 -7q-13 -45 -43.5 -75t-79.5 -30zM294 -8q-105 0 -173 66t-68 172q0 117 77.5 195t185.5 78q111 0 176 -77l-28 -23q-57 66 -150 66q-94 0 -158 -69t-64 -168q0 -92 56 -149t146 -57
q78 0 140 41l22 125h-152l6 34h188l-31 -178q-75 -56 -173 -56z" />
    <glyph glyph-name="Dcroatsmall" 
d="M77 178h-60l6 33h60l50 284h106q109 0 167.5 -59.5t58.5 -157.5q0 -126 -76 -202t-213 -76h-130zM121 211h138l-6 -33h-138l-25 -145h82q124 0 188.5 67t64.5 179q0 83 -47 133t-142 50h-71z" />
    <glyph glyph-name="Scommaaccentsmall" horiz-adv-x="406" 
d="M189 -8q-63 0 -109 31t-66 70l31 19q21 -36 57.5 -61t86.5 -25q57 0 87 27.5t30 72.5q0 35 -20.5 60t-64.5 51l-37 22q-87 52 -87 126q0 54 37 86t87 32q83 0 124 -75l-30 -19q-34 61 -95 61q-35 0 -60 -22.5t-25 -61.5q0 -31 15.5 -52t53.5 -44l37 -22q103 -61 103 -144
q0 -57 -41.5 -94.5t-113.5 -37.5zM81 -243l48 103q-23 6 -23 35q0 16 12 27t27 11q17 0 27.5 -10t10.5 -27q0 -14 -10 -31l-67 -108h-25z" />
    <glyph glyph-name="Tcommaaccentsmall" horiz-adv-x="404" 
d="M146 0l82 462h-152l6 33h342l-6 -33h-152l-82 -462h-38zM86 -243l48 103q-23 6 -23 35q0 16 12 27t27 11q17 0 27.5 -10t10.5 -27q0 -14 -10 -31l-67 -108h-25z" />
    <glyph glyph-name="Gcommaaccentsmall.alt" horiz-adv-x="582" 
d="M287 -8q-102 0 -168 67t-66 171q0 117 78 195t188 78q129 0 193 -98l-32 -20q-53 83 -163 83q-94 0 -159.5 -68t-65.5 -168q0 -94 54.5 -150t142.5 -56q85 0 140.5 48t67.5 116h-189l5 34h228q-11 -105 -79.5 -168.5t-174.5 -63.5zM177 -243l48 103q-23 6 -23 35
q0 16 12 27t27 11q17 0 27.5 -10t10.5 -27q0 -14 -10 -31l-67 -108h-25z" />
    </font>
</defs>
</svg>
